<?xml version="1.0" encoding="utf-8"?>
<!-- Generator: Adobe Illustrator 22.1.0, SVG Export Plug-In . SVG Version: 6.00 Build 0)  -->
<svg version="1.1" id="Layer_1" xmlns="http://www.w3.org/2000/svg" xmlns:xlink="http://www.w3.org/1999/xlink" x="0px" y="0px"
	 viewBox="0 0 708.7 300.4" style="enable-background:new 0 0 708.7 300.4;" xml:space="preserve">
<style type="text/css">
	.st0{fill:#FFFFFF;}
	.st1{font-family:'Sunset-Regular';}
	.st2{font-size:45.7993px;}
</style>
<g>
	<g>
		<path class="st0" d="M101.8,88.8h3.3V35.2h-3.3V88.8z M112.5,36.4l4.8-4.8h10.8v-3.3H79v3.3h10.8l0.1,0.1l4.7,4.8v51.2l-0.1,0.1
			l-4.7,4.8H79v3.3h49.2v-3.3h-10.8l-0.1-0.1l-4.8-4.8L112.5,36.4L112.5,36.4z M112.7,92.6H94.4l3.5-3.6V35.1l-3.5-3.6h18.3
			l-3.5,3.5V89L112.7,92.6z"/>
		<path class="st0" d="M394.6,88.8h3.3V35.2h-3.3V88.8z M405.2,36.4l4.8-4.8h10.8v-3.3h-49.2v3.3h10.8l0.1,0.1l4.7,4.8v51.2
			l-0.1,0.1l-4.7,4.8h-10.8v3.3h49.2v-3.3h-10.8l-0.1-0.1l-4.8-4.8L405.2,36.4L405.2,36.4z M405.4,92.6h-18.3l3.5-3.6V35.1l-3.5-3.6
			h18.3l-3.5,3.5V89L405.4,92.6z"/>
		<path class="st0" d="M174.4,35.1l44,53.7h4.3l-44-53.7H174.4z M209.3,28.3v3.3h9.2l0.1,0.1l8.4,10.9v40.6l-0.4-0.5l-44.3-54.4
			h-37.6v3.3h17.7l0.9,1V81l-0.1,0.1L154,92.6h-9.4v3.3h41v-3.3h-9.7l-0.1-0.1l-9.3-11.6V36.2l0.4,0.5l48.5,59.1h14.7V42.8l8.8-11.2
			h9.2v-3.3H209.3z M171.7,92.6h-13.5l6.7-8.4L171.7,92.6z M226.9,92.6h-9.9l-0.1-0.1l-50-60.9h13.6l0.1,0.1l46.2,56.8V92.6z
			 M228.6,39.4l-6-7.8h12.2L228.6,39.4z"/>
		<path class="st0" d="M566.2,35.1l44,53.7h4.3l-44-53.7H566.2z M601,28.3v3.3h9.2l0.1,0.1l8.4,10.9v40.6l-0.4-0.5l-44.3-54.4h-37.6
			v3.3h17.7l0.9,1V81l-0.1,0.1l-9.2,11.6h-9.4v3.3h41v-3.3h-9.7l-0.1-0.1l-9.3-11.6V36.2l0.4,0.5l48.5,59.1h14.7V42.8l8.8-11.2h9.2
			v-3.3H601z M563.4,92.6h-13.5l6.7-8.4L563.4,92.6z M618.6,92.6h-9.9l-0.1-0.1l-50-60.9h13.6l0.1,0.1l46.2,56.8V92.6z M620.3,39.4
			l-6-7.8h12.2L620.3,39.4z"/>
		<path class="st0" d="M518.3,92.6l-6.3-4.2l0-0.1l-27.9-60.7h-7.1l-31.2,54.8c-2.4,4.2-6.2,8.1-9.9,10.1l-0.1,0H432v3.3h28.2v-3.3
			h-6.1l-0.1-0.1l-4.5-9.9l0.1-0.1l4-7h34.2l6.3,13.9l-2.7,3.2h-10.8v3.3h44.5v-3.3H518.3z M450.4,92.6h-8.9l0.5-0.4
			c1.9-1.7,3.7-3.7,5.2-5.8l0.2-0.3L450.4,92.6z M455.1,72.4l15.8-28.2h2.6l0.1,0.1l12.8,28.1H455.1z M495.7,92.6l2.2-2.7l-8.7-19.2
			l-13.6-29.8h-2.4l5.7-10h3l0.1,0.1l27.3,59.5l3,2H495.7z M478.3,38.8l23.3,50.8h3.6l-24.9-54.3L478.3,38.8z"/>
		<path class="st0" d="M287.6,88.8h3.3V35.2h-3.3V88.8z M312.1,28.3h-47.4v3.3h10.8l0.1,0.1l4.7,4.8v51.2l-0.1,0.1l-4.7,4.8h-10.8
			v3.3h50.6c25,0,39.3-12.3,39.3-33.7C354.6,40,339.9,28.3,312.1,28.3 M280.1,92.6l3.5-3.6V35.1l-3.5-3.6h18.5l-3.5,3.5V89l3.5,3.5
			H280.1z M321.7,92.6L321.7,92.6l-18.4,0l-0.1-0.1l-4.8-4.8V36.5l0.1-0.1l4.8-4.8l17,0c11.5,3.2,13.8,14,13.8,30.6
			C334.1,80,332.2,89.6,321.7,92.6 M332.3,90l-0.8,0.3l0.5-0.6c4.9-6.5,5.4-17.1,5.4-27.5c0-13.8-2-22.4-6.5-27.7l-0.5-0.6l0.8,0.2
			c13.4,4.2,20.3,13.6,20.3,28.1C351.3,76,344.7,85.6,332.3,90 M339.8,43.5c0.4,1.5,0.7,3.3,1,5.4c2.8,5.2,2.8,10.4,2.8,13.3
			c0,4.5-0.8,8.5-2.4,12c-0.2,2.3-0.5,4.3-0.9,6.1c4.5-4.4,6.7-10.5,6.7-18.1C347.1,58.4,347.1,49.8,339.8,43.5"/>
		<path class="st0" d="M592.7,137l43.9,53.6h4.2L597,137H592.7z M627.5,130.2v3.3h9.2l0.1,0.1l8.3,10.9V185l-0.4-0.5l-44.2-54.3H563
			v3.3h17.7l0.9,1v48.3l0,0.1l-9.2,11.5H563v3.3h40.9v-3.3h-9.7l-0.1-0.1l-9.3-11.6v-44.6l0.4,0.5l48.4,59h14.7v-53l8.8-11.1h9.2
			v-3.3H627.5z M590,194.3h-13.5l6.7-8.4L590,194.3z M645.1,194.3h-9.8l-0.1-0.1l-49.9-60.8h13.6l0.1,0.1l46.1,56.7V194.3z
			 M646.8,141.3l-6-7.8H653L646.8,141.3z"/>
		<path class="st0" d="M483.7,190.6h3.3v-53.5h-3.3V190.6z M539.9,172.4l-18,21.9H498l-3.8-4.9v-26.5h11.1l0.1,0.1l12.2,14.4h1.4
			v-31.9h-1.4l-12.2,14.2h-11.2v-21.2l0-0.1l3.7-4.8h26.1l0.1,0.1l15.8,21.8h1.2l-1-25.2h-79.5v3.3h10.8l0.1,0.1l4.8,4.8v51.1
			l-0.1,0.1l-4.8,4.8h-10.8v3.3h80.5v-25.2H539.9z M508.5,161.1l7.3-8.5v17.4l-7.4-8.8L508.5,161.1z M537,133.5l0.5,13l-9.4-13H537z
			 M476.2,194.3l3.5-3.5V137l-3.5-3.5h17.7l-2.9,3.8v53.3l2.9,3.8H476.2z M537.9,194.3h-11.7l11.7-14.3V194.3z"/>
		<path class="st0" d="M322.6,146c0,0.3-0.1,0.7-0.8,1.1c0,0,0,0-0.1,0c0,1.2-0.1,2.3-0.4,3.5c0.5-0.2,1-0.4,1.4-0.7
			c2.9-1.5,2.9-2.7,2.9-3.5c0-1.9-1.7-3.8-4.7-5.2c0.3,1.1,0.5,2.3,0.6,3.5C322.5,145.1,322.6,145.6,322.6,146 M269.4,190.6h3.3
			v-53.5h-3.3V190.6z M310.5,175.4l0.1,0.2c0.3,0.9,0.6,2.1,0.8,2.7l3.4,12.3h3.4c-1.2-3.5-2.9-9.3-4.3-14.7
			C313.2,175.8,311.4,175.5,310.5,175.4 M328.1,194.3l-2-2c-2.2-5.7-4.2-12.9-6.6-23.2h-1c-7.4,0-12.5-1.4-15.4-4.2L303,165v-1.8
			l1.6-1.8l0.1,0c19.7-1.6,28.5-6.3,28.5-15c0-10.1-12.4-16.2-33.1-16.2h-53.7v3.3h10.8l0.1,0.1l4.8,4.8v51.1l-0.1,0.1l-4.8,4.8
			h-10.8v3.3H295v-3.3h-11.2l-0.1-0.1l-3.7-4.8v-25.7l12.7,0c6,1.6,9.3,6.1,12.2,16.6l4.8,17.3h27.7v-3.3H328.1z M261.9,194.3
			l3.5-3.5V137l-3.5-3.5h17.7l-2.9,3.8v53.3l2.9,3.8H261.9z M312.8,134.4c11.1,1.8,17.2,6.1,17.2,12c0,3.3-1.6,7.9-15.4,10.5
			l-0.6,0.1l0.4-0.5c2.7-3.4,3.2-7.1,3.2-9.6c0-4.7-1.7-8.9-4.9-12l-0.5-0.5L312.8,134.4z M280.2,160.5H280v-22.1l0-0.1l3.7-4.8
			l20.2,0c6.6,2.2,10.3,7,10.3,13.3c0,7.4-5.1,12.1-14.9,13.6L280.2,160.5z M312.3,194.3l-4.1-14.9c-1-3.7-2-6.5-3.2-8.8l-0.3-0.6
			l0.6,0.3c3,1.3,6.7,2,11.4,2.1l0.2,0l0,0.2c2.1,8.9,4,15.6,6.1,20.9l0.3,0.8H312.3z"/>
		<path class="st0" d="M228.4,194.3l-6.2-4.2l0-0.1l-27.8-60.6h-7l-31.2,54.7c-2.4,4.2-6.2,8-9.9,10.1l-0.1,0h-3.8v3.3h28.1v-3.3
			h-6.1l-0.1-0.1l-4.5-9.8l0.1-0.1l4-7H198l6.3,13.9l-2.7,3.2h-10.7v3.3h44.4v-3.3H228.4z M160.7,194.3h-8.9l0.5-0.4
			c1.9-1.7,3.7-3.7,5.2-5.8l0.2-0.3L160.7,194.3z M165.3,174.2l15.8-28.2h2.6l0.1,0.1l12.8,28.1H165.3z M205.9,194.3l2.2-2.7
			l-8.7-19.2l-13.6-29.8h-2.4l5.7-10h3l0.1,0.1l27.3,59.4l3,2H205.9z M188.5,140.7l23.3,50.7h3.6l-24.9-54.2L188.5,140.7z"/>
		<path class="st0" d="M376.8,190.6h3.3v-53.5h-3.3V190.6z M428.9,145.3c0.4,1.5,0.7,3.3,1,5.4c2.8,5.2,2.8,10.4,2.8,13.3
			c0,4.5-0.8,8.5-2.4,12c-0.2,2.3-0.5,4.3-0.9,6.1c4.5-4.4,6.7-10.4,6.7-18.1C436.2,160.2,436.2,151.6,428.9,145.3 M401.2,130.2H354
			v3.3h10.8l0.1,0.1l4.7,4.8v51.1l-0.1,0.1l-4.7,4.8H354v3.3h50.5c24.9,0,39.2-12.3,39.2-33.6C443.7,141.9,429,130.2,401.2,130.2
			 M369.3,194.3l3.5-3.6V137l-3.5-3.5h18.4l-3.5,3.5v53.8l3.5,3.5H369.3z M410.8,194.3L410.8,194.3l-18.4,0l-0.1-0.1l-4.8-4.8v-51.1
			l0.1-0.1l4.8-4.8l17,0c11.5,3.2,13.8,14,13.8,30.5C423.2,181.8,421.3,191.4,410.8,194.3 M421.4,191.8l-0.8,0.3l0.5-0.6
			c4.9-6.5,5.4-17.1,5.4-27.4c0-13.8-2-22.3-6.5-27.7l-0.5-0.6l0.8,0.2c13.4,4.1,20.2,13.6,20.2,28.1
			C440.4,177.8,433.8,187.4,421.4,191.8"/>
		<path class="st0" d="M117.8,172h-3.3v14.3c1.2-0.3,2.2-0.5,3.3-0.6V172z M92.3,165.1v3.3h10.9l4.1,4.9v15.1l0,0.1
			c-3.2,5.5-10.2,8.5-19.9,8.5c-8.6,0-14.7-2.4-18.7-7.5c-3.9-4.9-5.8-12.3-5.8-22.7c0-24.7,8.1-35.7,26.2-35.7
			c14.4,0,25.5,8.2,34,25.1h1.2v-27.2h-1.3l-4.5,5l-5.5,0c-9.4-3.3-16.9-5.4-25.3-5.4c-25.9,0-45.4,15.8-45.4,36.7
			c0,20.2,17.7,34.2,43,34.2c9.3,0,16.7-2.1,23.2-3.9c5.4-1.5,10-2.8,14.9-2.8c1.1,0,2.2,0.1,3.1,0.1l-1.4-5.5v-14l0.1-0.1l4.8-4.8
			h10.8v-3.3H92.3z M119.8,137.1l1.1-1.2v10.1l-0.4-0.6c-2.1-3-4.4-5.7-6.8-7.9l-0.4-0.4H119.8z M66.7,193
			c-13.2-4.9-21.1-15.3-21.1-27.8c0-12.9,8.2-24,22-29.6l1-0.4l-0.7,0.8c-7.5,8.3-8.3,21.6-8.3,30.9c0,11.6,2.5,20.3,7.4,25.8
			l0.6,0.7L66.7,193z M121.8,171.9v15.8l0.4,1.6l-0.3,0c-4.3,0.2-8.5,1.3-12.5,2.4l-0.7,0.2l0.4-0.6c0.3-0.4,0.6-0.9,0.9-1.3
			l0.5-0.8v-17.2l-3.1-3.7h17.9L121.8,171.9z M57.6,146.9c-5.1,5.1-7.9,11.4-7.9,18.2c0,6.5,2.5,12.3,7.2,16.9
			c-0.4-1.8-0.8-3.7-1.1-5.9c-1.8-3.4-2.7-7.1-2.7-11c0-4.3,1.1-8.4,3.2-12.2C56.7,150.6,57.2,148.6,57.6,146.9"/>
		<path class="st0" d="M25.9,91.8l9.7,9.7l-9.7,9.7l-9.7-9.7L25.9,91.8z M40.3,101.5L25.9,87.1l-14.3,14.3v0l14.3,14.3l0,0
			L40.3,101.5z"/>
		<rect x="23.1" y="98.6" transform="matrix(0.7071 -0.7071 0.7071 0.7071 -64.16 48.0463)" class="st0" width="5.7" height="5.7"/>
		<path class="st0" d="M682.7,91.8l9.7,9.7l-9.7,9.7l-9.7-9.7L682.7,91.8z M697.1,101.5l-14.3-14.3l-14.3,14.3h0l0,0l14.3,14.3v0
			L697.1,101.5z"/>
		
			<rect x="679.9" y="98.6" transform="matrix(0.7071 -0.7071 0.7071 0.7071 128.2187 512.4888)" class="st0" width="5.7" height="5.7"/>
	</g>
	<text transform="matrix(1 0 0 1 146.7036 258.1845)" class="st0 st1 st2">BRASSERIE &amp; BAR</text>
</g>
</svg>
