<?xml version="1.0" encoding="utf-8"?>
<!-- Generator: Adobe Illustrator 24.0.3, SVG Export Plug-In . SVG Version: 6.00 Build 0)  -->
<svg version="1.1" id="Layer_1" xmlns="http://www.w3.org/2000/svg" xmlns:xlink="http://www.w3.org/1999/xlink" x="0px" y="0px"
	 viewBox="0 0 283.46 141.73" style="enable-background:new 0 0 283.46 141.73;" xml:space="preserve">
<style type="text/css">
	.st0{fill-rule:evenodd;clip-rule:evenodd;fill:#FFFFFF;}
	.st1{fill:#FFFFFF;}
</style>
<g>
	<path class="st0" d="M246.26,77.63l1.33,1.33l-1.33,1.33l-1.33-1.33L246.26,77.63z M246.26,76.04l2.92,2.92l-2.92,2.92l-2.92-2.92
		L246.26,76.04z M246.26,74.37l4.59,4.59l-4.59,4.59l-4.59-4.59L246.26,74.37z M39.93,77.63l1.33,1.33l-1.33,1.33l-1.33-1.33
		L39.93,77.63z M39.93,76.04l2.92,2.92l-2.92,2.92l-2.92-2.92L39.93,76.04z M39.93,74.37l4.59,4.59l-4.59,4.59l-4.59-4.59
		L39.93,74.37z M209.42,58.04l13.84,17.01h1.48l-13.85-17.01H209.42z M200.07,56.97h5.56l0.31,0.39V72.5l-2.86,3.6h-3.01v1.14h13.02
		v-1.14h-3.11l-2.86-3.65V58.69l15.2,18.54l4.76,0v-16.8l2.77-3.47h2.91v-1.14h-12.33v1.14h2.8l2.69,3.52v12.46l-13.94-17.13h-11.9
		V56.97z M207.26,56.97h4.14l14.52,17.86v1.27h-3.08L207.26,56.97z M224.75,56.97h3.6l-1.83,2.34L224.75,56.97z M206.5,73.62
		l1.99,2.47h-3.91L206.5,73.62z M155.78,75.05h1.17V58.04h-1.17V75.05z M148.63,56.97h3.3l1.58,1.59l-0.02,16.01l-1.47,1.52h-3.4
		v1.14h15.46v-1.14h-3.4l-1.47-1.52V58.56l1.57-1.59h3.3v-1.14h-15.46V56.97z M153.62,56.97h5.47l-1.05,1.08v17.01l0.98,1.04h-5.29
		l0.9-1.04V58.04L153.62,56.97z M63.77,75.05h1.17V58.04h-1.17V75.05z M56.63,56.97h3.3l1.58,1.59L61.5,74.57l-1.47,1.52h-3.4v1.14
		h15.46v-1.14h-3.4l-1.47-1.52V58.56l1.57-1.59h3.3v-1.14H56.63V56.97z M61.62,56.97h5.47l-1.05,1.08v17.01l0.98,1.04h-5.29
		l0.9-1.04V58.04L61.62,56.97z M138.66,72.33c1.83-1.32,2.21-3.89,2.21-5.97c0-1.44-0.32-4.03-2.4-5.65
		c0.16,0.36,0.27,1.13,0.34,1.57c1.36,3.54,0.75,6.12-0.03,8.47C138.78,71.39,138.73,71.79,138.66,72.33z M122.12,74.98h1.07V58.04
		h-1.07V74.98z M114.96,56.97h3.3l1.52,1.59v16.1l-1.42,1.43h-3.4v1.14h16.39c5.76,0,11.9-2.63,11.9-10.67
		c0-7.79-6.24-10.73-12.93-10.73h-15.36V56.97z M119.83,56.97h5.6l-1.04,1.11v17.06l0.94,0.95h-5.3l0.9-0.95V58.11L119.83,56.97z
		 M135.81,57.85c1.25,0.13,3.61,1.73,4.37,2.77c1.19,1.62,1.89,3.31,1.89,5.35v1.17c0,4.35-2.5,6.77-5.95,8.26
		c1.67-2.51,1.74-5.91,1.74-8.81C137.87,63.43,137.52,60.41,135.81,57.85z M131.41,76.09H127l-1.45-1.49V58.6l1.48-1.63h3.7
		c5.47,0,5.97,5.1,5.97,9.53c0,2.4,0.08,4.7-0.85,6.95C134.96,75.58,133.53,76.09,131.41,76.09z M86.53,58.04l13.84,17.01h1.48
		L88,58.04H86.53z M77.18,56.97h5.56l0.31,0.39V72.5l-2.86,3.6h-3.01v1.14H90.2v-1.14h-3.11l-2.86-3.65V58.69l15.2,18.54l4.76,0
		v-16.8l2.77-3.47h2.91v-1.14H97.54v1.14h2.8l2.69,3.52v12.46L89.08,55.83h-11.9V56.97z M84.37,56.97h4.14l14.52,17.86v1.27h-3.08
		L84.37,56.97z M101.86,56.97h3.6l-1.83,2.34L101.86,56.97z M83.61,73.62l1.99,2.47h-3.91L83.61,73.62z M184.02,55.83h-2.54
		l-9.27,16.31c-0.91,1.38-1.88,2.88-3.13,3.74c-0.43,0.3-1.04,0.21-1.67,0.21v1.14h9.13l-0.02-1.14h-2.07l-1.34-3.1l1.31-2.21h10.65
		l1.87,4.34l-0.65,0.97h-3.59v1.14h14.1v-1.14h-2.34l-1.78-1.27L184.02,55.83z M189.31,75.26l1.23,0.02l-7.87-17.23L182,59.31
		L189.31,75.26z M182.31,56.88h0.89l8.52,18.67l0.74,0.54h-4.68l0.55-0.8l-7.1-15.48l-0.63,0L182.31,56.88z M179.79,60.98h0.76
		l4.05,8.8h-9.72L179.79,60.98z M172.31,74.32l0.81,1.77h-2.34L172.31,74.32z M217.69,90.02l13.94,17.01h1.48l-13.95-17.01H217.69z
		 M208.54,89.08h5.49l0.31,0.25v15.14l-2.8,3.6h-3.01v1.14h12.82v-1.14h-3.11l-2.72-3.6V90.66l15.17,18.54l4.76,0v-16.8l2.77-3.33
		h2.91V87.9H228.8v1.17h2.8l2.69,3.39v12.46L220.24,87.9h-11.7V89.08z M215.76,89.08h3.9l14.62,17.72v1.27h-2.98L215.76,89.08z
		 M233.12,89.08h3.6l-1.83,2.2L233.12,89.08z M214.97,105.6l1.79,2.47h-3.7L214.97,105.6z M166.99,102.51
		c-0.04,0.58-0.09,1.17-0.27,1.79c1.67-0.33,2.21-4.45,2.21-5.88s-0.75-5.25-2.41-5.81c0.16,0.36,0.32,1.53,0.39,1.97
		c0.43,0.92,0.77,2.25,0.78,3.89C167.72,100.11,167.45,101.3,166.99,102.51z M150.18,106.95h1.07V90.02h-1.07V106.95z M143.02,89.08
		h3.2l1.63,1.45v16.1l-1.42,1.43h-3.4v1.14h16.39c5.76,0,11.9-3.17,11.9-10.74c0-7.57-6.24-10.57-12.93-10.57h-15.36V89.08z
		 M147.89,89.08h5.6l-1.04,0.97v17.06l0.94,0.95h-5.3l0.9-0.95V90.08L147.89,89.08z M163.95,89.98c3.92,1.09,6.18,4.53,6.18,8.49
		c0,3.95-1.45,6.82-5.82,8.7c1.67-2.51,1.74-5.66,1.74-8.7C166.06,95.43,165.66,92.55,163.95,89.98z M159.47,108.06h-4.4l-1.45-1.49
		V90.57l1.53-1.49h3.64c5.47,0,6.1,5.98,6.1,9.39c0,3.42-0.05,4.7-0.98,6.95C163.02,107.55,161.59,108.06,159.47,108.06z
		 M92.88,87.9h-2.45l-9.36,16.21c-0.91,1.38-1.88,2.88-3.12,3.74c-0.43,0.3-1.04,0.21-1.67,0.21v1.14h9.13l-0.02-1.14h-2.07
		l-1.34-3.1l1.31-2.21h10.65l1.87,4.34l-0.65,0.97h-3.59v1.14h14.1v-1.14h-2.34l-1.78-1.27L92.88,87.9z M98.18,107.23l1.26-0.01
		L91.63,90.1l-0.76,1.18L98.18,107.23z M91.17,89.08h0.98l8.44,18.45l0.74,0.54h-4.68l0.55-0.8l-7.1-15.48h-0.63L91.17,89.08z
		 M88.77,92.95h0.64l4.05,8.8h-9.7L88.77,92.95z M81.18,106.29l0.81,1.77h-2.34L81.18,106.29z M200.79,103.86v4.2h-3.4
		L200.79,103.86z M193.83,95.23v5.1l-2.24-2.65L193.83,95.23z M197.97,89.08h2.56l0.16,3.81L197.97,89.08z M181.7,89.08h5.14
		l-0.88,0.96v16.96l0.83,1.07h-5.1l0.92-1.07V90.04L181.7,89.08z M176.53,89.08h3.5l1.47,1.49v15.94l-1.31,1.55h-3.66v1.14h25.37
		v-7.97h-0.47l-5.63,6.82h-7.58l-1.07-1.43v-8.25h3.37l3.84,4.51h0.59V92.7h-0.59l-3.84,4.5h-3.37v-6.63l1.24-1.49h8.12l4.8,6.85
		h0.64l-0.3-8.03h-25.1V89.08z M183.78,106.99h1.18V90.04h-1.18V106.99z M129.94,108.06c-0.77-2.46-1.49-5.67-2.29-7.37
		c0.91,0.54,2.4,0.57,3.65,0.63l1.88,6.74H129.94z M120.94,89.08H127c1.79,0,3.43,2.11,3.43,4.04c0,2.79-2.31,4.31-4.91,4.31h-5.71
		V90.6L120.94,89.08z M130.12,89.42c1.91,0.16,5.13,1.35,5.31,3.62c0.2,2.5-3.49,3.02-4.78,3.29c0.61-1.04,0.94-1.65,0.94-3.28
		C131.6,91.16,130.91,90.67,130.12,89.42z M114.15,89.08h5.28l-0.75,1.05l0,16.88l0.77,1.05h-5.14l0.96-1.05l0-16.88L114.15,89.08z
		 M109.19,89.08h3.4l1.49,1.49l-0.02,16.01l-1.47,1.48h-3.4v1.18h15.27l0.1-1.18h-3.61l-1.14-1.39v-8.1c3.68,0,5.26-0.63,6.97,2.97
		c0.82,1.73,1.79,5.77,2.25,7.7h8.84v-1.18h-2.94c-1.12-0.02-2.41-6.39-2.66-7.81c-1.72-0.03-4.39-0.05-5.43-1.61l0.77-0.83
		c2.97-0.32,9.2-0.71,8.95-5.02c-0.23-3.87-6.41-4.89-10.09-4.89h-17.29V89.08z M65.73,100.05h5.35l-0.99,1v5.48l-3.87,0.7l0.35-0.7
		v-5.46L65.73,100.05z M69.73,89.91v2.79l-2.01-2.44C68.4,90.41,69.32,90.27,69.73,89.91z M52.71,107.58
		c-2.32-0.58-4.46-2.34-5.6-4.57c-0.64-1.25-0.88-2.22-0.88-4.04c0-1.82,0.5-3.94,2.25-6c1.09-1.29,2.72-2.52,4.59-3.27
		c-2,2.58-2.75,6.6-2.73,9.27C50.36,101.63,50.16,104.27,52.71,107.58z M71.6,107.68c-0.2-0.55-0.37-1.28-0.37-1.86v-4.28l1.47-1.49
		h3.35v-1.18H60.74v1.18h3.5l1.2,1.49v4.67c-0.54,1.5-3.17,2.65-6.2,2.73c-1.84,0.05-3.83-0.34-5.23-1.73
		c-2.05-2.04-2.55-4.41-2.55-8.24c0-3.83,1.33-10.58,8.4-10.67c2.74-0.04,4.7,0.99,6.75,2.69c1.64,1.35,2.79,3.36,3.7,5.24h0.6
		v-8.67h-0.64c-0.46,0.5-0.78,1.77-2.87,1.55c-0.57-0.04-2.89-0.97-3.75-1.18c-2.98-0.72-5.97-0.72-8.95,0.02
		c-4.82,1.19-9.71,5.31-9.65,11.03c0.06,5.72,3.57,8.96,9.01,10.3c1.89,0.47,3.52,0.55,5.01,0.53
		C63.72,109.76,66.74,107.66,71.6,107.68z M116.4,107.02h1.04l0.07-16.88h-1.08L116.4,107.02z M47.36,98.97
		c0,1.79,0.99,4.85,2.4,5.43c-0.16-0.59-0.31-1.3-0.33-1.88c-0.36-1.32-0.89-2.2-0.89-3.54c0-1.34,0.52-2.67,0.99-3.82
		c0.12-0.95,0.37-1.64,0.55-2.08C48.44,94.44,47.36,97.17,47.36,98.97z M130.65,106.99l1.16,0l-1.3-4.68
		c-0.42-0.03-0.78-0.11-1.22-0.1L130.65,106.99z M67.79,105.64l1.08-0.18v-4.34h-1.08V105.64z M132.57,91.34
		c0.13,0.38,0.22,0.74,0.22,1.23l0.36,0.41l-0.37,0.33c0.02,0.35,0.02,0.7-0.06,1.13c0.62-0.11,1.43-0.66,1.43-1.39
		C134.15,92.09,133.32,91.72,132.57,91.34z"/>
	<path class="st1" d="M184.35,44.53c-0.5,0.37-1.03,0.79-1.59,1.26c-0.55,0.48-0.87,0.71-0.95,0.71c-0.05,0-0.08-0.02-0.1-0.05
		c-0.02-0.04-0.04-0.09-0.04-0.16c0-0.12,0.29-0.43,0.87-0.92c0.58-0.49,1.54-1.23,2.88-2.22l6.97-7.82
		c0.1-0.11,0.19-0.19,0.27-0.23c0.08-0.04,0.18-0.06,0.3-0.06c0.22,0,0.41,0.03,0.55,0.09c0.14,0.06,0.21,0.13,0.21,0.23
		c0,0.06-0.01,0.12-0.04,0.17c-0.03,0.05-0.09,0.12-0.18,0.21l-8.06,9.41c-0.58,0.68-1.03,1.29-1.34,1.83
		c-0.31,0.54-0.46,0.96-0.46,1.28c0,0.19,0.04,0.33,0.1,0.42c0.07,0.08,0.18,0.13,0.34,0.13c0.36,0,0.78-0.11,1.28-0.35
		c0.5-0.23,1.11-0.6,1.82-1.1c0.46-0.32,0.92-0.69,1.4-1.09c0.47-0.4,0.73-0.6,0.79-0.6c0.06,0,0.11,0.02,0.14,0.05
		c0.03,0.04,0.05,0.09,0.06,0.16c0,0.14-0.44,0.56-1.31,1.26l-0.06,0.05c-0.86,0.69-1.68,1.23-2.46,1.62
		c-0.78,0.39-1.42,0.59-1.91,0.59c-0.36,0-0.63-0.1-0.84-0.29c-0.2-0.19-0.3-0.46-0.3-0.8c0-0.45,0.13-0.98,0.41-1.6
		C183.37,46.11,183.78,45.38,184.35,44.53 M177.29,44.53c-0.5,0.37-1.03,0.79-1.59,1.26c-0.55,0.48-0.87,0.71-0.95,0.71
		c-0.05,0-0.08-0.02-0.1-0.05c-0.02-0.04-0.04-0.09-0.04-0.16c0-0.12,0.29-0.43,0.87-0.92c0.58-0.49,1.54-1.23,2.88-2.22l6.97-7.82
		c0.1-0.11,0.19-0.19,0.27-0.23c0.08-0.04,0.18-0.06,0.3-0.06c0.22,0,0.41,0.03,0.55,0.09c0.14,0.06,0.21,0.13,0.21,0.23
		c0,0.06-0.01,0.12-0.04,0.17c-0.03,0.05-0.09,0.12-0.18,0.21l-8.06,9.41c-0.58,0.68-1.03,1.29-1.34,1.83
		c-0.31,0.54-0.46,0.96-0.46,1.28c0,0.19,0.04,0.33,0.1,0.42c0.07,0.08,0.18,0.13,0.34,0.13c0.36,0,0.78-0.11,1.28-0.35
		c0.5-0.23,1.11-0.6,1.82-1.1c0.46-0.32,0.92-0.69,1.4-1.09c0.47-0.4,0.73-0.6,0.79-0.6c0.06,0,0.11,0.02,0.14,0.05
		c0.03,0.04,0.05,0.09,0.06,0.16c0,0.14-0.44,0.56-1.31,1.26l-0.06,0.05c-0.86,0.69-1.68,1.23-2.46,1.62
		c-0.78,0.39-1.41,0.59-1.91,0.59c-0.36,0-0.63-0.1-0.84-0.29c-0.2-0.19-0.3-0.46-0.3-0.8c0-0.45,0.13-0.98,0.41-1.6
		C176.31,46.11,176.72,45.38,177.29,44.53z M169.52,46.56c1.05-0.22,1.93-0.57,2.64-1.05c0.71-0.48,1.07-0.93,1.07-1.35
		c0-0.15-0.03-0.25-0.08-0.32c-0.05-0.06-0.15-0.09-0.28-0.09c-0.39,0-0.86,0.24-1.43,0.72C170.87,44.94,170.24,45.64,169.52,46.56z
		 M169.18,47.25c-0.07,0.15-0.12,0.29-0.16,0.43c-0.04,0.14-0.05,0.26-0.05,0.37c0,0.25,0.08,0.44,0.24,0.58
		c0.16,0.14,0.38,0.21,0.66,0.21c0.49,0,1.09-0.18,1.79-0.54c0.71-0.36,1.46-0.87,2.27-1.53c0.21-0.18,0.46-0.4,0.76-0.68
		c0.3-0.28,0.49-0.41,0.55-0.41c0.06,0,0.11,0.02,0.14,0.05c0.03,0.04,0.05,0.09,0.06,0.15c0,0.09-0.1,0.23-0.31,0.45
		c-0.21,0.21-0.57,0.54-1.09,0.98c-0.77,0.66-1.55,1.17-2.32,1.54c-0.78,0.37-1.45,0.55-2.03,0.55c-0.55,0-1-0.17-1.33-0.51
		c-0.33-0.34-0.5-0.8-0.5-1.4c0-0.53,0.17-1.05,0.5-1.57c0.33-0.52,0.82-1.02,1.45-1.49c0.56-0.4,1.08-0.71,1.57-0.91
		c0.49-0.2,0.94-0.3,1.36-0.3c0.37,0,0.63,0.06,0.79,0.18c0.15,0.12,0.23,0.33,0.23,0.62c0,0.6-0.44,1.22-1.32,1.86
		C171.56,46.53,170.48,46.99,169.18,47.25z M158.39,49.32c-0.07,0.02-0.16,0.04-0.27,0.05c-0.11,0.01-0.29,0.02-0.55,0.02
		c-0.26,0-0.44-0.01-0.53-0.04c-0.09-0.02-0.13-0.06-0.13-0.13c0-0.14,0.34-0.52,1.02-1.15c0.46-0.43,0.83-0.78,1.11-1.07l0.28-0.25
		c1.57-1.52,2.35-2.39,2.35-2.61c-0.01-0.07-0.02-0.12-0.05-0.15c-0.02-0.03-0.05-0.05-0.08-0.05c-0.22,0-0.5,0.1-0.83,0.31
		c-0.34,0.21-0.81,0.58-1.42,1.11c-0.15,0.13-0.34,0.3-0.56,0.5c-0.29,0.27-0.48,0.41-0.57,0.41c-0.06,0-0.1-0.02-0.15-0.06
		c-0.04-0.04-0.06-0.09-0.06-0.14c0-0.11,0.27-0.41,0.82-0.9c0.12-0.1,0.21-0.18,0.27-0.25c0.65-0.57,1.22-1,1.71-1.28
		c0.49-0.28,0.9-0.42,1.24-0.42c0.25,0,0.44,0.08,0.57,0.25c0.14,0.16,0.2,0.41,0.2,0.73c0,0.06,0,0.12-0.01,0.2
		c-0.01,0.08-0.02,0.19-0.03,0.34c0.76-0.54,1.38-0.92,1.86-1.15c0.47-0.23,0.88-0.34,1.21-0.34c0.25,0,0.44,0.08,0.59,0.22
		c0.14,0.15,0.21,0.35,0.21,0.6c0,0.28-0.1,0.57-0.29,0.86c-0.19,0.29-0.59,0.73-1.22,1.32c-0.16,0.15-0.4,0.37-0.7,0.65
		c-0.94,0.88-1.42,1.42-1.42,1.6c0,0.08,0.04,0.15,0.1,0.21c0.07,0.05,0.16,0.08,0.28,0.08c0.34,0,0.84-0.16,1.49-0.49
		c0.65-0.33,1.35-0.78,2.1-1.34c0.32-0.23,0.65-0.5,1.01-0.81c0.36-0.31,0.57-0.46,0.64-0.46c0.06,0,0.1,0.02,0.13,0.05
		c0.03,0.04,0.05,0.09,0.06,0.16c0,0.14-0.43,0.56-1.29,1.25l-0.06,0.05c-0.85,0.67-1.67,1.21-2.46,1.62
		c-0.79,0.4-1.39,0.6-1.81,0.6c-0.35,0-0.63-0.1-0.85-0.29c-0.22-0.19-0.32-0.45-0.32-0.76c0-0.37,0.14-0.78,0.42-1.22
		c0.28-0.44,0.69-0.89,1.22-1.34c0.17-0.15,0.4-0.34,0.7-0.59c0.72-0.6,1.08-0.96,1.08-1.07c0-0.06-0.03-0.1-0.08-0.14
		c-0.05-0.04-0.12-0.06-0.19-0.06c-0.44,0-1.3,0.5-2.58,1.5C161.28,46.45,159.89,47.74,158.39,49.32z M155.46,46.35
		c-1,0.98-1.91,1.73-2.74,2.24c-0.83,0.52-1.53,0.77-2.11,0.77c-0.4,0-0.72-0.11-0.96-0.35c-0.23-0.23-0.35-0.54-0.35-0.93
		c0-0.54,0.22-1.12,0.65-1.72c0.44-0.61,1.06-1.21,1.87-1.78c0.6-0.44,1.22-0.78,1.85-1.02c0.63-0.25,1.19-0.37,1.66-0.37
		c0.39,0,0.7,0.1,0.94,0.31c0.23,0.21,0.35,0.48,0.35,0.81c0,0.23-0.07,0.48-0.2,0.76c-0.14,0.28-0.34,0.58-0.61,0.91
		c0.08,0.18,0.2,0.31,0.35,0.4c0.15,0.08,0.33,0.13,0.53,0.13c0.3,0,0.64-0.13,1.02-0.4c0.39-0.27,0.63-0.4,0.72-0.4
		c0.05,0,0.08,0.02,0.1,0.05c0.02,0.03,0.04,0.08,0.04,0.14c0,0.15-0.22,0.38-0.66,0.67c-0.44,0.29-0.85,0.43-1.22,0.43
		c-0.25,0-0.47-0.05-0.67-0.15C155.83,46.72,155.64,46.56,155.46,46.35z M150.34,48.41c0,0.14,0.04,0.24,0.1,0.3
		c0.07,0.06,0.18,0.09,0.32,0.09c0.34,0,0.79-0.16,1.35-0.48c0.55-0.32,1.2-0.78,1.94-1.41c0.63-0.54,1.13-1.05,1.48-1.51
		c0.36-0.47,0.54-0.84,0.54-1.12c0-0.15-0.04-0.26-0.13-0.35c-0.09-0.08-0.21-0.13-0.36-0.13c-0.26,0-0.62,0.13-1.08,0.38
		c-0.46,0.25-0.94,0.59-1.44,1.03c-0.83,0.7-1.49,1.35-1.98,1.93C150.59,47.72,150.34,48.15,150.34,48.41z M146.42,45.03
		c-0.43,0.25-0.87,0.54-1.3,0.88c-0.44,0.34-0.69,0.5-0.76,0.5c-0.05,0-0.09-0.02-0.12-0.05c-0.03-0.03-0.04-0.07-0.04-0.11
		c0-0.12,0.14-0.29,0.42-0.51l0.01-0.01l0.72-0.55c0.88-0.67,1.59-1.17,2.15-1.5c0.55-0.33,0.97-0.5,1.23-0.5
		c0.35,0,0.63,0.02,0.84,0.07c0.21,0.04,0.32,0.11,0.32,0.18c0,0.06-0.32,0.35-0.95,0.88c-0.63,0.53-1.22,1.06-1.76,1.6
		c-0.69,0.67-1.2,1.23-1.55,1.67c-0.34,0.44-0.52,0.76-0.52,0.94c0,0.1,0.03,0.18,0.09,0.23c0.06,0.06,0.15,0.08,0.26,0.08
		c0.32,0,0.81-0.16,1.45-0.49c0.64-0.33,1.32-0.77,2.05-1.33c0.29-0.21,0.6-0.46,0.95-0.75c0.34-0.29,0.54-0.44,0.59-0.44
		c0.05,0,0.09,0.02,0.12,0.06c0.04,0.04,0.05,0.08,0.05,0.13c0,0.15-0.36,0.52-1.1,1.11l-0.25,0.21c-0.79,0.64-1.56,1.15-2.3,1.52
		c-0.75,0.37-1.36,0.55-1.83,0.55c-0.34,0-0.62-0.09-0.83-0.28c-0.21-0.19-0.32-0.43-0.32-0.72c0-0.4,0.2-0.87,0.59-1.43
		C145.02,46.42,145.62,45.77,146.42,45.03z M151.11,40.13c0-0.22,0.08-0.4,0.23-0.53c0.15-0.13,0.35-0.2,0.6-0.2
		c0.25,0,0.46,0.07,0.61,0.2c0.15,0.13,0.23,0.31,0.23,0.53c0,0.23-0.08,0.42-0.23,0.55c-0.15,0.14-0.36,0.21-0.6,0.21
		c-0.26,0-0.46-0.07-0.61-0.21C151.18,40.55,151.11,40.36,151.11,40.13z M139.95,44.54c-0.48,0.36-1,0.78-1.56,1.26
		c-0.56,0.48-0.89,0.71-0.98,0.71c-0.04,0-0.07-0.02-0.1-0.06c-0.03-0.04-0.04-0.09-0.04-0.15c0-0.18,0.94-0.99,2.83-2.43l0.92-0.71
		l1.02-1.13H140l0.38-0.4h2.07l2.16-2.71c0.08-0.1,0.17-0.17,0.27-0.22c0.1-0.05,0.21-0.07,0.35-0.07c0.26,0,0.46,0.04,0.61,0.1
		c0.15,0.07,0.23,0.15,0.23,0.26c0,0.06-0.01,0.1-0.02,0.15c-0.02,0.05-0.05,0.1-0.09,0.16l-2,2.32h2.36l-0.38,0.4h-2.28l-2.72,3.12
		c-0.63,0.73-1.11,1.34-1.41,1.85c-0.3,0.5-0.45,0.92-0.45,1.26c0,0.18,0.03,0.31,0.1,0.4c0.06,0.08,0.17,0.13,0.31,0.13
		c0.38,0,0.9-0.16,1.54-0.49c0.64-0.32,1.36-0.79,2.15-1.39c0.3-0.22,0.61-0.48,0.94-0.78c0.33-0.3,0.54-0.45,0.61-0.45
		c0.06,0,0.1,0.02,0.13,0.06c0.04,0.04,0.05,0.09,0.05,0.15c0,0.1-0.08,0.22-0.25,0.39c-0.16,0.17-0.55,0.5-1.19,0.99
		c-0.86,0.69-1.66,1.22-2.4,1.59c-0.75,0.37-1.38,0.55-1.89,0.55c-0.36,0-0.64-0.1-0.84-0.29c-0.21-0.19-0.31-0.46-0.31-0.8
		c0-0.51,0.15-1.07,0.45-1.67C138.81,46.04,139.29,45.34,139.95,44.54z M133.64,45.03c-0.43,0.25-0.87,0.54-1.3,0.88
		c-0.44,0.34-0.69,0.5-0.76,0.5c-0.05,0-0.09-0.02-0.12-0.05c-0.03-0.03-0.04-0.07-0.04-0.11c0-0.12,0.14-0.29,0.42-0.51l0.01-0.01
		l0.72-0.55c0.88-0.67,1.59-1.17,2.15-1.5c0.55-0.33,0.97-0.5,1.23-0.5c0.35,0,0.63,0.02,0.84,0.07c0.21,0.04,0.32,0.11,0.32,0.18
		c0,0.06-0.32,0.35-0.95,0.88c-0.63,0.53-1.22,1.06-1.76,1.6c-0.69,0.67-1.2,1.23-1.55,1.67c-0.34,0.44-0.52,0.76-0.52,0.94
		c0,0.1,0.03,0.18,0.09,0.23c0.06,0.06,0.15,0.08,0.26,0.08c0.33,0,0.81-0.16,1.45-0.49c0.64-0.33,1.32-0.77,2.05-1.33
		c0.29-0.21,0.6-0.46,0.95-0.75c0.34-0.29,0.54-0.44,0.59-0.44c0.05,0,0.09,0.02,0.12,0.06c0.04,0.04,0.05,0.08,0.05,0.13
		c0,0.15-0.36,0.52-1.1,1.11l-0.25,0.21c-0.79,0.64-1.56,1.15-2.3,1.52c-0.75,0.37-1.36,0.55-1.83,0.55c-0.34,0-0.62-0.09-0.83-0.28
		c-0.21-0.19-0.32-0.43-0.32-0.72c0-0.4,0.2-0.87,0.59-1.43C132.25,46.42,132.85,45.77,133.64,45.03z M138.33,40.13
		c0-0.22,0.08-0.4,0.23-0.53c0.15-0.13,0.35-0.2,0.6-0.2c0.25,0,0.46,0.07,0.61,0.2c0.15,0.13,0.23,0.31,0.23,0.53
		c0,0.23-0.08,0.42-0.23,0.55c-0.15,0.14-0.36,0.21-0.6,0.21c-0.26,0-0.46-0.07-0.61-0.21C138.41,40.55,138.33,40.36,138.33,40.13z
		 M125.32,48.06c-0.46,0.46-0.89,0.8-1.29,1.03c-0.4,0.23-0.75,0.34-1.06,0.34c-0.33,0-0.58-0.12-0.76-0.36
		c-0.18-0.24-0.27-0.58-0.27-1.03c0-0.52,0.12-1.01,0.37-1.49c0.25-0.47,0.63-0.93,1.15-1.38c0.67-0.59,1.4-1.07,2.16-1.42
		c0.77-0.35,1.43-0.53,2-0.53c0.34,0,0.59,0.06,0.74,0.18c0.15,0.12,0.25,0.32,0.29,0.62l7.07-8.71c0.08-0.1,0.16-0.17,0.25-0.21
		c0.08-0.04,0.19-0.06,0.33-0.06c0.25,0,0.45,0.03,0.61,0.09c0.16,0.06,0.24,0.13,0.24,0.23c0,0.06-0.01,0.12-0.04,0.17
		c-0.02,0.05-0.08,0.12-0.17,0.22l-9.76,11.57c-0.24,0.27-0.42,0.51-0.54,0.71c-0.11,0.21-0.17,0.37-0.17,0.5
		c0,0.1,0.02,0.17,0.07,0.21c0.04,0.04,0.12,0.06,0.24,0.06c0.34,0,0.84-0.17,1.51-0.5c0.67-0.33,1.37-0.77,2.11-1.34
		c0.31-0.23,0.64-0.5,1-0.81c0.36-0.31,0.57-0.46,0.64-0.46c0.06,0,0.1,0.02,0.13,0.06c0.04,0.04,0.05,0.09,0.05,0.15
		c0,0.14-0.43,0.56-1.3,1.26l-0.06,0.05c-0.86,0.7-1.69,1.24-2.48,1.64c-0.79,0.4-1.42,0.59-1.91,0.59c-0.36,0-0.64-0.1-0.86-0.3
		c-0.21-0.2-0.32-0.48-0.32-0.82c0-0.07,0-0.12,0-0.16C125.3,48.13,125.31,48.09,125.32,48.06z M125.22,47.57l1.95-2.07
		c0.06-0.06,0.13-0.14,0.25-0.25c0.54-0.58,0.8-0.97,0.8-1.16c0-0.08-0.03-0.14-0.08-0.18c-0.06-0.05-0.13-0.07-0.22-0.07
		c-0.27,0-0.61,0.11-1.04,0.33c-0.43,0.22-0.87,0.52-1.32,0.9c-0.74,0.61-1.34,1.25-1.82,1.91c-0.48,0.67-0.72,1.15-0.72,1.46
		c0,0.11,0.03,0.2,0.1,0.26c0.06,0.07,0.15,0.1,0.25,0.1c0.21,0,0.48-0.11,0.82-0.33C124.52,48.27,124.87,47.96,125.22,47.57z
		 M116.35,48.06c-0.47,0.46-0.9,0.8-1.29,1.03c-0.4,0.23-0.75,0.34-1.06,0.34c-0.32,0-0.58-0.12-0.76-0.36
		c-0.18-0.24-0.27-0.58-0.27-1.02c0-0.52,0.12-1.01,0.37-1.49c0.25-0.47,0.63-0.93,1.15-1.38c0.67-0.59,1.38-1.07,2.15-1.42
		c0.76-0.35,1.45-0.53,2.03-0.53c0.33,0,0.58,0.06,0.73,0.19c0.15,0.12,0.25,0.33,0.27,0.62c0.11-0.13,0.24-0.25,0.38-0.37
		c0.14-0.12,0.3-0.23,0.48-0.34c0.06,0,0.15,0,0.27-0.01c0.11-0.01,0.2-0.01,0.25-0.01c0.27,0,0.47,0.02,0.58,0.06
		c0.11,0.04,0.17,0.11,0.17,0.21c0,0.1-0.18,0.3-0.54,0.62c-0.19,0.17-0.35,0.31-0.46,0.4c-1.04,0.98-1.85,1.82-2.44,2.52
		c-0.59,0.69-0.88,1.16-0.88,1.41c0,0.1,0.02,0.17,0.06,0.21c0.04,0.04,0.12,0.06,0.24,0.06c0.34,0,0.84-0.16,1.51-0.49
		c0.67-0.33,1.37-0.78,2.11-1.34c0.31-0.23,0.64-0.5,1-0.81c0.36-0.31,0.57-0.46,0.64-0.46c0.06,0,0.1,0.02,0.13,0.06
		c0.04,0.04,0.05,0.09,0.05,0.15c0,0.14-0.43,0.56-1.3,1.26l-0.06,0.05c-0.86,0.69-1.68,1.23-2.47,1.62
		c-0.79,0.39-1.43,0.59-1.92,0.59c-0.36,0-0.64-0.1-0.86-0.3c-0.21-0.2-0.32-0.46-0.32-0.8c0-0.07,0-0.12,0-0.15
		C116.34,48.13,116.35,48.09,116.35,48.06z M116.26,47.57l2.68-2.84c0.1-0.11,0.18-0.22,0.24-0.33c0.06-0.11,0.09-0.21,0.09-0.31
		c0-0.08-0.03-0.14-0.08-0.18c-0.05-0.05-0.13-0.07-0.22-0.07c-0.27,0-0.61,0.11-1.04,0.33c-0.43,0.22-0.87,0.52-1.32,0.9
		c-0.73,0.61-1.34,1.25-1.82,1.91c-0.48,0.67-0.72,1.15-0.72,1.46c0,0.11,0.03,0.2,0.1,0.26c0.07,0.07,0.15,0.1,0.25,0.1
		c0.21,0,0.48-0.11,0.82-0.33C115.56,48.27,115.9,47.96,116.26,47.57z M111.47,43.69c0.02-0.02,0.05-0.04,0.12-0.06
		c0.06-0.02,0.12-0.03,0.19-0.04c0.21,0,0.4,0.02,0.55,0.08c0.15,0.05,0.23,0.11,0.23,0.17c0,0.03-0.07,0.12-0.21,0.27
		c-0.14,0.15-0.26,0.29-0.36,0.41c-0.29,0.37-0.5,0.73-0.65,1.08c-0.15,0.35-0.23,0.66-0.23,0.93c0,0.2,0.05,0.36,0.16,0.49
		c0.11,0.12,0.25,0.19,0.43,0.19c0.19,0,0.4-0.06,0.63-0.17c0.23-0.12,0.5-0.31,0.82-0.59c0.14-0.12,0.32-0.27,0.52-0.46
		c0.25-0.23,0.41-0.35,0.48-0.35c0.06,0,0.11,0.02,0.14,0.06c0.03,0.03,0.05,0.09,0.06,0.15c0,0.07-0.04,0.16-0.13,0.26
		c-0.09,0.11-0.27,0.27-0.55,0.51c-0.55,0.46-1,0.77-1.34,0.94c-0.33,0.17-0.65,0.25-0.94,0.25c-0.4,0-0.71-0.12-0.94-0.36
		c-0.22-0.25-0.33-0.58-0.33-1.02c0-0.15,0.02-0.33,0.06-0.54c0.04-0.2,0.1-0.42,0.18-0.65c-0.7,0.64-1.37,1.31-1.99,1.99
		c-0.62,0.69-1.2,1.38-1.72,2.1c-0.2,0.03-0.39,0.06-0.56,0.07c-0.17,0.02-0.33,0.02-0.46,0.02c-0.15,0-0.26-0.02-0.35-0.05
		c-0.08-0.03-0.13-0.07-0.13-0.11c0-0.1,0.23-0.4,0.67-0.88c0.27-0.31,0.49-0.55,0.66-0.73c0.87-1.01,1.45-1.75,1.75-2.2
		c0.3-0.45,0.45-0.79,0.45-1.02c0-0.07-0.01-0.12-0.03-0.15c-0.02-0.03-0.05-0.04-0.09-0.04c-0.2,0-0.46,0.09-0.79,0.27
		c-0.32,0.18-0.74,0.47-1.26,0.87c-0.15,0.12-0.34,0.29-0.57,0.5c-0.28,0.26-0.46,0.38-0.55,0.38c-0.06,0-0.11-0.02-0.15-0.06
		c-0.04-0.04-0.06-0.1-0.06-0.16c0-0.08,0.08-0.2,0.24-0.36c0.16-0.17,0.44-0.42,0.85-0.77c0.59-0.5,1.17-0.91,1.72-1.21
		c0.55-0.3,0.97-0.45,1.25-0.45c0.22,0,0.39,0.07,0.51,0.2c0.12,0.14,0.19,0.32,0.19,0.55c0,0.17-0.03,0.37-0.1,0.59
		c-0.06,0.22-0.16,0.47-0.29,0.75L111.47,43.69z M102.98,35.05c0,0.21-0.11,0.55-0.32,1.03c-0.22,0.48-0.49,0.94-0.83,1.4
		c-0.73,0.99-1.53,1.75-2.43,2.27c-0.89,0.52-1.82,0.78-2.78,0.78c-0.91,0-1.64-0.27-2.2-0.81c-0.55-0.54-0.82-1.26-0.82-2.16
		c0-1.65,0.8-3,2.39-4.04c1.59-1.05,3.69-1.57,6.28-1.57c1.19,0,2.99,0.18,5.4,0.55l0.15,0.02c0.28,0.05,0.67,0.11,1.18,0.19
		c1.99,0.31,3.24,0.46,3.77,0.46c0.57,0,1.17-0.09,1.8-0.26c0.12-0.03,0.21-0.05,0.25-0.05c0.07,0,0.13,0.02,0.18,0.06
		c0.05,0.04,0.08,0.08,0.08,0.13c0,0.23-0.28,0.45-0.84,0.67c-0.55,0.22-1.2,0.33-1.94,0.33c-0.33,0-0.66-0.02-1-0.06
		c-0.34-0.04-0.69-0.1-1.02-0.17c-0.19-0.04-0.45-0.11-0.8-0.19c-3.04-0.75-5.31-1.12-6.79-1.12c-1.15,0-2.18,0.14-3.11,0.41
		c-0.93,0.27-1.75,0.69-2.47,1.25c-0.91,0.7-1.59,1.36-2.04,1.97c-0.45,0.62-0.68,1.21-0.68,1.76c0,0.59,0.22,1.07,0.66,1.45
		c0.44,0.38,1.01,0.57,1.7,0.57c0.9,0,1.78-0.29,2.63-0.86c0.85-0.57,1.64-1.41,2.36-2.52c0.19-0.29,0.38-0.66,0.57-1.09
		c0.19-0.43,0.34-0.65,0.45-0.65c0.07,0,0.12,0.02,0.16,0.07C102.96,34.91,102.98,34.97,102.98,35.05z M92.54,48.91
		c1.37,0,2.86-0.71,4.46-2.11c1.6-1.41,3.57-3.77,5.91-7.06c1.35-1.92,2.46-3.38,3.34-4.39c0.88-1.01,1.48-1.51,1.8-1.51
		c0.06,0,0.11,0.02,0.14,0.04c0.03,0.03,0.05,0.07,0.05,0.12c0,0.02-0.29,0.43-0.87,1.21c-0.58,0.78-1.15,1.63-1.7,2.53
		c-0.15,0.26-0.39,0.65-0.71,1.17c-2.34,3.9-4.32,6.56-5.95,7.98c-1,0.87-2.02,1.52-3.07,1.97c-1.04,0.44-2.08,0.67-3.12,0.67
		c-1.12,0-2.02-0.25-2.68-0.76c-0.67-0.5-1-1.17-1-2c0-0.47,0.13-0.86,0.4-1.16c0.27-0.3,0.61-0.45,1.03-0.45
		c0.31,0,0.56,0.09,0.75,0.29c0.19,0.19,0.29,0.43,0.29,0.74c0,0.29-0.1,0.51-0.29,0.68c-0.19,0.17-0.44,0.25-0.76,0.25
		c-0.06,0-0.15-0.01-0.27-0.04c-0.12-0.03-0.21-0.04-0.28-0.04c-0.06,0.01-0.09,0.03-0.11,0.06c-0.02,0.03-0.03,0.09-0.04,0.16
		c0,0.43,0.26,0.82,0.78,1.16C91.16,48.75,91.79,48.91,92.54,48.91z"/>
</g>
</svg>
