<svg id="Traditionell" xmlns="http://www.w3.org/2000/svg" viewBox="0 0 500 187.33"><defs><style>.cls-1,.cls-2{fill:none;stroke:#fff;stroke-miterlimit:10;}.cls-1{stroke-width:0.5px;}</style></defs><title>white0</title><path class="cls-1" d="M402,135.84l28.09,34.28h2.72l-28.09-34.28Zm22.24-4.36v2.1h5.88l.05.06,5.33,7v25.93l-.28-.33-28.27-34.74H383v2.1h11.32l.55.62v30.89l0,0L389,172.51h-6v2.1h26.15v-2.1h-6.19l0-.06L397,165.06V136.53l.27.33,31,37.75h9.39v-33.9l5.6-7.13h5.89v-2.1Zm-24,41h-8.6l4.27-5.39Zm35.25,0h-6.3l-.05-.06-31.9-38.87H406l0,.06,29.5,36.26Zm1.09-33.92-3.83-5h7.77Z"/><path class="cls-1" d="M332.26,170.09h2.1V135.9h-2.1Zm36-11.59-11.5,14h-15.3L339,169.37v-17h7.12l.05.06,7.78,9.21h.9V141.24H354l-7.8,9H339V136.72l0,0,2.36-3.1H358.1l0,.07,10.09,13.94h.8l-.65-16.11H317.56v2.1h6.91l0,0,3.08,3.08v32.67l-.05.05-3.08,3.08h-6.91v2.1H369V158.5Zm-20.13-7.24,4.67-5.41V157L348,151.36Zm18.27-17.68.33,8.31-6-8.31Zm-38.93,38.93,2.26-2.26V135.83l-2.26-2.25h11.33L336.92,136v34.07l1.86,2.43Zm39.49,0h-7.48l7.48-9.12Z"/><path class="cls-1" d="M229.24,141.57c0,.2,0,.44-.54.7h0a13,13,0,0,1-.23,2.24c.32-.13.63-.27.91-.41,1.87-1,1.87-1.73,1.87-2.27,0-1.22-1.07-2.41-3-3.36a14,14,0,0,1,.4,2.23c.54.31.65.64.65.86m-34,28.52h2.1V135.9h-2.1Zm26.27-9.68,0,.12c.17.54.42,1.31.54,1.73l2.19,7.83h2.2c-.75-2.23-1.88-5.94-2.73-9.42-.53,0-1.64-.18-2.23-.26m11.25,12.1-1.3-1.26a108.44,108.44,0,0,1-4.2-14.82h-.62c-4.75,0-8-.87-9.86-2.67l0,0v-1.15l1-1.13h.05c12.62-1.05,18.25-4,18.25-9.6,0-6.49-7.9-10.36-21.14-10.36H180.53v2.1h6.91l0,0,3.08,3.08v32.67l0,.05-3.08,3.08h-6.91v2.1h31v-2.1h-7.18l0-.07L202,169.37V152.94h8.14c3.82,1,5.94,3.91,7.82,10.62L221,174.61h17.74v-2.1Zm-42.33,0,2.25-2.26V135.84l-2.25-2.26h11.32L199.88,136v34.07l1.85,2.43ZM223,134.18c7.08,1.16,11,3.88,11,7.66,0,2.08-1,5-9.88,6.68l-.4.07.25-.31a9.93,9.93,0,0,0,2.06-6.16,10.57,10.57,0,0,0-3.14-7.68l-.34-.34Zm-20.82,16.66H202V136.72l0,0,2.36-3.1h12.91c4.24,1.42,6.58,4.45,6.58,8.53,0,4.72-3.29,7.73-9.5,8.71Zm20.48,21.67L220,163a33.84,33.84,0,0,0-2-5.64l-.17-.37.38.16a19.51,19.51,0,0,0,7.3,1.38h.12l0,.11A102.59,102.59,0,0,0,229.48,172l.2.5Z"/><path class="cls-1" d="M169,172.51l-4-2.72v0L147.2,131h-4.51l-19.94,35a18.54,18.54,0,0,1-6.3,6.47l0,0H114v2.1h18v-2.1H128l0-.09-2.9-6.29,0-.08,2.58-4.48h21.84l4,8.9-1.7,2H145v2.1H173.4v-2.1Zm-43.28,0H120l.29-.26a23.05,23.05,0,0,0,3.31-3.72l.16-.21Zm2.94-12.89,10.11-18h1.69l0,.09,8.16,17.94Zm25.95,12.89,1.42-1.7-5.55-12.27-8.67-19h-1.52l3.63-6.37h1.94l0,.08,17.44,38,1.92,1.3Zm-11.11-34.3,14.88,32.42h2.31L144.77,136Z"/><path class="cls-1" d="M263.91,170.09H266V135.9h-2.1Zm33.31-28.93a34.43,34.43,0,0,1,.63,3.46,17.24,17.24,0,0,1,1.78,8.47,18.5,18.5,0,0,1-1.51,7.66,36.44,36.44,0,0,1-.57,3.92c2.85-2.79,4.3-6.68,4.3-11.58,0-2.39,0-7.9-4.63-11.93m-17.7-9.68H249.28v2.1h6.89l0,0,3,3.08v32.67l0,0-3,3.09h-6.89v2.1h32.3c15.94,0,25.08-7.84,25.08-21.52,0-14.13-9.38-21.61-27.14-21.61m-20.41,41,2.21-2.28V135.85l-2.21-2.27h11.78l-2.25,2.26v34.41l2.25,2.26Zm26.51,0H273.86l-.05,0-3.07-3.08V136.71l0-.05,3.08-3.08h10.86c7.35,2,8.83,9,8.83,19.5,0,11.39-1.22,17.52-7.93,19.41m6.78-1.64-.48.17.31-.41c3.16-4.13,3.42-10.93,3.42-17.53,0-8.81-1.29-14.27-4.17-17.69l-.34-.4.5.15c8.57,2.65,12.92,8.69,12.92,17.94,0,8.81-4.2,15-12.16,17.77"/><path class="cls-1" d="M98.24,158.23h-2.1v9.12c.74-.17,1.43-.31,2.1-.41Zm-16.32-4.42v2.1h7L91.48,159v9.66l0,0c-2,3.49-6.55,5.42-12.7,5.42-5.49,0-9.41-1.56-12-4.77S63,161.49,63,154.87C63,139.07,68.21,132,79.79,132c9.23,0,16.34,5.25,21.77,16h.78V130.64h-.81l-2.91,3.19H95.13c-6-2.14-10.81-3.46-16.18-3.46-16.54,0-29,10.09-29,23.48,0,12.89,11.31,21.89,27.52,21.89a52,52,0,0,0,14.85-2.5c3.45-1,6.43-1.81,9.53-1.81.69,0,1.42,0,2,.08l-.9-3.49v-9l0,0,3.08-3.08h6.91v-2.1Zm17.63-17.88.69-.76v6.47l-.27-.4a32.44,32.44,0,0,0-4.33-5.05l-.28-.26Zm-34,35.69c-8.45-3.15-13.5-9.8-13.5-17.78,0-8.24,5.26-15.32,14.07-19l.61-.26-.44.49c-4.78,5.34-5.33,13.83-5.33,19.75,0,7.45,1.6,13,4.76,16.51l.41.46Zm35.27-13.46v10.13l.27,1h-.19a36.45,36.45,0,0,0-8,1.54l-.42.12.26-.36c.19-.27.38-.55.55-.84l.3-.53v-11l-2-2.37h11.46Zm-41-16a16.17,16.17,0,0,0-5,11.66,14.78,14.78,0,0,0,4.59,10.81,33.07,33.07,0,0,1-.71-3.75,15,15,0,0,1-1.73-7.06,16,16,0,0,1,2-7.83,39,39,0,0,1,.82-3.83"/><path class="cls-1" d="M88,105h2.11V70.74H88Zm6.82-33.52,3.08-3.08h6.93V66.32H73.4v2.11h6.91l0,0,3,3.09v32.73l-.05,0-3,3.08H73.4v2.11h31.47v-2.11H97.94l0,0-3.09-3.08V71.56Zm.1,35.91H83.25l2.22-2.27V70.7l-2.22-2.27H95l-2.25,2.25v34.48Z"/><path class="cls-1" d="M275.25,105h2.11V70.74h-2.11Zm6.82-33.49,3.09-3.08h6.93V66.32H260.62v2.11h6.91l0,0,3,3.09v32.73l0,0-3,3.08h-6.91v2.11h31.47v-2.11h-6.93l-.05,0L282,104.3V71.56Zm.11,35.91H270.47l2.22-2.27V70.7l-2.22-2.27h11.71l-2.26,2.25v34.48Z"/><path class="cls-1" d="M134.45,70.68,162.62,105h2.72L137.18,70.68Zm22.3-4.36v2.1h5.9l0,.06,5.34,7v26l-.26-.34-28.33-34.8h-24v2.1h11.34l.55.62V100l0,0-5.87,7.39h-6v2.11h26.2v-2.11h-6.2l0,0-6-7.41V71.38l.27.33,31,37.82h9.41v-34l5.62-7.15h5.89v-2.1Zm-24,41.1H124.1l4.28-5.39Zm35.31,0h-6.3l0,0-32-38.95h8.72l0,.06L168,104.81Zm1.1-34-3.83-5h7.78Z"/><path class="cls-1" d="M385,70.68,413.12,105h2.73L387.71,70.68Zm22.27-4.36v2.1h5.88l.05.06,5.35,7v26l-.28-.33L389.94,66.32h-24v2.1h11.34l.55.62V100l0,0-5.87,7.39h-6v2.11h26.19v-2.11h-6.19l-.05,0L379.92,100V71.38l.27.33,31,37.82h9.41v-34l5.61-7.15h5.91v-2.1Zm-24.05,41.1H374.6l4.28-5.39Zm35.33,0h-6.32l0,0-32-38.95h8.72l0,.06,29.56,36.33Zm1.09-34-3.83-5h7.77Z"/><path class="cls-1" d="M354.35,107.43l-4-2.72,0,0L332.52,65.85H328l-20,35.07a18.55,18.55,0,0,1-6.31,6.49l0,0h-2.46v2.1h18v-2.1h-3.93l-.05-.09-2.9-6.31,0-.07L313,96.47h21.9l4,8.92-1.69,2h-6.88v2.1h28.45v-2.1Zm-43.36,0h-5.7l.3-.27a23,23,0,0,0,3.32-3.71l.15-.22Zm2.95-12.92,10.13-18.06h1.69l0,.09,8.18,18Zm26,12.92,1.42-1.71L335.8,93.43l-8.69-19.09h-1.52L329.23,68h1.94l0,.08,17.48,38.08,1.91,1.31ZM328.81,73.06l14.9,32.49H346L330.09,70.81Z"/><path class="cls-1" d="M206.86,105H209V70.74h-2.11ZM222.5,66.32H192.2v2.11h6.91l0,0,3,3.09v32.73l0,0-3,3.08H192.2v2.11h32.37c16,0,25.13-7.86,25.13-21.56,0-14.16-9.4-21.65-27.2-21.65m-20.45,41.1,2.22-2.27V70.7l-2.22-2.27h11.81l-2.26,2.25v34.49l2.26,2.25Zm26.57,0H216.83l0,0-3.08-3.08V71.56l0,0,3.08-3.08h10.89c7.37,2,8.84,9,8.84,19.54,0,11.41-1.22,17.55-7.94,19.45m6.79-1.65-.48.17.31-.4c3.16-4.14,3.43-11,3.43-17.57,0-8.83-1.29-14.3-4.19-17.73l-.33-.39.49.15c8.6,2.66,13,8.71,13,18,0,8.84-4.22,15-12.19,17.8M240.24,76a34.43,34.43,0,0,1,.63,3.46A17.25,17.25,0,0,1,242.66,88a18.36,18.36,0,0,1-1.52,7.67,38.52,38.52,0,0,1-.57,3.93c2.86-2.79,4.31-6.69,4.31-11.6,0-2.39,0-7.92-4.64-12"/><path class="cls-1" d="M39.48,106.92l6.19,6.19-6.19,6.2-6.19-6.2Zm9.17,6.19L39.48,104l-9.17,9.16h0l9.17,9.17h0Z"/><rect class="cls-1" x="37.65" y="111.29" width="3.66" height="3.66" transform="translate(-68.42 61.05) rotate(-45)"/><path class="cls-1" d="M459.55,106.92l6.2,6.19-6.2,6.2-6.19-6.2Zm9.17,6.19L459.55,104l-9.17,9.16h0l9.17,9.17h0Z"/><rect class="cls-1" x="457.72" y="111.29" width="3.65" height="3.65" transform="translate(54.61 358.08) rotate(-45)"/><path class="cls-2" d="M337.13,36c-1,.76-2.1,1.61-3.24,2.57A7.88,7.88,0,0,1,332,40a.23.23,0,0,1-.21-.1.6.6,0,0,1-.07-.33c0-.25.59-.86,1.77-1.85s3.12-2.5,5.84-4.51l14.15-15.88a1.6,1.6,0,0,1,.56-.47,1.34,1.34,0,0,1,.6-.12,3,3,0,0,1,1.12.18c.29.12.44.27.44.46a.67.67,0,0,1-.09.34,2.08,2.08,0,0,1-.37.44L339.34,37.31A25.6,25.6,0,0,0,336.63,41a5.71,5.71,0,0,0-.94,2.6,1.34,1.34,0,0,0,.21.85.84.84,0,0,0,.68.26,6.33,6.33,0,0,0,2.61-.71,24.34,24.34,0,0,0,3.69-2.23c.92-.66,1.87-1.4,2.83-2.21a8.18,8.18,0,0,1,1.6-1.21.38.38,0,0,1,.28.1.49.49,0,0,1,.12.32c0,.28-.89,1.15-2.66,2.57l-.12.1a28.45,28.45,0,0,1-5,3.29,9.22,9.22,0,0,1-3.88,1.19,2.31,2.31,0,0,1-1.69-.59,2.14,2.14,0,0,1-.61-1.62,8.28,8.28,0,0,1,.82-3.25A30.29,30.29,0,0,1,337.13,36M322.8,36c-1,.76-2.1,1.61-3.24,2.57A7.88,7.88,0,0,1,317.63,40a.23.23,0,0,1-.21-.1.6.6,0,0,1-.07-.33c0-.25.59-.86,1.77-1.85s3.12-2.5,5.84-4.51l14.15-15.88a1.6,1.6,0,0,1,.56-.47,1.34,1.34,0,0,1,.6-.12,3,3,0,0,1,1.12.18c.29.12.44.27.44.46a.67.67,0,0,1-.09.34,2.08,2.08,0,0,1-.37.44L325,37.31A25.6,25.6,0,0,0,322.3,41a5.71,5.71,0,0,0-.94,2.6,1.34,1.34,0,0,0,.21.85.84.84,0,0,0,.68.26,6.33,6.33,0,0,0,2.61-.71,24.34,24.34,0,0,0,3.69-2.23c.92-.66,1.87-1.4,2.83-2.21a8.18,8.18,0,0,1,1.6-1.21.38.38,0,0,1,.28.1.56.56,0,0,1,.13.32c0,.28-.9,1.15-2.67,2.57l-.12.1a28.82,28.82,0,0,1-5,3.29,9.22,9.22,0,0,1-3.88,1.19,2.31,2.31,0,0,1-1.69-.59,2.14,2.14,0,0,1-.61-1.62,8.28,8.28,0,0,1,.82-3.25A30.29,30.29,0,0,1,322.8,36ZM307,40.15A15.13,15.13,0,0,0,312.38,38c1.45-1,2.18-1.89,2.18-2.74a1,1,0,0,0-.17-.65.74.74,0,0,0-.56-.18,5,5,0,0,0-2.91,1.45A28.31,28.31,0,0,0,307,40.15Zm-.69,1.4a4.37,4.37,0,0,0-.32.87,3.1,3.1,0,0,0-.1.75,1.48,1.48,0,0,0,.48,1.18,2,2,0,0,0,1.33.43,8.38,8.38,0,0,0,3.64-1.09,27.52,27.52,0,0,0,4.6-3.1c.42-.36.94-.82,1.55-1.38s1-.84,1.12-.84a.37.37,0,0,1,.29.11.63.63,0,0,1,.12.31c0,.18-.21.48-.64.91s-1.16,1.1-2.21,2a22.05,22.05,0,0,1-4.71,3.12,9.84,9.84,0,0,1-4.13,1.12,3.62,3.62,0,0,1-2.7-1,3.85,3.85,0,0,1-1-2.83,5.9,5.9,0,0,1,1-3.2,11.81,11.81,0,0,1,2.95-3A15.78,15.78,0,0,1,310.79,34a7.23,7.23,0,0,1,2.75-.61,2.68,2.68,0,0,1,1.6.36,1.5,1.5,0,0,1,.48,1.26c0,1.22-.89,2.47-2.67,3.78A16.77,16.77,0,0,1,306.34,41.55Zm-21.92,4.2a2.79,2.79,0,0,1-.53.1c-.22,0-.59,0-1.11,0a4.85,4.85,0,0,1-1.07-.07c-.19,0-.28-.13-.28-.26,0-.28.69-1.06,2.08-2.33.92-.87,1.68-1.6,2.26-2.18l.57-.51c3.18-3.08,4.76-4.85,4.76-5.3a.67.67,0,0,0-.09-.31.22.22,0,0,0-.16-.1,3.38,3.38,0,0,0-1.69.64,25.18,25.18,0,0,0-2.89,2.26c-.32.27-.69.6-1.14,1s-1,.82-1.15.82a.44.44,0,0,1-.3-.12.38.38,0,0,1-.12-.28c0-.22.55-.83,1.67-1.82.23-.21.42-.37.54-.5a24.61,24.61,0,0,1,3.47-2.6,5.33,5.33,0,0,1,2.52-.86,1.39,1.39,0,0,1,1.15.5,2.23,2.23,0,0,1,.41,1.48,3.29,3.29,0,0,1,0,.41c0,.15,0,.38-.06.68A28.47,28.47,0,0,1,297,34.13a6,6,0,0,1,2.46-.7,1.6,1.6,0,0,1,1.19.46,1.65,1.65,0,0,1,.43,1.22,3.14,3.14,0,0,1-.58,1.74A19.28,19.28,0,0,1,298,39.53l-1.42,1.32c-1.91,1.78-2.87,2.87-2.87,3.25a.53.53,0,0,0,.21.42.92.92,0,0,0,.57.16,7.78,7.78,0,0,0,3-1A28.19,28.19,0,0,0,301.81,41c.65-.47,1.33-1,2.05-1.65s1.15-.94,1.3-.94a.38.38,0,0,1,.26.1.63.63,0,0,1,.12.32c0,.28-.88,1.14-2.63,2.55l-.11.09a31.39,31.39,0,0,1-5,3.29,9.1,9.1,0,0,1-3.67,1.22,2.48,2.48,0,0,1-1.72-.59,2,2,0,0,1-.66-1.54,4.71,4.71,0,0,1,.86-2.47,12.53,12.53,0,0,1,2.49-2.73c.35-.31.81-.7,1.42-1.21,1.45-1.22,2.18-1.95,2.18-2.16a.31.31,0,0,0-.16-.28.68.68,0,0,0-.4-.13q-1.35,0-5.24,3.05A79.61,79.61,0,0,0,284.42,45.75Zm-5.93-6a33.32,33.32,0,0,1-5.56,4.55,8.57,8.57,0,0,1-4.29,1.57,2.63,2.63,0,0,1-1.95-.71,2.56,2.56,0,0,1-.71-1.89,6.13,6.13,0,0,1,1.32-3.5,18.44,18.44,0,0,1,7.55-5.69,9.32,9.32,0,0,1,3.38-.76,2.78,2.78,0,0,1,1.9.63,2.09,2.09,0,0,1,.71,1.64,3.55,3.55,0,0,1-.41,1.54,10.14,10.14,0,0,1-1.23,1.84,1.73,1.73,0,0,0,.7.8A2.16,2.16,0,0,0,281,40a3.82,3.82,0,0,0,2.08-.81,4.55,4.55,0,0,1,1.46-.82.23.23,0,0,1,.21.09.48.48,0,0,1,.07.29c0,.31-.44.76-1.34,1.35A4.63,4.63,0,0,1,281,41a3,3,0,0,1-1.35-.3A3.65,3.65,0,0,1,278.49,39.72ZM268.1,43.9a.78.78,0,0,0,.21.61,1,1,0,0,0,.66.17,6,6,0,0,0,2.73-1,28.36,28.36,0,0,0,3.94-2.86,19.85,19.85,0,0,0,3-3.07,4.31,4.31,0,0,0,1.08-2.28.91.91,0,0,0-.27-.71,1,1,0,0,0-.74-.26,5.06,5.06,0,0,0-2.19.77,17.69,17.69,0,0,0-2.92,2.09,34.31,34.31,0,0,0-4,3.92A5.28,5.28,0,0,0,268.1,43.9Zm-8-6.86a22.87,22.87,0,0,0-2.65,1.79,6.26,6.26,0,0,1-1.54,1,.33.33,0,0,1-.24-.1.32.32,0,0,1-.09-.23c0-.25.29-.6.86-1l0,0L258,37.35a44.29,44.29,0,0,1,4.37-3.05,5.89,5.89,0,0,1,2.5-1,8.62,8.62,0,0,1,1.71.14c.44.09.65.22.65.37a10.73,10.73,0,0,1-1.92,1.79q-1.93,1.62-3.58,3.24a37.59,37.59,0,0,0-3.15,3.4,4.16,4.16,0,0,0-1,1.91.6.6,0,0,0,.18.47.8.8,0,0,0,.53.17,7.32,7.32,0,0,0,2.93-1,26.45,26.45,0,0,0,4.17-2.7c.58-.41,1.22-.92,1.92-1.52a5.35,5.35,0,0,1,1.21-.88.32.32,0,0,1,.25.12.4.4,0,0,1,.11.26c0,.3-.75,1-2.24,2.24l-.52.43a25.48,25.48,0,0,1-4.67,3.08,8.92,8.92,0,0,1-3.71,1.12,2.51,2.51,0,0,1-1.69-.56,1.87,1.87,0,0,1-.64-1.47,5.36,5.36,0,0,1,1.2-2.9A26.15,26.15,0,0,1,260.13,37Zm9.51-9.94A1.42,1.42,0,0,1,270.1,26a1.81,1.81,0,0,1,1.23-.41,1.84,1.84,0,0,1,1.24.41A1.41,1.41,0,0,1,273,27.1a1.46,1.46,0,0,1-.47,1.13,1.78,1.78,0,0,1-1.22.43,1.74,1.74,0,0,1-1.24-.43A1.51,1.51,0,0,1,269.64,27.1ZM247,36c-1,.73-2,1.59-3.17,2.55a7.56,7.56,0,0,1-2,1.45.26.26,0,0,1-.21-.11.59.59,0,0,1-.08-.31q0-.54,5.76-4.92l1.86-1.44L251.25,31h-4.14l.77-.82h4.2l4.39-5.49a1.54,1.54,0,0,1,.55-.45,1.68,1.68,0,0,1,.72-.14,3,3,0,0,1,1.24.21c.32.14.48.31.48.52a1.06,1.06,0,0,1,0,.31,1.49,1.49,0,0,1-.19.33l-4.05,4.71H260l-.78.82h-4.62L249,37.31a27.31,27.31,0,0,0-2.86,3.76,5.35,5.35,0,0,0-.92,2.55,1.31,1.31,0,0,0,.21.81.75.75,0,0,0,.62.25,7.51,7.51,0,0,0,3.13-1,28.62,28.62,0,0,0,4.36-2.82,19.29,19.29,0,0,0,1.9-1.59c.67-.61,1.09-.91,1.24-.91a.36.36,0,0,1,.28.12.42.42,0,0,1,.1.3c0,.2-.17.45-.5.79a28.41,28.41,0,0,1-2.4,2,27.34,27.34,0,0,1-4.88,3.22,9,9,0,0,1-3.85,1.12,2.33,2.33,0,0,1-1.7-.59,2.12,2.12,0,0,1-.63-1.62,7.7,7.7,0,0,1,.92-3.4A23.9,23.9,0,0,1,247,36ZM234.2,37a24.72,24.72,0,0,0-2.65,1.79,6.31,6.31,0,0,1-1.53,1,.3.3,0,0,1-.24-.1.32.32,0,0,1-.09-.23c0-.25.29-.6.86-1l0,0L232,37.35a43.13,43.13,0,0,1,4.37-3.05,5.79,5.79,0,0,1,2.5-1,8.62,8.62,0,0,1,1.71.14c.43.09.65.22.65.37a11.19,11.19,0,0,1-1.92,1.79c-1.29,1.08-2.48,2.16-3.59,3.24a37.22,37.22,0,0,0-3.14,3.4,4.22,4.22,0,0,0-1.06,1.91.6.6,0,0,0,.19.47.79.79,0,0,0,.52.17,7.4,7.4,0,0,0,2.94-1,26.92,26.92,0,0,0,4.17-2.7c.58-.41,1.22-.92,1.92-1.52a4.9,4.9,0,0,1,1.21-.88.35.35,0,0,1,.25.12.39.39,0,0,1,.1.26c0,.3-.74,1-2.24,2.24l-.51.43a25.2,25.2,0,0,1-4.68,3.08,8.92,8.92,0,0,1-3.7,1.12,2.5,2.5,0,0,1-1.69-.56,1.88,1.88,0,0,1-.65-1.47,5.36,5.36,0,0,1,1.2-2.9A26.69,26.69,0,0,1,234.2,37Zm9.52-9.94a1.39,1.39,0,0,1,.46-1.08,1.76,1.76,0,0,1,1.22-.41,1.82,1.82,0,0,1,1.24.41,1.39,1.39,0,0,1,.46,1.08,1.43,1.43,0,0,1-.48,1.13,1.76,1.76,0,0,1-1.22.43,1.74,1.74,0,0,1-1.23-.43A1.48,1.48,0,0,1,243.72,27.1ZM217.3,43.19a12.77,12.77,0,0,1-2.62,2.1,4.46,4.46,0,0,1-2.15.7,1.77,1.77,0,0,1-1.53-.74,3.46,3.46,0,0,1-.54-2.08,6.46,6.46,0,0,1,.75-3,9.79,9.79,0,0,1,2.34-2.8,17.86,17.86,0,0,1,4.38-2.89A10,10,0,0,1,222,33.39a2.34,2.34,0,0,1,1.49.37,1.83,1.83,0,0,1,.58,1.26l14.36-17.68a1.72,1.72,0,0,1,.49-.43,1.44,1.44,0,0,1,.66-.13,3.57,3.57,0,0,1,1.24.18c.33.12.49.27.49.46a.7.7,0,0,1-.08.33,1.65,1.65,0,0,1-.35.45L221.07,41.69A10.29,10.29,0,0,0,220,43.14a2.29,2.29,0,0,0-.35,1,.53.53,0,0,0,.14.42.69.69,0,0,0,.48.12,8,8,0,0,0,3.07-1A26.38,26.38,0,0,0,227.6,41c.63-.48,1.31-1,2-1.65a4.43,4.43,0,0,1,1.3-.94.34.34,0,0,1,.27.12.41.41,0,0,1,.11.3c0,.28-.88,1.14-2.64,2.57l-.12.1a29.12,29.12,0,0,1-5,3.32A9.36,9.36,0,0,1,219.64,46a2.43,2.43,0,0,1-1.74-.61,2.21,2.21,0,0,1-.64-1.66,2.64,2.64,0,0,1,0-.32A.76.76,0,0,1,217.3,43.19Zm-.19-1,4-4.19.5-.5c1.09-1.17,1.63-2,1.63-2.35a.45.45,0,0,0-.17-.37.64.64,0,0,0-.45-.15,5,5,0,0,0-2.1.67,14.21,14.21,0,0,0-2.68,1.83A21.35,21.35,0,0,0,214.09,41a6.33,6.33,0,0,0-1.46,3,.69.69,0,0,0,.2.53.67.67,0,0,0,.51.2,3.27,3.27,0,0,0,1.66-.67A11.21,11.21,0,0,0,217.11,42.2Zm-18,1a13,13,0,0,1-2.62,2.09,4.46,4.46,0,0,1-2.15.7,1.77,1.77,0,0,1-1.53-.74,3.38,3.38,0,0,1-.54-2.07,6.5,6.5,0,0,1,.75-3,9.79,9.79,0,0,1,2.34-2.8,17.27,17.27,0,0,1,4.37-2.89,10,10,0,0,1,4.12-1.07,2.45,2.45,0,0,1,1.49.37,1.66,1.66,0,0,1,.54,1.26,7.86,7.86,0,0,1,.77-.75,8.46,8.46,0,0,1,1-.69l.55,0,.51,0a3.61,3.61,0,0,1,1.18.13.45.45,0,0,1,.36.43c0,.2-.37.61-1.09,1.26l-.94.82a69,69,0,0,0-5,5.11c-1.2,1.41-1.79,2.36-1.79,2.86a.53.53,0,0,0,.13.42.73.73,0,0,0,.48.12,8,8,0,0,0,3.07-1A26.12,26.12,0,0,0,209.41,41c.63-.47,1.31-1,2-1.65a4.46,4.46,0,0,1,1.29-.94.35.35,0,0,1,.28.12.4.4,0,0,1,.1.3c0,.28-.87,1.14-2.64,2.57l-.12.1a28.55,28.55,0,0,1-5,3.29,9.41,9.41,0,0,1-3.9,1.19,2.43,2.43,0,0,1-1.74-.61,2.09,2.09,0,0,1-.64-1.61V43.4C199.07,43.33,199.09,43.26,199.1,43.2Zm-.19-1,5.43-5.76a4.3,4.3,0,0,0,.49-.66,1.32,1.32,0,0,0,.17-.62.43.43,0,0,0-.17-.37.6.6,0,0,0-.44-.15,5.06,5.06,0,0,0-2.11.67,14.53,14.53,0,0,0-2.68,1.83A21.7,21.7,0,0,0,195.89,41a6.33,6.33,0,0,0-1.46,3,.69.69,0,0,0,.71.73,3.27,3.27,0,0,0,1.66-.67A11.21,11.21,0,0,0,198.91,42.2Zm-9.73-7.88a.47.47,0,0,1,.24-.13,2.57,2.57,0,0,1,.38-.08,3.7,3.7,0,0,1,1.12.15c.32.11.48.22.48.34s-.15.25-.44.56a9.37,9.37,0,0,0-.72.83,10.24,10.24,0,0,0-1.33,2.2,5,5,0,0,0-.46,1.89,1.44,1.44,0,0,0,.33,1,1.11,1.11,0,0,0,.87.38,2.7,2.7,0,0,0,1.27-.36,9.07,9.07,0,0,0,1.68-1.19c.29-.25.64-.55,1.06-.93s.83-.71,1-.71a.37.37,0,0,1,.29.11.63.63,0,0,1,.12.32,1,1,0,0,1-.26.53,8.86,8.86,0,0,1-1.11,1,16.91,16.91,0,0,1-2.71,1.9,4.31,4.31,0,0,1-1.91.51,2.45,2.45,0,0,1-1.9-.74,3,3,0,0,1-.67-2.07,5.09,5.09,0,0,1,.13-1.09c.09-.41.21-.84.36-1.32q-2.13,2-4,4.05a54.83,54.83,0,0,0-3.5,4.26c-.41.06-.78.11-1.13.14s-.66,0-.94,0a2,2,0,0,1-.71-.1c-.17-.06-.26-.14-.26-.23s.46-.81,1.37-1.8c.55-.62,1-1.11,1.34-1.48a54.81,54.81,0,0,0,3.56-4.46,4.45,4.45,0,0,0,.92-2.08.56.56,0,0,0-.06-.3.21.21,0,0,0-.18-.08,3.53,3.53,0,0,0-1.59.54,23.64,23.64,0,0,0-2.55,1.77c-.31.25-.7.59-1.16,1s-.93.78-1.11.78a.46.46,0,0,1-.31-.13.42.42,0,0,1-.13-.32c0-.16.16-.41.48-.74s.9-.86,1.73-1.57a22.13,22.13,0,0,1,3.5-2.46,6.11,6.11,0,0,1,2.54-.91,1.29,1.29,0,0,1,1,.41,1.6,1.6,0,0,1,.38,1.12,4.35,4.35,0,0,1-.19,1.19,9.16,9.16,0,0,1-.59,1.52ZM172,16.78a6.11,6.11,0,0,1-.66,2.08,15.68,15.68,0,0,1-1.68,2.84,16.53,16.53,0,0,1-4.93,4.61,11.06,11.06,0,0,1-5.64,1.57,6.09,6.09,0,0,1-4.46-1.64,5.89,5.89,0,0,1-1.67-4.39q0-5,4.86-8.21c3.24-2.12,7.48-3.18,12.75-3.18a80.34,80.34,0,0,1,11,1.11l.32,0c.56.1,1.36.23,2.39.38a70.12,70.12,0,0,0,7.65.93,13.77,13.77,0,0,0,3.65-.53,2.77,2.77,0,0,1,.5-.09.56.56,0,0,1,.36.12.31.31,0,0,1,.15.26c0,.45-.56.91-1.69,1.36a10.84,10.84,0,0,1-3.94.66,17.66,17.66,0,0,1-2-.12,15.69,15.69,0,0,1-2.07-.35l-1.63-.4q-9.26-2.26-13.79-2.26a22.53,22.53,0,0,0-6.31.83,15,15,0,0,0-5,2.54,21.24,21.24,0,0,0-4.14,4,6.18,6.18,0,0,0-1.38,3.58,3.69,3.69,0,0,0,1.35,2.95,5.08,5.08,0,0,0,3.44,1.16,9.39,9.39,0,0,0,5.34-1.75,17.72,17.72,0,0,0,4.79-5.11,14.7,14.7,0,0,0,1.17-2.2c.38-.88.69-1.31.91-1.31a.39.39,0,0,1,.33.14A.58.58,0,0,1,172,16.78Zm-21.2,28.14q4.19,0,9.06-4.28t12-14.34q4.11-5.85,6.78-8.91c1.78-2,3-3.06,3.64-3.06a.44.44,0,0,1,.28.08.29.29,0,0,1,.1.25s-.59.86-1.77,2.45-2.32,3.3-3.44,5.14L176,24.63q-7.12,11.88-12.07,16.2a24,24,0,0,1-6.23,4,16.11,16.11,0,0,1-6.34,1.35,8.84,8.84,0,0,1-5.45-1.54,4.83,4.83,0,0,1-2-4,3.43,3.43,0,0,1,.81-2.36,2.67,2.67,0,0,1,2.09-.92,2.11,2.11,0,0,1,1.53.58,2,2,0,0,1,.59,1.5,1.7,1.7,0,0,1-.58,1.37,2.21,2.21,0,0,1-1.53.51,2.45,2.45,0,0,1-.55-.08,2.6,2.6,0,0,0-.56-.09.32.32,0,0,0-.23.12,1,1,0,0,0-.08.33,2.85,2.85,0,0,0,1.58,2.35A6.83,6.83,0,0,0,150.76,44.92Z"/></svg>