<?xml version="1.0" encoding="utf-8"?>
<!-- Generator: Adobe Illustrator 24.0.3, SVG Export Plug-In . SVG Version: 6.00 Build 0)  -->
<svg version="1.1" id="Layer_1" xmlns="http://www.w3.org/2000/svg" xmlns:xlink="http://www.w3.org/1999/xlink" x="0px" y="0px"
	 viewBox="0 0 283.46 141.73" style="enable-background:new 0 0 283.46 141.73;" xml:space="preserve">
<style type="text/css">
	.st0{fill-rule:evenodd;clip-rule:evenodd;fill:#ECDEDA;}
	.st1{fill:none;stroke:#CD8C5D;stroke-width:0.124;stroke-miterlimit:22.9256;}
	.st2{fill-rule:evenodd;clip-rule:evenodd;fill:#B88832;}
	.st3{fill:#FFFFFF;}
</style>
<path class="st0" d="M123.48,57.92l-0.74,0.82V73.7l0.69,0.71h3.85c1.63,0,2.57-0.25,3.22-1.83c0.84-2.04,0.75-4.28,0.75-6.45
	c0-0.54-0.01-1.07-0.03-1.61c-0.07-1.71-0.32-4.12-1.53-5.45c-0.81-0.89-1.93-1.16-3.1-1.16h-3.11V57.92z M175.96,62.77l-2.98,5.33
	h5.43L175.96,62.77z M151.54,90.03l-0.75,0.73v14.92l0.69,0.71h3.85c1.63,0,2.57-0.25,3.22-1.83c0.26-0.63,0.48-1.26,0.62-1.93
	c0.3-1.42,0.26-3.07,0.26-4.52c0-1.32-0.1-2.7-0.41-3.99c-0.57-2.35-1.75-4.09-4.38-4.09C154.64,90.03,151.54,90.03,151.54,90.03z
	 M84.87,94.84l-2.98,5.24h5.39L84.87,94.84z M117.47,90.03l-0.48,0.65v5.08h4.4c1.87,0,3.6-0.95,3.6-3c0-0.45-0.14-0.91-0.34-1.31
	c-0.31-0.61-1.01-1.42-1.77-1.42C122.88,90.03,117.47,90.03,117.47,90.03z M242.13,72.15l6.45,6.45l-6.45,6.45l-6.45-6.45
	L242.13,72.15z M35.8,72.15l6.45,6.45l-6.45,6.45l-6.45-6.45L35.8,72.15z M220.47,68.9v-8.32l-2.02-2.65h-3.46v-3.77h14.96v3.77
	h-3.59l-2.1,2.61v17.65h-6.7L204.3,62.01v9.62l2.19,2.79h3.79v3.77h-15.65v-3.77h3.69l2.18-2.74V57.92h-5.87v-3.77h13.84
	L220.47,68.9z M157.21,57.92l-0.8,0.81v14.94l0.71,0.74h4.16v3.77h-18.09v-3.77h4.16l0.71-0.74l0.02-14.94l-0.82-0.82h-4.07v-3.77
	h18.09v3.77L157.21,57.92L157.21,57.92z M65.21,57.92l-0.8,0.81v14.94l0.71,0.74h4.16v3.77h-18.1v-3.77h4.16l0.71-0.74l0.02-14.94
	l-0.82-0.82h-4.07v-3.77h18.09v3.77L65.21,57.92L65.21,57.92z M113.69,74.42l0.66-0.66V58.73l-0.77-0.8h-4.06v-3.77h16.67
	c7.63,0,14.24,3.65,14.24,12.05c0,8.02-5.74,11.99-13.21,11.99h-17.7v-3.77L113.69,74.42L113.69,74.42z M97.58,68.9v-8.32
	l-2.02-2.65H92.1v-3.77h14.96v3.77h-3.59l-2.1,2.61v17.65h-6.69L81.41,62.01v9.62l2.19,2.79h3.79v3.77H71.74v-3.77h3.69l2.18-2.74
	V57.92h-5.87v-3.77h13.84L97.58,68.9z M189.58,73.6l1.15,0.82h3.23v3.77h-16.73v-3.77h3.98l-1.15-2.68h-9.03l-0.59,0.99l0.73,1.69
	h2.51l0.06,3.77h-11.78v-3.77h1.31c0.19,0,0.77,0.04,0.96-0.01c1.1-0.77,2.03-2.12,2.69-3.28l9.65-16.98h4.15L189.58,73.6z
	 M228.83,100.91v-8.35l-2.01-2.53h-3.47v-3.8h14.96v3.8h-3.61l-2.08,2.49v17.64h-6.7l-13.23-16.17v9.68l2.06,2.72h3.77v3.77h-15.44
	v-3.77h3.68l2.13-2.73V90.03h-5.81v-3.8h13.63L228.83,100.91z M141.75,106.39l0.66-0.66V90.76l-0.82-0.73h-4.01v-3.8h16.67
	c7.48,0,14.24,3.59,14.24,11.88c0,7.72-5.99,12.05-13.21,12.05h-17.7v-3.77C137.58,106.39,141.75,106.39,141.75,106.39z
	 M98.45,105.57l1.15,0.82h3.23v3.77H86.1v-3.77h3.98l-1.15-2.68H79.9l-0.59,0.99l0.73,1.69h2.51l0.06,3.77H70.82v-3.77h1.31
	c0.19,0,0.77,0.04,0.96-0.01c1.1-0.77,2.03-2.13,2.7-3.29l9.74-16.87h4.06L98.45,105.57z M191.68,90.03h-6.82l-0.54,0.65v4.85h1.45
	l3.84-4.5h2.52v12.81h-2.51l-3.84-4.51h-1.45v6.5l0.42,0.56h6.3l5.63-6.82h2.4v10.59h-27.99v-3.77h4.36l0.61-0.72V90.75l-0.7-0.72
	h-4.27v-3.8h27.68l0.4,10.65h-2.68L191.68,90.03z M126.09,98.48c0.79,0.09,1.58,0.1,2.08,0.1l1.09,0.02l0.18,1.07
	c0.22,1.26,0.51,2.55,0.83,3.78c0.14,0.55,0.61,2.24,0.99,2.94h3.79v3.81h-11.19l-0.24-1.01c-0.3-1.27-0.61-2.53-0.95-3.79
	c-0.31-1.16-0.69-2.58-1.21-3.66c-0.35-0.73-0.87-1.73-1.67-2.05c-0.44-0.18-1-0.2-1.48-0.21c-0.44,0-0.88,0.01-1.32,0.02v6.34
	l0.45,0.55h4.42l-0.32,3.81h-17.8v-3.81h4.17l0.7-0.71l0.02-14.93l-0.72-0.72h-4.17v-3.8h18.6c3.93,0,11.11,1.11,11.4,6.13
	c0.06,1.09-0.19,2.12-0.81,3.02C131.52,97.41,128.69,98.12,126.09,98.48z M63.41,87.44c1.25,0.11,1.06-0.37,1.77-1.13l0.39-0.42
	h2.53v11.3h-2.74L65,96.45c-0.82-1.7-1.88-3.58-3.36-4.8c-1.82-1.5-3.49-2.42-5.9-2.39c-2.53,0.03-4.47,1.03-5.72,3.26
	c-0.99,1.78-1.38,4.07-1.38,6.1c0,2.73,0.13,5.3,2.16,7.31c1.11,1.1,2.76,1.39,4.26,1.35c1.17-0.03,2.46-0.25,3.54-0.72
	c0.39-0.17,1.11-0.55,1.38-0.98v-3.94L59.47,101h-4.18v-3.81h17.94V101h-4.11l-0.7,0.71v3.74c0,0.44,0.14,1,0.29,1.41l0.65,1.77
	l-1.89-0.01c-2.32-0.01-4.28,0.53-6.49,1.13c-2.02,0.55-3.9,0.97-6.02,0.99c-1.83,0.02-3.56-0.13-5.34-0.57
	c-5.95-1.47-9.95-5.17-10.01-11.56c-0.06-6.14,4.98-10.92,10.65-12.32c3.18-0.78,6.39-0.79,9.57-0.02c0.63,0.15,1.28,0.4,1.89,0.61
	c0.36,0.13,0.73,0.25,1.09,0.37C62.99,87.32,63.23,87.41,63.41,87.44z"/>
<path class="st1" d="M123.48,57.92l-0.74,0.82V73.7l0.69,0.71h3.85c1.63,0,2.57-0.25,3.22-1.83c0.84-2.04,0.75-4.28,0.75-6.45
	c0-0.54-0.01-1.07-0.03-1.61c-0.07-1.71-0.32-4.12-1.53-5.45c-0.81-0.89-1.93-1.16-3.1-1.16h-3.11V57.92z M175.96,62.77l-2.98,5.33
	h5.43L175.96,62.77z M151.54,90.03l-0.75,0.73v14.92l0.69,0.71h3.85c1.63,0,2.57-0.25,3.22-1.83c0.26-0.63,0.48-1.26,0.62-1.93
	c0.3-1.42,0.26-3.07,0.26-4.52c0-1.32-0.1-2.7-0.41-3.99c-0.57-2.35-1.75-4.09-4.38-4.09C154.64,90.03,151.54,90.03,151.54,90.03z
	 M84.87,94.84l-2.98,5.24h5.39L84.87,94.84z M117.47,90.03l-0.48,0.65v5.08h4.4c1.87,0,3.6-0.95,3.6-3c0-0.45-0.14-0.91-0.34-1.31
	c-0.31-0.61-1.01-1.42-1.77-1.42C122.88,90.03,117.47,90.03,117.47,90.03z M242.13,72.15l6.45,6.45l-6.45,6.45l-6.45-6.45
	L242.13,72.15z M35.8,72.15l6.45,6.45l-6.45,6.45l-6.45-6.45L35.8,72.15z M220.47,68.9v-8.32l-2.02-2.65h-3.46v-3.77h14.96v3.77
	h-3.59l-2.1,2.61v17.65h-6.7L204.3,62.01v9.62l2.19,2.79h3.79v3.77h-15.65v-3.77h3.69l2.18-2.74V57.92h-5.87v-3.77h13.84
	L220.47,68.9z M157.21,57.92l-0.8,0.81v14.94l0.71,0.74h4.16v3.77h-18.09v-3.77h4.16l0.71-0.74l0.02-14.94l-0.82-0.82h-4.07v-3.77
	h18.09v3.77L157.21,57.92L157.21,57.92z M65.21,57.92l-0.8,0.81v14.94l0.71,0.74h4.16v3.77h-18.1v-3.77h4.16l0.71-0.74l0.02-14.94
	l-0.82-0.82h-4.07v-3.77h18.09v3.77L65.21,57.92L65.21,57.92z M113.69,74.42l0.66-0.66V58.73l-0.77-0.8h-4.06v-3.77h16.67
	c7.63,0,14.24,3.65,14.24,12.05c0,8.02-5.74,11.99-13.21,11.99h-17.7v-3.77L113.69,74.42L113.69,74.42z M97.58,68.9v-8.32
	l-2.02-2.65H92.1v-3.77h14.96v3.77h-3.59l-2.1,2.61v17.65h-6.69L81.41,62.01v9.62l2.19,2.79h3.79v3.77H71.74v-3.77h3.69l2.18-2.74
	V57.92h-5.87v-3.77h13.84L97.58,68.9z M189.58,73.6l1.15,0.82h3.23v3.77h-16.73v-3.77h3.98l-1.15-2.68h-9.03l-0.59,0.99l0.73,1.69
	h2.51l0.06,3.77h-11.78v-3.77h1.31c0.19,0,0.77,0.04,0.96-0.01c1.1-0.77,2.03-2.12,2.69-3.28l9.65-16.98h4.15L189.58,73.6z
	 M228.83,100.91v-8.35l-2.01-2.53h-3.47v-3.8h14.96v3.8h-3.61l-2.08,2.49v17.64h-6.7l-13.23-16.17v9.68l2.06,2.72h3.77v3.77h-15.44
	v-3.77h3.68l2.13-2.73V90.03h-5.81v-3.8h13.63L228.83,100.91z M141.75,106.39l0.66-0.66V90.76l-0.82-0.73h-4.01v-3.8h16.67
	c7.48,0,14.24,3.59,14.24,11.88c0,7.72-5.99,12.05-13.21,12.05h-17.7v-3.77C137.58,106.39,141.75,106.39,141.75,106.39z
	 M98.45,105.57l1.15,0.82h3.23v3.77H86.1v-3.77h3.98l-1.15-2.68H79.9l-0.59,0.99l0.73,1.69h2.51l0.06,3.77H70.82v-3.77h1.31
	c0.19,0,0.77,0.04,0.96-0.01c1.1-0.77,2.03-2.13,2.7-3.29l9.74-16.87h4.06L98.45,105.57z M191.68,90.03h-6.82l-0.54,0.65v4.85h1.45
	l3.84-4.5h2.52v12.81h-2.51l-3.84-4.51h-1.45v6.5l0.42,0.56h6.3l5.63-6.82h2.4v10.59h-27.99v-3.77h4.36l0.61-0.72V90.75l-0.7-0.72
	h-4.27v-3.8h27.68l0.4,10.65h-2.68L191.68,90.03z M126.09,98.48c0.79,0.09,1.58,0.1,2.08,0.1l1.09,0.02l0.18,1.07
	c0.22,1.26,0.51,2.55,0.83,3.78c0.14,0.55,0.61,2.24,0.99,2.94h3.79v3.81h-11.19l-0.24-1.01c-0.3-1.27-0.61-2.53-0.95-3.79
	c-0.31-1.16-0.69-2.58-1.21-3.66c-0.35-0.73-0.87-1.73-1.67-2.05c-0.44-0.18-1-0.2-1.48-0.21c-0.44,0-0.88,0.01-1.32,0.02v6.34
	l0.45,0.55h4.42l-0.32,3.81h-17.8v-3.81h4.17l0.7-0.71l0.02-14.93l-0.72-0.72h-4.17v-3.8h18.6c3.93,0,11.11,1.11,11.4,6.13
	c0.06,1.09-0.19,2.12-0.81,3.02C131.52,97.41,128.69,98.12,126.09,98.48z M63.41,87.44c1.25,0.11,1.06-0.37,1.77-1.13l0.39-0.42
	h2.53v11.3h-2.74L65,96.45c-0.82-1.7-1.88-3.58-3.36-4.8c-1.82-1.5-3.49-2.42-5.9-2.39c-2.53,0.03-4.47,1.03-5.72,3.26
	c-0.99,1.78-1.38,4.07-1.38,6.1c0,2.73,0.13,5.3,2.16,7.31c1.11,1.1,2.76,1.39,4.26,1.35c1.17-0.03,2.46-0.25,3.54-0.72
	c0.39-0.17,1.11-0.55,1.38-0.98v-3.94L59.47,101h-4.18v-3.81h17.94V101h-4.11l-0.7,0.71v3.74c0,0.44,0.14,1,0.29,1.41l0.65,1.77
	l-1.89-0.01c-2.32-0.01-4.28,0.53-6.49,1.13c-2.02,0.55-3.9,0.97-6.02,0.99c-1.83,0.02-3.56-0.13-5.34-0.57
	c-5.95-1.47-9.95-5.17-10.01-11.56c-0.06-6.14,4.98-10.92,10.65-12.32c3.18-0.78,6.39-0.79,9.57-0.02c0.63,0.15,1.28,0.4,1.89,0.61
	c0.36,0.13,0.73,0.25,1.09,0.37C62.99,87.32,63.23,87.41,63.41,87.44z"/>
<path class="st2" d="M242.13,77.27l1.33,1.33l-1.33,1.33l-1.33-1.33L242.13,77.27z M242.13,75.68l2.92,2.92l-2.92,2.92l-2.92-2.92
	L242.13,75.68z M242.13,74.01l4.59,4.59l-4.59,4.59l-4.59-4.59L242.13,74.01z M35.8,77.27l1.33,1.33l-1.33,1.33l-1.33-1.33
	L35.8,77.27z M35.8,75.68l2.92,2.92l-2.92,2.92l-2.92-2.92L35.8,75.68z M35.8,74.01l4.59,4.59l-4.59,4.59l-4.59-4.59L35.8,74.01z
	 M205.29,57.69l13.84,17h1.48l-13.85-17.01h-1.47V57.69z M195.94,56.61h5.56l0.31,0.39v15.14l-2.86,3.6h-3.01v1.14h13.02v-1.14
	h-3.11l-2.86-3.65V58.33l15.2,18.54h4.76v-16.8l2.77-3.47h2.91v-1.14H216.3v1.14h2.8l2.69,3.52v12.46l-13.94-17.13h-11.9v1.16
	H195.94z M203.12,56.61h4.14l14.52,17.86v1.27h-3.08L203.12,56.61z M220.62,56.61h3.6l-1.83,2.34L220.62,56.61z M202.37,73.27
	l1.99,2.47h-3.91L202.37,73.27z M151.65,74.69h1.17v-17h-1.17V74.69z M144.5,56.61h3.3l1.58,1.59l-0.02,16.01l-1.47,1.52h-3.4v1.14
	h15.46v-1.14h-3.4l-1.47-1.52V58.2l1.57-1.59h3.3v-1.14h-15.46L144.5,56.61L144.5,56.61z M149.49,56.61h5.47l-1.05,1.08V74.7
	l0.98,1.04h-5.29l0.9-1.04V57.69L149.49,56.61z M59.64,74.69h1.17v-17h-1.17V74.69z M52.5,56.61h3.3l1.58,1.59l-0.02,16.01
	l-1.47,1.52h-3.4v1.14h15.46v-1.14h-3.4l-1.47-1.52V58.2l1.57-1.59h3.3v-1.14H52.5V56.61z M57.48,56.61h5.47l-1.05,1.08V74.7
	l0.98,1.04h-5.29l0.9-1.04V57.69L57.48,56.61z M134.53,71.97c1.83-1.32,2.21-3.89,2.21-5.97c0-1.44-0.32-4.03-2.4-5.65
	c0.16,0.36,0.27,1.13,0.34,1.57c1.36,3.54,0.75,6.12-0.03,8.47C134.65,71.03,134.6,71.43,134.53,71.97z M117.99,74.62h1.07V57.69
	h-1.07V74.62z M110.83,56.61h3.3l1.52,1.59v16.1l-1.42,1.43h-3.4v1.14h16.39c5.76,0,11.9-2.63,11.9-10.67
	c0-7.79-6.24-10.73-12.93-10.73h-15.36V56.61z M115.7,56.61h5.6l-1.04,1.11v17.06l0.94,0.95h-5.3l0.9-0.95V57.75L115.7,56.61z
	 M131.68,57.49c1.25,0.13,3.61,1.73,4.37,2.77c1.19,1.62,1.89,3.31,1.89,5.35v1.17c0,4.35-2.5,6.77-5.95,8.26
	c1.67-2.51,1.74-5.91,1.74-8.81C133.74,63.07,133.39,60.05,131.68,57.49z M127.28,75.73h-4.4l-1.45-1.49v-16l1.48-1.63h3.7
	c5.47,0,5.97,5.1,5.97,9.53c0,2.4,0.08,4.7-0.85,6.95C130.83,75.22,129.39,75.73,127.28,75.73z M82.4,57.69L96.24,74.7h1.48
	L83.86,57.69H82.4z M73.05,56.61h5.56L78.92,57v15.14l-2.86,3.6h-3.01v1.14h13.02v-1.14h-3.11l-2.86-3.65V58.33l15.2,18.54h4.76
	v-16.8l2.77-3.47h2.91v-1.14H93.41v1.14h2.8l2.69,3.52v12.46L84.95,55.47h-11.9V56.61z M80.23,56.61h4.14l14.52,17.86v1.27h-3.08
	L80.23,56.61z M97.73,56.61h3.6l-1.83,2.34L97.73,56.61z M79.48,73.27l1.99,2.47h-3.91L79.48,73.27z M179.88,55.47h-2.54
	l-9.27,16.31c-0.91,1.38-1.88,2.88-3.13,3.74c-0.43,0.3-1.04,0.21-1.67,0.21v1.14h9.13l-0.02-1.14h-2.07l-1.34-3.1l1.31-2.21h10.65
	l1.87,4.34l-0.65,0.97h-3.59v1.14h14.1v-1.14h-2.34l-1.78-1.27L179.88,55.47z M185.18,74.9l1.23,0.02l-7.87-17.23l-0.68,1.27
	L185.18,74.9z M178.17,56.52h0.89l8.52,18.67l0.74,0.54h-4.68l0.55-0.8l-7.1-15.48h-0.63L178.17,56.52z M175.66,60.62h0.76l4.05,8.8
	h-9.72L175.66,60.62z M168.18,73.96l0.81,1.77h-2.34L168.18,73.96z M213.56,89.66l13.94,17.01h1.48l-13.95-17.01H213.56z
	 M204.41,88.72h5.49l0.31,0.25v15.14l-2.8,3.6h-3.01v1.14h12.82v-1.14h-3.11l-2.72-3.6V90.3l15.17,18.54h4.76v-16.8l2.77-3.33H237
	v-1.17h-12.33v1.17h2.8l2.69,3.39v12.46l-14.04-17.02h-11.7v1.18H204.41z M211.63,88.72h3.9l14.62,17.72v1.27h-2.98L211.63,88.72z
	 M228.99,88.72h3.6l-1.83,2.2L228.99,88.72z M210.84,105.24l1.79,2.47h-3.7L210.84,105.24z M162.86,102.15
	c-0.04,0.58-0.09,1.17-0.27,1.79c1.67-0.33,2.21-4.45,2.21-5.88s-0.75-5.25-2.41-5.81c0.16,0.36,0.32,1.53,0.39,1.97
	c0.43,0.92,0.77,2.25,0.78,3.89C163.58,99.76,163.32,100.94,162.86,102.15z M146.04,106.6h1.07V89.66h-1.07V106.6z M138.89,88.72
	h3.2l1.63,1.45v16.1l-1.42,1.43h-3.4v1.14h16.39c5.76,0,11.9-3.17,11.9-10.74s-6.24-10.57-12.93-10.57H138.9L138.89,88.72
	L138.89,88.72z M143.76,88.72h5.6l-1.04,0.97v17.06l0.94,0.95h-5.3l0.9-0.95V89.73L143.76,88.72z M159.82,89.62
	c3.92,1.09,6.18,4.53,6.18,8.49c0,3.95-1.45,6.82-5.82,8.7c1.67-2.51,1.74-5.66,1.74-8.7S161.53,92.19,159.82,89.62z M155.33,107.71
	h-4.4l-1.45-1.49V90.21l1.53-1.49h3.64c5.47,0,6.1,5.98,6.1,9.39s-0.05,4.7-0.98,6.95C158.89,107.19,157.45,107.71,155.33,107.71z
	 M88.75,87.55H86.3l-9.37,16.2c-0.91,1.38-1.88,2.88-3.12,3.74c-0.43,0.3-1.04,0.21-1.67,0.21v1.14h9.13l-0.02-1.14h-2.07l-1.34-3.1
	l1.31-2.21H89.8l1.87,4.34l-0.65,0.97h-3.59v1.14h14.1v-1.14h-2.34l-1.78-1.27L88.75,87.55z M94.05,106.87l1.26-0.01L87.5,89.74
	l-0.76,1.18L94.05,106.87z M87.04,88.72h0.98l8.44,18.45l0.74,0.54h-4.68l0.55-0.8l-7.1-15.48h-0.64L87.04,88.72z M84.64,92.59h0.64
	l4.05,8.8h-9.7L84.64,92.59z M77.04,105.93l0.81,1.77h-2.34L77.04,105.93z M196.65,103.5v4.2h-3.4L196.65,103.5z M189.69,94.88v5.1
	l-2.24-2.65L189.69,94.88z M193.84,88.72h2.56l0.16,3.81L193.84,88.72z M177.57,88.72h5.14l-0.88,0.96v16.96l0.83,1.07h-5.1
	l0.92-1.07V89.68L177.57,88.72z M172.4,88.72h3.5l1.47,1.49v15.94l-1.31,1.55h-3.66v1.14h25.37v-7.97h-0.47l-5.63,6.82h-7.58
	l-1.07-1.43v-8.25h3.37l3.84,4.51h0.59V92.35h-0.59l-3.84,4.5h-3.37v-6.63l1.24-1.49h8.12l4.8,6.85h0.64l-0.3-8.03h-25.1v1.17H172.4
	z M179.65,106.64h1.18V89.68h-1.18V106.64z M125.81,107.71c-0.77-2.46-1.49-5.67-2.29-7.37c0.91,0.54,2.4,0.57,3.65,0.63l1.88,6.74
	C129.05,107.71,125.81,107.71,125.81,107.71z M116.81,88.72h6.06c1.79,0,3.43,2.11,3.43,4.04c0,2.79-2.31,4.31-4.91,4.31h-5.71
	v-6.83L116.81,88.72z M125.98,89.06c1.91,0.16,5.13,1.35,5.31,3.62c0.2,2.5-3.49,3.02-4.78,3.29c0.61-1.04,0.94-1.65,0.94-3.28
	C127.46,90.8,126.77,90.31,125.98,89.06z M110.01,88.72h5.28l-0.75,1.05v16.88l0.77,1.05h-5.14l0.96-1.05V89.77L110.01,88.72z
	 M105.06,88.72h3.4l1.49,1.49l-0.02,16.01l-1.47,1.48h-3.4v1.18h15.27l0.1-1.18h-3.61l-1.14-1.39v-8.1c3.68,0,5.26-0.63,6.97,2.97
	c0.82,1.73,1.79,5.77,2.25,7.7h8.84v-1.18h-2.94c-1.12-0.02-2.41-6.39-2.66-7.81c-1.72-0.03-4.39-0.05-5.43-1.61l0.77-0.83
	c2.97-0.32,9.2-0.71,8.95-5.02c-0.23-3.87-6.41-4.89-10.09-4.89h-17.28V88.72z M61.6,99.69h5.35l-0.99,1v5.48l-3.87,0.7l0.35-0.7
	v-5.46L61.6,99.69z M65.6,89.55v2.79l-2.01-2.44C64.27,90.05,65.19,89.91,65.6,89.55z M48.58,107.22c-2.32-0.58-4.46-2.34-5.6-4.57
	c-0.64-1.25-0.88-2.22-0.88-4.04s0.5-3.94,2.25-6c1.09-1.29,2.72-2.52,4.59-3.27c-2,2.58-2.75,6.6-2.73,9.27
	C46.23,101.28,46.02,103.91,48.58,107.22z M67.47,107.32c-0.2-0.55-0.37-1.28-0.37-1.86v-4.28l1.47-1.49h3.35v-1.18H56.61v1.18h3.5
	l1.2,1.49v4.67c-0.54,1.5-3.17,2.65-6.2,2.73c-1.84,0.05-3.83-0.34-5.23-1.73c-2.05-2.04-2.55-4.41-2.55-8.24
	c0-3.83,1.33-10.58,8.4-10.67c2.74-0.04,4.7,0.99,6.75,2.69c1.64,1.35,2.79,3.36,3.7,5.24h0.6V87.2h-0.64
	c-0.46,0.5-0.78,1.77-2.87,1.55c-0.57-0.04-2.89-0.97-3.75-1.18c-2.98-0.72-5.97-0.72-8.95,0.02c-4.82,1.19-9.71,5.31-9.65,11.03
	s3.57,8.96,9.01,10.3c1.89,0.47,3.52,0.55,5.01,0.53C59.59,109.4,62.61,107.3,67.47,107.32z M112.27,106.66h1.04l0.07-16.88h-1.08
	L112.27,106.66z M43.23,98.61c0,1.79,0.99,4.85,2.4,5.43c-0.16-0.59-0.31-1.3-0.33-1.88c-0.36-1.32-0.89-2.2-0.89-3.54
	c0-1.34,0.52-2.67,0.99-3.82c0.12-0.95,0.37-1.64,0.55-2.08C44.31,94.09,43.23,96.82,43.23,98.61z M126.52,106.63h1.16l-1.3-4.68
	c-0.42-0.03-0.78-0.11-1.22-0.1L126.52,106.63z M63.65,105.29l1.08-0.18v-4.34h-1.08V105.29z M128.44,90.99
	c0.13,0.38,0.22,0.74,0.22,1.23l0.36,0.41l-0.37,0.33c0.02,0.35,0.02,0.7-0.06,1.13c0.62-0.11,1.43-0.66,1.43-1.39
	C130.02,91.73,129.18,91.36,128.44,90.99z"/>
<path class="st2" d="M98.55,30.34c-0.33,0.05-0.65,0.12-0.97,0.22c-0.7,0.21-1.34,0.52-1.92,0.97c-0.6,0.46-1.27,1.03-1.72,1.64
	c-0.14,0.19-0.35,0.53-0.35,0.77c0,0.1,0.01,0.12,0.08,0.18c0.16,0.14,0.4,0.17,0.61,0.17c0.62,0,1.18-0.23,1.69-0.57
	c0.77-0.52,1.4-1.28,1.9-2.05c0.17-0.26,0.32-0.56,0.44-0.84C98.39,30.66,98.47,30.49,98.55,30.34 M102.15,30.74
	c0.09-0.11,0.19-0.22,0.28-0.33c-0.13-0.02-0.27-0.04-0.4-0.06C102.09,30.47,102.13,30.6,102.15,30.74z M97.02,37.64
	c-0.9,0.4-1.86,0.61-2.86,0.61c-1.27,0-2.45-0.39-3.37-1.29c-0.92-0.9-1.33-2.08-1.33-3.36c0-2.35,1.21-4.17,3.15-5.44
	c2.13-1.39,4.7-1.84,7.2-1.84c1.84,0,3.84,0.29,5.65,0.57l0.18,0.03c0.38,0.07,0.77,0.12,1.15,0.18c0.79,0.12,1.58,0.24,2.38,0.33
	c0.36,0.04,0.78,0.1,1.13,0.1c0.46,0,0.92-0.08,1.36-0.2c0.22-0.06,0.45-0.11,0.68-0.11c0.43,0,0.85,0.14,1.2,0.41
	c0.45,0.35,0.73,0.88,0.73,1.45c0,1.17-0.92,1.84-1.9,2.23c-0.81,0.32-1.68,0.45-2.55,0.45c-0.4,0-0.79-0.03-1.19-0.07
	c-0.39-0.05-0.8-0.11-1.2-0.21c-0.17-0.04-0.34-0.08-0.51-0.12c-0.23,0.34-0.49,0.65-0.68,0.91c-0.57,0.77-1.11,1.57-1.61,2.4
	c-0.24,0.39-0.47,0.78-0.71,1.17c-1.63,2.71-3.88,6.29-6.28,8.38c-1.05,0.92-2.22,1.7-3.51,2.25c-1.2,0.51-2.47,0.8-3.78,0.8
	c-1.32,0-2.63-0.29-3.69-1.1C85.58,45.35,85,44.19,85,42.84c0-0.84,0.26-1.64,0.82-2.27c0.59-0.67,1.39-1.01,2.28-1.01
	c0.73,0,1.42,0.26,1.91,0.75c0.54,0.52,0.81,1.2,0.81,1.95c0,0.35-0.06,0.68-0.19,0.99c1.03-0.22,2.07-0.99,2.8-1.63
	C94.68,40.5,95.9,39.08,97.02,37.64z M142.04,39.77h-0.07l-0.14,0.17l0.04-0.03C141.93,39.86,141.98,39.82,142.04,39.77z
	 M148.84,38.56c0.06,0.09,0.11,0.2,0.15,0.3c0.13-0.08,0.26-0.16,0.4-0.24C149.2,38.63,149.02,38.6,148.84,38.56z M147.04,36.79
	l-0.74,0.77c0.39,0,0.79,0.03,1.14,0.11h0.01C147.25,37.41,147.11,37.11,147.04,36.79z M146.97,36.02c0.04-0.62,0.31-1.19,0.78-1.61
	c0.48-0.43,1.08-0.63,1.72-0.63s1.25,0.2,1.73,0.63c0.51,0.46,0.78,1.09,0.78,1.78c0,0.59-0.2,1.15-0.58,1.59
	c0.48-0.13,0.98-0.22,1.48-0.22c0.75,0,1.47,0.22,2.04,0.72c0.39,0.34,0.66,0.77,0.81,1.25c0.54-0.46,1.13-0.92,1.74-1.27
	c0.63-0.37,1.34-0.65,2.09-0.65c0.62,0,1.21,0.22,1.65,0.63c0.07-0.03,0.13-0.07,0.2-0.1c0.6-0.29,1.26-0.51,1.93-0.51
	c0.68,0,1.31,0.24,1.79,0.73c0.34,0.35,0.56,0.79,0.64,1.26c0.19-0.17,0.39-0.33,0.6-0.48c0.59-0.44,1.24-0.82,1.92-1.1
	c0.63-0.26,1.31-0.43,2-0.43c0.65,0,1.29,0.12,1.82,0.53c0.42,0.33,0.67,0.76,0.79,1.25c0.62-0.48,1.25-0.95,1.88-1.42l6.84-7.67
	c0.24-0.27,0.51-0.5,0.83-0.65c0.31-0.15,0.66-0.22,1-0.22c0.41,0,0.82,0.06,1.19,0.22c0.73,0.31,1.24,0.96,1.24,1.77
	c0,0.34-0.08,0.67-0.24,0.96l-0.01,0.02l-0.01,0.02c-0.11,0.19-0.25,0.35-0.4,0.51l-6.11,7.14c0.87-0.73,1.8-1.42,2.72-2.1
	l6.84-7.68c0.24-0.27,0.51-0.5,0.83-0.65c0.31-0.15,0.66-0.22,1-0.22c0.41,0,0.82,0.06,1.19,0.22c0.73,0.31,1.24,0.96,1.24,1.77
	c0,0.34-0.08,0.66-0.24,0.96l-0.01,0.03l-0.02,0.03c-0.11,0.18-0.25,0.35-0.39,0.5l-6.39,7.46c0.3-0.19,0.64-0.33,1.02-0.33
	c0.5,0,0.97,0.19,1.33,0.54l0.03,0.03l0.03,0.03c0.27,0.31,0.43,0.68,0.47,1.09l0.01,0.09v0.09c0,1.11-1.16,1.94-1.94,2.57
	l-0.06,0.05c-0.85,0.68-1.77,1.32-2.75,1.81c-0.81,0.41-1.74,0.77-2.66,0.77c-0.75,0-1.45-0.23-2-0.76
	c-0.31-0.3-0.53-0.66-0.67-1.06c-0.55,0.39-1.13,0.74-1.73,1.05c-0.81,0.41-1.74,0.77-2.66,0.77c-0.75,0-1.45-0.23-2-0.76
	c-0.29-0.28-0.5-0.6-0.63-0.96c-0.54,0.38-1.1,0.72-1.7,1.01c-0.86,0.41-1.8,0.71-2.75,0.71c-0.96,0-1.85-0.32-2.53-1.02
	c-0.12-0.12-0.23-0.25-0.33-0.39c-0.35,0.22-0.72,0.43-1.09,0.62c-0.77,0.39-1.69,0.79-2.57,0.79c-0.73,0-1.41-0.23-1.96-0.71
	c-0.29-0.25-0.5-0.56-0.65-0.89c-0.33,0.33-0.65,0.66-0.96,0.99l-0.28,0.29l-0.38,0.13c-0.21,0.07-0.42,0.11-0.64,0.14
	c-0.24,0.03-0.49,0.03-0.73,0.03c-0.32,0-0.65-0.01-0.96-0.09c-0.81-0.22-1.38-0.9-1.38-1.74c0-0.16,0.02-0.31,0.07-0.46
	c-0.54,0.46-1.11,0.88-1.7,1.25c-0.89,0.55-1.93,1.03-3,1.03c-0.81,0-1.56-0.26-2.14-0.83c-0.05-0.05-0.09-0.1-0.14-0.15
	c-0.19,0.11-0.38,0.21-0.58,0.3c-0.78,0.39-1.68,0.72-2.57,0.72c-0.72,0-1.39-0.22-1.94-0.69c-0.19-0.17-0.35-0.35-0.48-0.55
	c-0.31,0.19-0.62,0.36-0.94,0.52c-0.81,0.4-1.72,0.73-2.64,0.73c-0.74,0-1.45-0.23-1.99-0.75c-0.28-0.27-0.49-0.58-0.62-0.92
	c-0.51,0.35-1.04,0.67-1.59,0.94c-0.78,0.39-1.68,0.72-2.57,0.72c-0.72,0-1.4-0.22-1.94-0.69c-0.19-0.16-0.34-0.34-0.47-0.54
	c-0.29,0.17-0.58,0.34-0.88,0.49c-0.81,0.41-1.74,0.77-2.66,0.77c-0.62,0-1.21-0.16-1.71-0.51c-0.55,0.3-1.16,0.51-1.79,0.51
	c-0.84,0-1.6-0.36-2.1-1.04c-0.02-0.03-0.04-0.06-0.06-0.09c-0.21,0.12-0.42,0.23-0.63,0.34c-0.81,0.41-1.75,0.76-2.67,0.76
	c-0.61,0-1.2-0.16-1.69-0.5c-0.56,0.31-1.17,0.52-1.81,0.52c-0.84,0-1.6-0.36-2.1-1.04c-0.14-0.19-0.25-0.39-0.34-0.6
	c-0.06,0-0.11,0-0.17,0c-0.78,0-1.51-0.25-2.06-0.8c-0.46,0.53-0.91,1.08-1.33,1.64l-0.39,0.56l-0.68,0.11
	c-0.22,0.03-0.44,0.06-0.66,0.08c-0.21,0.02-0.41,0.03-0.62,0.03c-0.32,0-0.63-0.04-0.93-0.15c-0.72-0.27-1.22-0.9-1.22-1.68
	c0-0.67,0.4-1.22,0.82-1.69c-0.06-0.04-0.11-0.09-0.16-0.13l-0.03-0.02l-0.03-0.03c-0.36-0.36-0.56-0.84-0.56-1.34
	c0-0.61,0.29-1.09,0.7-1.52c0.3-0.31,0.65-0.61,0.98-0.89c0.62-0.53,1.29-1.01,2.01-1.4c0.62-0.33,1.33-0.65,2.05-0.65
	c0.58,0,1.13,0.19,1.56,0.57c0.08-0.04,0.16-0.07,0.25-0.09c0.16-0.05,0.31-0.08,0.48-0.1l0.1-0.01h0.11c0.37,0,0.73,0.04,1.08,0.16
	c0.62,0.21,1.12,0.63,1.3,1.24c0.56-0.42,1.16-0.78,1.8-1.07c0.85-0.39,1.79-0.68,2.73-0.68c0.41,0,0.82,0.06,1.2,0.21l0.2-0.12
	h0.46c0.05,0,0.1,0,0.16-0.01c0.12-0.01,0.25-0.02,0.37-0.02c0.4,0,0.8,0.03,1.13,0.15c0.62,0.21,1.08,0.7,1.24,1.3
	c0.47-0.32,0.97-0.61,1.49-0.85c0.84-0.39,1.77-0.68,2.7-0.68c0.27,0,0.55,0.03,0.81,0.09l5.99-7.37c0.21-0.26,0.47-0.48,0.77-0.64
	c0.34-0.18,0.72-0.25,1.1-0.25c0.41,0,0.81,0.05,1.2,0.19c0.77,0.29,1.32,0.94,1.32,1.79c0,0.31-0.07,0.62-0.2,0.89
	c-0.11,0.23-0.26,0.43-0.44,0.62l-4.77,5.65c0.16-0.1,0.31-0.2,0.47-0.29c0.62-0.37,1.35-0.73,2.08-0.73c0.4,0,0.82,0.02,1.17,0.11
	h0.01c-0.32-0.42-0.49-0.94-0.49-1.48c0-0.69,0.27-1.32,0.78-1.78c0.48-0.43,1.08-0.63,1.72-0.63s1.25,0.2,1.73,0.63
	c0.46,0.41,0.73,0.97,0.78,1.58l1.65-2.07l0.01-0.02c0.23-0.28,0.52-0.51,0.85-0.66c0.33-0.16,0.7-0.23,1.06-0.23
	c0.44,0,0.88,0.07,1.28,0.24l0.03,0.01c0.71,0.33,1.21,0.97,1.21,1.78c0,0.23-0.04,0.46-0.11,0.68c-0.03,0.1-0.07,0.19-0.12,0.28
	L146.97,36.02L146.97,36.02z"/>
<path class="st3" d="M181.89,40.59c-0.5,0.37-1.03,0.79-1.59,1.26c-0.55,0.48-0.87,0.71-0.95,0.71c-0.05,0-0.08-0.02-0.1-0.05
	c-0.02-0.04-0.04-0.09-0.04-0.16c0-0.12,0.29-0.43,0.87-0.92c0.58-0.49,1.54-1.23,2.88-2.22l6.97-7.82c0.1-0.11,0.19-0.19,0.27-0.23
	c0.08-0.04,0.18-0.06,0.3-0.06c0.22,0,0.41,0.03,0.55,0.09s0.21,0.13,0.21,0.23c0,0.06-0.01,0.12-0.04,0.17
	c-0.03,0.05-0.09,0.12-0.18,0.21l-8.06,9.41c-0.58,0.68-1.03,1.29-1.34,1.83s-0.46,0.96-0.46,1.28c0,0.19,0.04,0.33,0.1,0.42
	c0.07,0.08,0.18,0.13,0.34,0.13c0.36,0,0.78-0.11,1.28-0.35c0.5-0.23,1.11-0.6,1.82-1.1c0.46-0.32,0.92-0.69,1.4-1.09
	c0.47-0.4,0.73-0.6,0.79-0.6s0.11,0.02,0.14,0.05c0.03,0.04,0.05,0.09,0.06,0.16c0,0.14-0.44,0.56-1.31,1.26l-0.06,0.05
	c-0.86,0.69-1.68,1.23-2.46,1.62c-0.78,0.39-1.42,0.59-1.91,0.59c-0.36,0-0.63-0.1-0.84-0.29c-0.2-0.19-0.3-0.46-0.3-0.8
	c0-0.45,0.13-0.98,0.41-1.6C180.9,42.17,181.32,41.44,181.89,40.59 M174.83,40.59c-0.5,0.37-1.03,0.79-1.59,1.26
	c-0.55,0.48-0.87,0.71-0.95,0.71c-0.05,0-0.08-0.02-0.1-0.05c-0.02-0.04-0.04-0.09-0.04-0.16c0-0.12,0.29-0.43,0.87-0.92
	c0.58-0.49,1.54-1.23,2.88-2.22l6.97-7.82c0.1-0.11,0.19-0.19,0.27-0.23c0.08-0.04,0.18-0.06,0.3-0.06c0.22,0,0.41,0.03,0.55,0.09
	s0.21,0.13,0.21,0.23c0,0.06-0.01,0.12-0.04,0.17c-0.03,0.05-0.09,0.12-0.18,0.21l-8.06,9.41c-0.58,0.68-1.03,1.29-1.34,1.83
	s-0.46,0.96-0.46,1.28c0,0.19,0.04,0.33,0.1,0.42c0.07,0.08,0.18,0.13,0.34,0.13c0.36,0,0.78-0.11,1.28-0.35
	c0.5-0.23,1.11-0.6,1.82-1.1c0.46-0.32,0.92-0.69,1.4-1.09c0.47-0.4,0.73-0.6,0.79-0.6s0.11,0.02,0.14,0.05
	c0.03,0.04,0.05,0.09,0.06,0.16c0,0.14-0.44,0.56-1.31,1.26l-0.06,0.05c-0.86,0.69-1.68,1.23-2.46,1.62
	c-0.78,0.39-1.41,0.59-1.91,0.59c-0.36,0-0.63-0.1-0.84-0.29c-0.2-0.19-0.3-0.46-0.3-0.8c0-0.45,0.13-0.98,0.41-1.6
	C173.84,42.17,174.26,41.44,174.83,40.59z M167.06,42.62c1.05-0.22,1.93-0.57,2.64-1.05s1.07-0.93,1.07-1.35
	c0-0.15-0.03-0.25-0.08-0.32c-0.05-0.06-0.15-0.09-0.28-0.09c-0.39,0-0.86,0.24-1.43,0.72C168.41,41.01,167.77,41.7,167.06,42.62z
	 M166.72,43.31c-0.07,0.15-0.12,0.29-0.16,0.43c-0.04,0.14-0.05,0.26-0.05,0.37c0,0.25,0.08,0.44,0.24,0.58s0.38,0.21,0.66,0.21
	c0.49,0,1.09-0.18,1.79-0.54c0.71-0.36,1.46-0.87,2.27-1.53c0.21-0.18,0.46-0.4,0.76-0.68c0.3-0.28,0.49-0.41,0.55-0.41
	s0.11,0.02,0.14,0.05c0.03,0.04,0.05,0.09,0.06,0.15c0,0.09-0.1,0.23-0.31,0.45c-0.21,0.21-0.57,0.54-1.09,0.98
	c-0.77,0.66-1.55,1.17-2.32,1.54c-0.78,0.37-1.45,0.55-2.03,0.55c-0.55,0-1-0.17-1.33-0.51s-0.5-0.8-0.5-1.4
	c0-0.53,0.17-1.05,0.5-1.57s0.82-1.02,1.45-1.49c0.56-0.4,1.08-0.71,1.57-0.91s0.94-0.3,1.36-0.3c0.37,0,0.63,0.06,0.79,0.18
	c0.15,0.12,0.23,0.33,0.23,0.62c0,0.6-0.44,1.22-1.32,1.86C169.1,42.59,168.01,43.05,166.72,43.31z M155.92,45.38
	c-0.07,0.02-0.16,0.04-0.27,0.05c-0.11,0.01-0.29,0.02-0.55,0.02c-0.26,0-0.44-0.01-0.53-0.04c-0.09-0.02-0.13-0.06-0.13-0.13
	c0-0.14,0.34-0.52,1.02-1.15c0.46-0.43,0.83-0.78,1.11-1.07l0.28-0.25c1.57-1.52,2.35-2.39,2.35-2.61
	c-0.01-0.07-0.02-0.12-0.05-0.15c-0.02-0.03-0.05-0.05-0.08-0.05c-0.22,0-0.5,0.1-0.83,0.31c-0.34,0.21-0.81,0.58-1.42,1.11
	c-0.15,0.13-0.34,0.3-0.56,0.5c-0.29,0.27-0.48,0.41-0.57,0.41c-0.06,0-0.1-0.02-0.15-0.06c-0.04-0.04-0.06-0.09-0.06-0.14
	c0-0.11,0.27-0.41,0.82-0.9c0.12-0.1,0.21-0.18,0.27-0.25c0.65-0.57,1.22-1,1.71-1.28c0.49-0.28,0.9-0.42,1.24-0.42
	c0.25,0,0.44,0.08,0.57,0.25c0.14,0.16,0.2,0.41,0.2,0.73c0,0.06,0,0.12-0.01,0.2c-0.01,0.08-0.02,0.19-0.03,0.34
	c0.76-0.54,1.38-0.92,1.86-1.15c0.47-0.23,0.88-0.34,1.21-0.34c0.25,0,0.44,0.08,0.59,0.22c0.14,0.15,0.21,0.35,0.21,0.6
	c0,0.28-0.1,0.57-0.29,0.86c-0.19,0.29-0.59,0.73-1.22,1.32c-0.16,0.15-0.4,0.37-0.7,0.65c-0.94,0.88-1.42,1.42-1.42,1.6
	c0,0.08,0.04,0.15,0.1,0.21c0.07,0.05,0.16,0.08,0.28,0.08c0.34,0,0.84-0.16,1.49-0.49c0.65-0.33,1.35-0.78,2.1-1.34
	c0.32-0.23,0.65-0.5,1.01-0.81c0.36-0.31,0.57-0.46,0.64-0.46c0.06,0,0.1,0.02,0.13,0.05c0.03,0.04,0.05,0.09,0.06,0.16
	c0,0.14-0.43,0.56-1.29,1.25l-0.06,0.05c-0.85,0.67-1.67,1.21-2.46,1.62c-0.79,0.4-1.39,0.6-1.81,0.6c-0.35,0-0.63-0.1-0.85-0.29
	c-0.22-0.19-0.32-0.45-0.32-0.76c0-0.37,0.14-0.78,0.42-1.22s0.69-0.89,1.22-1.34c0.17-0.15,0.4-0.34,0.7-0.59
	c0.72-0.6,1.08-0.96,1.08-1.07c0-0.06-0.03-0.1-0.08-0.14s-0.12-0.06-0.19-0.06c-0.44,0-1.3,0.5-2.58,1.5
	C158.82,42.51,157.42,43.8,155.92,45.38z M153,42.41c-1,0.98-1.91,1.73-2.74,2.24c-0.83,0.52-1.53,0.77-2.11,0.77
	c-0.4,0-0.72-0.11-0.96-0.35c-0.23-0.23-0.35-0.54-0.35-0.93c0-0.54,0.22-1.12,0.65-1.72c0.44-0.61,1.06-1.21,1.87-1.78
	c0.6-0.44,1.22-0.78,1.85-1.02c0.63-0.25,1.19-0.37,1.66-0.37c0.39,0,0.7,0.1,0.94,0.31c0.23,0.21,0.35,0.48,0.35,0.81
	c0,0.23-0.07,0.48-0.2,0.76c-0.14,0.28-0.34,0.58-0.61,0.91c0.08,0.18,0.2,0.31,0.35,0.4c0.15,0.08,0.33,0.13,0.53,0.13
	c0.3,0,0.64-0.13,1.02-0.4c0.39-0.27,0.63-0.4,0.72-0.4c0.05,0,0.08,0.02,0.1,0.05c0.02,0.03,0.04,0.08,0.04,0.14
	c0,0.15-0.22,0.38-0.66,0.67s-0.85,0.43-1.22,0.43c-0.25,0-0.47-0.05-0.67-0.15C153.36,42.78,153.18,42.62,153,42.41z M147.88,44.47
	c0,0.14,0.04,0.24,0.1,0.3c0.07,0.06,0.18,0.09,0.32,0.09c0.34,0,0.79-0.16,1.35-0.48c0.55-0.32,1.2-0.78,1.94-1.41
	c0.63-0.54,1.13-1.05,1.48-1.51c0.36-0.47,0.54-0.84,0.54-1.12c0-0.15-0.04-0.26-0.13-0.35c-0.09-0.08-0.21-0.13-0.36-0.13
	c-0.26,0-0.62,0.13-1.08,0.38c-0.46,0.25-0.94,0.59-1.44,1.03c-0.83,0.7-1.49,1.35-1.98,1.93
	C148.13,43.78,147.88,44.21,147.88,44.47z M143.95,41.09c-0.43,0.25-0.87,0.54-1.3,0.88c-0.44,0.34-0.69,0.5-0.76,0.5
	c-0.05,0-0.09-0.02-0.12-0.05c-0.03-0.03-0.04-0.07-0.04-0.11c0-0.12,0.14-0.29,0.42-0.51l0.01-0.01l0.72-0.55
	c0.88-0.67,1.59-1.17,2.15-1.5c0.55-0.33,0.97-0.5,1.23-0.5c0.35,0,0.63,0.02,0.84,0.07c0.21,0.04,0.32,0.11,0.32,0.18
	c0,0.06-0.32,0.35-0.95,0.88c-0.63,0.53-1.22,1.06-1.76,1.6c-0.69,0.67-1.2,1.23-1.55,1.67c-0.34,0.44-0.52,0.76-0.52,0.94
	c0,0.1,0.03,0.18,0.09,0.23c0.06,0.06,0.15,0.08,0.26,0.08c0.32,0,0.81-0.16,1.45-0.49c0.64-0.33,1.32-0.77,2.05-1.33
	c0.29-0.21,0.6-0.46,0.95-0.75c0.34-0.29,0.54-0.44,0.59-0.44s0.09,0.02,0.12,0.06c0.04,0.04,0.05,0.08,0.05,0.13
	c0,0.15-0.36,0.52-1.1,1.11l-0.25,0.21c-0.79,0.64-1.56,1.15-2.3,1.52c-0.75,0.37-1.36,0.55-1.83,0.55c-0.34,0-0.62-0.09-0.83-0.28
	c-0.21-0.19-0.32-0.43-0.32-0.72c0-0.4,0.2-0.87,0.59-1.43C142.56,42.48,143.15,41.83,143.95,41.09z M148.64,36.19
	c0-0.22,0.08-0.4,0.23-0.53c0.15-0.13,0.35-0.2,0.6-0.2s0.46,0.07,0.61,0.2c0.15,0.13,0.23,0.31,0.23,0.53
	c0,0.23-0.08,0.42-0.23,0.55c-0.15,0.14-0.36,0.21-0.6,0.21c-0.26,0-0.46-0.07-0.61-0.21C148.72,36.61,148.64,36.42,148.64,36.19z
	 M137.49,40.6c-0.48,0.36-1,0.78-1.56,1.26s-0.89,0.71-0.98,0.71c-0.04,0-0.07-0.02-0.1-0.06c-0.03-0.04-0.04-0.09-0.04-0.15
	c0-0.18,0.94-0.99,2.83-2.43l0.92-0.71l1.02-1.13h-2.04l0.38-0.4h2.07l2.16-2.71c0.08-0.1,0.17-0.17,0.27-0.22
	c0.1-0.05,0.21-0.07,0.35-0.07c0.26,0,0.46,0.04,0.61,0.1c0.15,0.07,0.23,0.15,0.23,0.26c0,0.06-0.01,0.1-0.02,0.15
	c-0.02,0.05-0.05,0.1-0.09,0.16l-2,2.32h2.36l-0.38,0.4h-2.28l-2.72,3.12c-0.63,0.73-1.11,1.34-1.41,1.85
	c-0.3,0.5-0.45,0.92-0.45,1.26c0,0.18,0.03,0.31,0.1,0.4c0.06,0.08,0.17,0.13,0.31,0.13c0.38,0,0.9-0.16,1.54-0.49
	c0.64-0.32,1.36-0.79,2.15-1.39c0.3-0.22,0.61-0.48,0.94-0.78c0.33-0.3,0.54-0.45,0.61-0.45c0.06,0,0.1,0.02,0.13,0.06
	c0.04,0.04,0.05,0.09,0.05,0.15c0,0.1-0.08,0.22-0.25,0.39c-0.16,0.17-0.55,0.5-1.19,0.99c-0.86,0.69-1.66,1.22-2.4,1.59
	c-0.75,0.37-1.38,0.55-1.89,0.55c-0.36,0-0.64-0.1-0.84-0.29c-0.21-0.19-0.31-0.46-0.31-0.8c0-0.51,0.15-1.07,0.45-1.67
	C136.34,42.1,136.82,41.4,137.49,40.6z M131.18,41.09c-0.43,0.25-0.87,0.54-1.3,0.88c-0.44,0.34-0.69,0.5-0.76,0.5
	c-0.05,0-0.09-0.02-0.12-0.05c-0.03-0.03-0.04-0.07-0.04-0.11c0-0.12,0.14-0.29,0.42-0.51l0.01-0.01l0.72-0.55
	c0.88-0.67,1.59-1.17,2.15-1.5c0.55-0.33,0.97-0.5,1.23-0.5c0.35,0,0.63,0.02,0.84,0.07c0.21,0.04,0.32,0.11,0.32,0.18
	c0,0.06-0.32,0.35-0.95,0.88c-0.63,0.53-1.22,1.06-1.76,1.6c-0.69,0.67-1.2,1.23-1.55,1.67c-0.34,0.44-0.52,0.76-0.52,0.94
	c0,0.1,0.03,0.18,0.09,0.23c0.06,0.06,0.15,0.08,0.26,0.08c0.33,0,0.81-0.16,1.45-0.49c0.64-0.33,1.32-0.77,2.05-1.33
	c0.29-0.21,0.6-0.46,0.95-0.75c0.34-0.29,0.54-0.44,0.59-0.44c0.05,0,0.09,0.02,0.12,0.06c0.04,0.04,0.05,0.08,0.05,0.13
	c0,0.15-0.36,0.52-1.1,1.11l-0.25,0.21c-0.79,0.64-1.56,1.15-2.3,1.52c-0.75,0.37-1.36,0.55-1.83,0.55c-0.34,0-0.62-0.09-0.83-0.28
	c-0.21-0.19-0.32-0.43-0.32-0.72c0-0.4,0.2-0.87,0.59-1.43C129.79,42.48,130.38,41.83,131.18,41.09z M135.87,36.19
	c0-0.22,0.08-0.4,0.23-0.53c0.15-0.13,0.35-0.2,0.6-0.2s0.46,0.07,0.61,0.2c0.15,0.13,0.23,0.31,0.23,0.53
	c0,0.23-0.08,0.42-0.23,0.55c-0.15,0.14-0.36,0.21-0.6,0.21c-0.26,0-0.46-0.07-0.61-0.21C135.94,36.61,135.87,36.42,135.87,36.19z
	 M122.85,44.12c-0.46,0.46-0.89,0.8-1.29,1.03s-0.75,0.34-1.06,0.34c-0.33,0-0.58-0.12-0.76-0.36c-0.18-0.24-0.27-0.58-0.27-1.03
	c0-0.52,0.12-1.01,0.37-1.49c0.25-0.47,0.63-0.93,1.15-1.38c0.67-0.59,1.4-1.07,2.16-1.42c0.77-0.35,1.43-0.53,2-0.53
	c0.34,0,0.59,0.06,0.74,0.18s0.25,0.32,0.29,0.62l7.07-8.71c0.08-0.1,0.16-0.17,0.25-0.21c0.08-0.04,0.19-0.06,0.33-0.06
	c0.25,0,0.45,0.03,0.61,0.09s0.24,0.13,0.24,0.23c0,0.06-0.01,0.12-0.04,0.17c-0.02,0.05-0.08,0.12-0.17,0.22l-9.76,11.57
	c-0.24,0.27-0.42,0.51-0.54,0.71c-0.11,0.21-0.17,0.37-0.17,0.5c0,0.1,0.02,0.17,0.07,0.21c0.04,0.04,0.12,0.06,0.24,0.06
	c0.34,0,0.84-0.17,1.51-0.5c0.67-0.33,1.37-0.77,2.11-1.34c0.31-0.23,0.64-0.5,1-0.81c0.36-0.31,0.57-0.46,0.64-0.46
	c0.06,0,0.1,0.02,0.13,0.06c0.04,0.04,0.05,0.09,0.05,0.15c0,0.14-0.43,0.56-1.3,1.26l-0.06,0.05c-0.86,0.7-1.69,1.24-2.48,1.64
	c-0.79,0.4-1.42,0.59-1.91,0.59c-0.36,0-0.64-0.1-0.86-0.3c-0.21-0.2-0.32-0.48-0.32-0.82c0-0.07,0-0.12,0-0.16
	C122.84,44.19,122.84,44.15,122.85,44.12z M122.76,43.63l1.95-2.07c0.06-0.06,0.13-0.14,0.25-0.25c0.54-0.58,0.8-0.97,0.8-1.16
	c0-0.08-0.03-0.14-0.08-0.18c-0.06-0.05-0.13-0.07-0.22-0.07c-0.27,0-0.61,0.11-1.04,0.33c-0.43,0.22-0.87,0.52-1.32,0.9
	c-0.74,0.61-1.34,1.25-1.82,1.91c-0.48,0.67-0.72,1.15-0.72,1.46c0,0.11,0.03,0.2,0.1,0.26c0.06,0.07,0.15,0.1,0.25,0.1
	c0.21,0,0.48-0.11,0.82-0.33C122.06,44.33,122.4,44.02,122.76,43.63z M113.89,44.13c-0.47,0.46-0.9,0.8-1.29,1.03
	c-0.4,0.23-0.75,0.34-1.06,0.34c-0.32,0-0.58-0.12-0.76-0.36c-0.18-0.24-0.27-0.58-0.27-1.02c0-0.52,0.12-1.01,0.37-1.49
	c0.25-0.47,0.63-0.93,1.15-1.38c0.67-0.59,1.38-1.07,2.15-1.42c0.76-0.35,1.45-0.53,2.03-0.53c0.33,0,0.58,0.06,0.73,0.19
	c0.15,0.12,0.25,0.33,0.27,0.62c0.11-0.13,0.24-0.25,0.38-0.37c0.14-0.12,0.3-0.23,0.48-0.34c0.06,0,0.15,0,0.27-0.01
	c0.11-0.01,0.2-0.01,0.25-0.01c0.27,0,0.47,0.02,0.58,0.06s0.17,0.11,0.17,0.21c0,0.1-0.18,0.3-0.54,0.62
	c-0.19,0.17-0.35,0.31-0.46,0.4c-1.04,0.98-1.85,1.82-2.44,2.52c-0.59,0.69-0.88,1.16-0.88,1.41c0,0.1,0.02,0.17,0.06,0.21
	c0.04,0.04,0.12,0.06,0.24,0.06c0.34,0,0.84-0.16,1.51-0.49c0.67-0.33,1.37-0.78,2.11-1.34c0.31-0.23,0.64-0.5,1-0.81
	c0.36-0.31,0.57-0.46,0.64-0.46c0.06,0,0.1,0.02,0.13,0.06c0.04,0.04,0.05,0.09,0.05,0.15c0,0.14-0.43,0.56-1.3,1.26l-0.06,0.05
	c-0.86,0.69-1.68,1.23-2.47,1.62c-0.79,0.39-1.43,0.59-1.92,0.59c-0.36,0-0.64-0.1-0.86-0.3c-0.21-0.2-0.32-0.46-0.32-0.8
	c0-0.07,0-0.12,0-0.15C113.87,44.19,113.88,44.15,113.89,44.13z M113.79,43.63l2.68-2.84c0.1-0.11,0.18-0.22,0.24-0.33
	s0.09-0.21,0.09-0.31c0-0.08-0.03-0.14-0.08-0.18c-0.05-0.05-0.13-0.07-0.22-0.07c-0.27,0-0.61,0.11-1.04,0.33
	c-0.43,0.22-0.87,0.52-1.32,0.9c-0.73,0.61-1.34,1.25-1.82,1.91c-0.48,0.67-0.72,1.15-0.72,1.46c0,0.11,0.03,0.2,0.1,0.26
	c0.07,0.07,0.15,0.1,0.25,0.1c0.21,0,0.48-0.11,0.82-0.33C113.09,44.33,113.44,44.02,113.79,43.63z M109,39.75
	c0.02-0.02,0.05-0.04,0.12-0.06c0.06-0.02,0.12-0.03,0.19-0.04c0.21,0,0.4,0.02,0.55,0.08c0.15,0.05,0.23,0.11,0.23,0.17
	c0,0.03-0.07,0.12-0.21,0.27c-0.14,0.15-0.26,0.29-0.36,0.41c-0.29,0.37-0.5,0.73-0.65,1.08c-0.15,0.35-0.23,0.66-0.23,0.93
	c0,0.2,0.05,0.36,0.16,0.49c0.11,0.12,0.25,0.19,0.43,0.19c0.19,0,0.4-0.06,0.63-0.17c0.23-0.12,0.5-0.31,0.82-0.59
	c0.14-0.12,0.32-0.27,0.52-0.46c0.25-0.23,0.41-0.35,0.48-0.35c0.06,0,0.11,0.02,0.14,0.06c0.03,0.03,0.05,0.09,0.06,0.15
	c0,0.07-0.04,0.16-0.13,0.26c-0.09,0.11-0.27,0.27-0.55,0.51c-0.55,0.46-1,0.77-1.34,0.94c-0.33,0.17-0.65,0.25-0.94,0.25
	c-0.4,0-0.71-0.12-0.94-0.36c-0.22-0.25-0.33-0.58-0.33-1.02c0-0.15,0.02-0.33,0.06-0.54c0.04-0.2,0.1-0.42,0.18-0.65
	c-0.7,0.64-1.37,1.31-1.99,1.99c-0.62,0.69-1.2,1.38-1.72,2.1c-0.2,0.03-0.39,0.06-0.56,0.07c-0.17,0.02-0.33,0.02-0.46,0.02
	c-0.15,0-0.26-0.02-0.35-0.05c-0.08-0.03-0.13-0.07-0.13-0.11c0-0.1,0.23-0.4,0.67-0.88c0.27-0.31,0.49-0.55,0.66-0.73
	c0.87-1.01,1.45-1.75,1.75-2.2s0.45-0.79,0.45-1.02c0-0.07-0.01-0.12-0.03-0.15s-0.05-0.04-0.09-0.04c-0.2,0-0.46,0.09-0.79,0.27
	c-0.32,0.18-0.74,0.47-1.26,0.87c-0.15,0.12-0.34,0.29-0.57,0.5c-0.28,0.26-0.46,0.38-0.55,0.38c-0.06,0-0.11-0.02-0.15-0.06
	c-0.04-0.04-0.06-0.1-0.06-0.16c0-0.08,0.08-0.2,0.24-0.36c0.16-0.17,0.44-0.42,0.85-0.77c0.59-0.5,1.17-0.91,1.72-1.21
	c0.55-0.3,0.97-0.45,1.25-0.45c0.22,0,0.39,0.07,0.51,0.2c0.12,0.14,0.19,0.32,0.19,0.55c0,0.17-0.03,0.37-0.1,0.59
	c-0.06,0.22-0.16,0.47-0.29,0.75L109,39.75z M100.51,31.11c0,0.21-0.11,0.55-0.32,1.03c-0.22,0.48-0.49,0.94-0.83,1.4
	c-0.73,0.99-1.53,1.75-2.43,2.27c-0.89,0.52-1.82,0.78-2.78,0.78c-0.91,0-1.64-0.27-2.2-0.81c-0.55-0.54-0.82-1.26-0.82-2.16
	c0-1.65,0.8-3,2.39-4.04c1.59-1.05,3.69-1.57,6.28-1.57c1.19,0,2.99,0.18,5.4,0.55l0.15,0.02c0.28,0.05,0.67,0.11,1.18,0.19
	c1.99,0.31,3.24,0.46,3.77,0.46c0.57,0,1.17-0.09,1.8-0.26c0.12-0.03,0.21-0.05,0.25-0.05c0.07,0,0.13,0.02,0.18,0.06
	c0.05,0.04,0.08,0.08,0.08,0.13c0,0.23-0.28,0.45-0.84,0.67c-0.55,0.22-1.2,0.33-1.94,0.33c-0.33,0-0.66-0.02-1-0.06
	c-0.34-0.04-0.69-0.1-1.02-0.17c-0.19-0.04-0.45-0.11-0.8-0.19c-3.03-0.78-5.3-1.15-6.79-1.15c-1.15,0-2.18,0.14-3.11,0.41
	s-1.75,0.69-2.47,1.25c-0.91,0.7-1.59,1.36-2.04,1.97c-0.45,0.62-0.68,1.21-0.68,1.76c0,0.59,0.22,1.07,0.66,1.45
	s1.01,0.57,1.7,0.57c0.9,0,1.78-0.29,2.63-0.86s1.64-1.41,2.36-2.52c0.19-0.29,0.38-0.66,0.57-1.09s0.34-0.65,0.45-0.65
	c0.07,0,0.12,0.02,0.16,0.07C100.49,30.97,100.51,31.03,100.51,31.11z M90.07,44.97c1.37,0,2.86-0.71,4.46-2.11
	c1.6-1.41,3.57-3.77,5.91-7.06c1.35-1.92,2.46-3.38,3.34-4.39s1.48-1.51,1.8-1.51c0.06,0,0.11,0.02,0.14,0.04
	c0.03,0.03,0.05,0.07,0.05,0.12c0,0.02-0.29,0.43-0.87,1.21s-1.15,1.63-1.7,2.53c-0.15,0.26-0.39,0.65-0.71,1.17
	c-2.34,3.9-4.32,6.56-5.95,7.98c-1,0.87-2.02,1.52-3.07,1.97c-1.04,0.44-2.08,0.67-3.12,0.67c-1.12,0-2.02-0.25-2.68-0.76
	c-0.67-0.5-1-1.17-1-2c0-0.47,0.13-0.86,0.4-1.16c0.27-0.3,0.61-0.45,1.03-0.45c0.31,0,0.56,0.09,0.75,0.29
	c0.19,0.19,0.29,0.43,0.29,0.74c0,0.29-0.1,0.51-0.29,0.68c-0.19,0.17-0.44,0.25-0.76,0.25c-0.06,0-0.15-0.01-0.27-0.04
	c-0.12-0.03-0.21-0.04-0.28-0.04c-0.06,0.01-0.09,0.03-0.11,0.06c-0.02,0.03-0.03,0.09-0.04,0.16c0,0.43,0.26,0.82,0.78,1.16
	C88.7,44.81,89.33,44.97,90.07,44.97z"/>
</svg>
