<?xml version="1.0" encoding="utf-8"?>
<!-- Generator: Adobe Illustrator 24.0.3, SVG Export Plug-In . SVG Version: 6.00 Build 0)  -->
<svg version="1.1" id="Layer_1" xmlns="http://www.w3.org/2000/svg" xmlns:xlink="http://www.w3.org/1999/xlink" x="0px" y="0px"
	 viewBox="0 0 162 60" style="enable-background:new 0 0 162 60;" xml:space="preserve">
<style type="text/css">
	.st0{fill-rule:evenodd;clip-rule:evenodd;fill:#ECDEDA;}
	.st1{fill:none;stroke:#CD8C5D;stroke-width:0.124;stroke-miterlimit:22.9256;}
	.st2{fill-rule:evenodd;clip-rule:evenodd;fill:#B88832;}
	.st3{fill:#FFFFFF;}
</style>
<g>
	<path class="st0" d="M70.7,22.6l-0.5,0.6v10.2l0.5,0.5h2.6c1.1,0,1.8-0.2,2.2-1.2c0.6-1.4,0.5-2.9,0.5-4.4c0-0.4,0-0.7,0-1.1
		c0-1.2-0.2-2.8-1-3.7c-0.6-0.6-1.3-0.8-2.1-0.8L70.7,22.6L70.7,22.6z M106.5,25.9l-2,3.6h3.7L106.5,25.9z M89.8,44.5L89.3,45v10.2
		l0.5,0.5h2.6c1.1,0,1.8-0.2,2.2-1.2c0.2-0.4,0.3-0.9,0.4-1.3c0.2-1,0.2-2.1,0.2-3.1c0-0.9-0.1-1.8-0.3-2.7c-0.4-1.6-1.2-2.8-3-2.8
		C91.9,44.5,89.8,44.5,89.8,44.5z M44.3,47.8l-2,3.6H46L44.3,47.8z M66.6,44.5L66.2,45v3.5h3c1.3,0,2.5-0.6,2.5-2
		c0-0.3-0.1-0.6-0.2-0.9c-0.2-0.4-0.7-1-1.2-1C70.3,44.5,66.6,44.5,66.6,44.5z M151.7,32.3l4.4,4.4l-4.4,4.4l-4.4-4.4L151.7,32.3z
		 M10.8,32.3l4.4,4.4l-4.4,4.4l-4.4-4.4L10.8,32.3z M136.9,30.1v-5.7l-1.4-1.8h-2.4V20h10.2v2.6h-2.5l-1.4,1.8v12.1h-4.6l-9.1-11
		v6.6l1.5,1.9h2.6v2.6h-10.7v-2.6h2.5l1.5-1.9v-9.4h-4V20h9.5L136.9,30.1z M93.7,22.6l-0.5,0.6v10.2l0.5,0.5h2.8v2.6H84.1v-2.6H87
		l0.5-0.5l0-10.2l-0.6-0.6h-2.8V20h12.4v2.6L93.7,22.6L93.7,22.6z M30.9,22.6l-0.5,0.6v10.2l0.5,0.5h2.8v2.6H21.3v-2.6h2.8l0.5-0.5
		l0-10.2l-0.6-0.6h-2.8V20h12.4v2.6L30.9,22.6L30.9,22.6z M64,33.8l0.5-0.5V23.1l-0.5-0.5h-2.8V20h11.4c5.2,0,9.7,2.5,9.7,8.2
		c0,5.5-3.9,8.2-9,8.2H61.1v-2.6L64,33.8L64,33.8z M53,30.1v-5.7l-1.4-1.8h-2.4V20h10.2v2.6H57l-1.4,1.8v12.1H51l-9.1-11v6.6
		l1.5,1.9H46v2.6H35.3v-2.6h2.5l1.5-1.9v-9.4h-4V20h9.5L53,30.1z M115.8,33.3l0.8,0.6h2.2v2.6h-11.4v-2.6h2.7l-0.8-1.8h-6.2
		l-0.4,0.7l0.5,1.2h1.7l0,2.6h-8v-2.6h0.9c0.1,0,0.5,0,0.7,0c0.8-0.5,1.4-1.4,1.8-2.2l6.6-11.6h2.8L115.8,33.3z M142.6,51.9v-5.7
		l-1.4-1.7h-2.4v-2.6h10.2v2.6h-2.5l-1.4,1.7v12h-4.6l-9-11v6.6l1.4,1.9h2.6v2.6H125v-2.6h2.5l1.5-1.9v-9.3h-4v-2.6h9.3L142.6,51.9z
		 M83.1,55.7l0.5-0.5V45L83,44.5h-2.7v-2.6h11.4c5.1,0,9.7,2.5,9.7,8.1c0,5.3-4.1,8.2-9,8.2H80.3v-2.6H83.1z M53.6,55.1l0.8,0.6h2.2
		v2.6H45.1v-2.6h2.7l-0.8-1.8h-6.2l-0.4,0.7l0.5,1.2h1.7l0,2.6h-8.1v-2.6h0.9c0.1,0,0.5,0,0.7,0c0.8-0.5,1.4-1.5,1.8-2.2l6.7-11.5
		h2.8L53.6,55.1z M117.2,44.5h-4.7l-0.4,0.4v3.3h1l2.6-3.1h1.7v8.7h-1.7l-2.6-3.1h-1v4.4l0.3,0.4h4.3l3.8-4.7h1.6v7.2h-19.1v-2.6h3
		l0.4-0.5V45l-0.5-0.5h-2.9v-2.6h18.9l0.3,7.3h-1.8L117.2,44.5z M72.5,50.3c0.5,0.1,1.1,0.1,1.4,0.1l0.7,0l0.1,0.7
		c0.2,0.9,0.3,1.7,0.6,2.6c0.1,0.4,0.4,1.5,0.7,2h2.6v2.6h-7.6l-0.2-0.7c-0.2-0.9-0.4-1.7-0.6-2.6c-0.2-0.8-0.5-1.8-0.8-2.5
		c-0.2-0.5-0.6-1.2-1.1-1.4c-0.3-0.1-0.7-0.1-1-0.1c-0.3,0-0.6,0-0.9,0v4.3l0.3,0.4h3l-0.2,2.6H57.2v-2.6H60l0.5-0.5l0-10.2L60,44.5
		h-2.8v-2.6h12.7c2.7,0,7.6,0.8,7.8,4.2c0,0.7-0.1,1.4-0.6,2.1C76.2,49.5,74.2,50,72.5,50.3z M29.6,42.7c0.9,0.1,0.7-0.3,1.2-0.8
		l0.3-0.3h1.7v7.7H31l-0.2-0.5c-0.6-1.2-1.3-2.4-2.3-3.3c-1.2-1-2.4-1.7-4-1.6c-1.7,0-3.1,0.7-3.9,2.2c-0.7,1.2-0.9,2.8-0.9,4.2
		c0,1.9,0.1,3.6,1.5,5c0.8,0.8,1.9,0.9,2.9,0.9c0.8,0,1.7-0.2,2.4-0.5c0.3-0.1,0.8-0.4,0.9-0.7v-2.7L27,52h-2.9v-2.6h12.3V52h-2.8
		l-0.5,0.5V55c0,0.3,0.1,0.7,0.2,1l0.4,1.2l-1.3,0c-1.6,0-2.9,0.4-4.4,0.8c-1.4,0.4-2.7,0.7-4.1,0.7c-1.2,0-2.4-0.1-3.6-0.4
		c-4.1-1-6.8-3.5-6.8-7.9c0-4.2,3.4-7.5,7.3-8.4c2.2-0.5,4.4-0.5,6.5,0c0.4,0.1,0.9,0.3,1.3,0.4c0.2,0.1,0.5,0.2,0.7,0.3
		C29.4,42.7,29.5,42.7,29.6,42.7z"/>
	<path class="st1" d="M70.7,22.6l-0.5,0.6v10.2l0.5,0.5h2.6c1.1,0,1.8-0.2,2.2-1.2c0.6-1.4,0.5-2.9,0.5-4.4c0-0.4,0-0.7,0-1.1
		c0-1.2-0.2-2.8-1-3.7c-0.6-0.6-1.3-0.8-2.1-0.8L70.7,22.6L70.7,22.6z M106.5,25.9l-2,3.6h3.7L106.5,25.9z M89.8,44.5L89.3,45v10.2
		l0.5,0.5h2.6c1.1,0,1.8-0.2,2.2-1.2c0.2-0.4,0.3-0.9,0.4-1.3c0.2-1,0.2-2.1,0.2-3.1c0-0.9-0.1-1.8-0.3-2.7c-0.4-1.6-1.2-2.8-3-2.8
		C91.9,44.5,89.8,44.5,89.8,44.5z M44.3,47.8l-2,3.6H46L44.3,47.8z M66.6,44.5L66.2,45v3.5h3c1.3,0,2.5-0.6,2.5-2
		c0-0.3-0.1-0.6-0.2-0.9c-0.2-0.4-0.7-1-1.2-1C70.3,44.5,66.6,44.5,66.6,44.5z M151.7,32.3l4.4,4.4l-4.4,4.4l-4.4-4.4L151.7,32.3z
		 M10.8,32.3l4.4,4.4l-4.4,4.4l-4.4-4.4L10.8,32.3z M136.9,30.1v-5.7l-1.4-1.8h-2.4V20h10.2v2.6h-2.5l-1.4,1.8v12.1h-4.6l-9.1-11
		v6.6l1.5,1.9h2.6v2.6h-10.7v-2.6h2.5l1.5-1.9v-9.4h-4V20h9.5L136.9,30.1z M93.7,22.6l-0.5,0.6v10.2l0.5,0.5h2.8v2.6H84.1v-2.6H87
		l0.5-0.5l0-10.2l-0.6-0.6h-2.8V20h12.4v2.6L93.7,22.6L93.7,22.6z M30.9,22.6l-0.5,0.6v10.2l0.5,0.5h2.8v2.6H21.3v-2.6h2.8l0.5-0.5
		l0-10.2l-0.6-0.6h-2.8V20h12.4v2.6L30.9,22.6L30.9,22.6z M64,33.8l0.5-0.5V23.1l-0.5-0.5h-2.8V20h11.4c5.2,0,9.7,2.5,9.7,8.2
		c0,5.5-3.9,8.2-9,8.2H61.1v-2.6L64,33.8L64,33.8z M53,30.1v-5.7l-1.4-1.8h-2.4V20h10.2v2.6H57l-1.4,1.8v12.1H51l-9.1-11v6.6
		l1.5,1.9H46v2.6H35.3v-2.6h2.5l1.5-1.9v-9.4h-4V20h9.5L53,30.1z M115.8,33.3l0.8,0.6h2.2v2.6h-11.4v-2.6h2.7l-0.8-1.8h-6.2
		l-0.4,0.7l0.5,1.2h1.7l0,2.6h-8v-2.6h0.9c0.1,0,0.5,0,0.7,0c0.8-0.5,1.4-1.4,1.8-2.2l6.6-11.6h2.8L115.8,33.3z M142.6,51.9v-5.7
		l-1.4-1.7h-2.4v-2.6h10.2v2.6h-2.5l-1.4,1.7v12h-4.6l-9-11v6.6l1.4,1.9h2.6v2.6H125v-2.6h2.5l1.5-1.9v-9.3h-4v-2.6h9.3L142.6,51.9z
		 M83.1,55.7l0.5-0.5V45L83,44.5h-2.7v-2.6h11.4c5.1,0,9.7,2.5,9.7,8.1c0,5.3-4.1,8.2-9,8.2H80.3v-2.6H83.1z M53.6,55.1l0.8,0.6h2.2
		v2.6H45.1v-2.6h2.7l-0.8-1.8h-6.2l-0.4,0.7l0.5,1.2h1.7l0,2.6h-8.1v-2.6h0.9c0.1,0,0.5,0,0.7,0c0.8-0.5,1.4-1.5,1.8-2.2l6.7-11.5
		h2.8L53.6,55.1z M117.2,44.5h-4.7l-0.4,0.4v3.3h1l2.6-3.1h1.7v8.7h-1.7l-2.6-3.1h-1v4.4l0.3,0.4h4.3l3.8-4.7h1.6v7.2h-19.1v-2.6h3
		l0.4-0.5V45l-0.5-0.5h-2.9v-2.6h18.9l0.3,7.3h-1.8L117.2,44.5z M72.5,50.3c0.5,0.1,1.1,0.1,1.4,0.1l0.7,0l0.1,0.7
		c0.2,0.9,0.3,1.7,0.6,2.6c0.1,0.4,0.4,1.5,0.7,2h2.6v2.6h-7.6l-0.2-0.7c-0.2-0.9-0.4-1.7-0.6-2.6c-0.2-0.8-0.5-1.8-0.8-2.5
		c-0.2-0.5-0.6-1.2-1.1-1.4c-0.3-0.1-0.7-0.1-1-0.1c-0.3,0-0.6,0-0.9,0v4.3l0.3,0.4h3l-0.2,2.6H57.2v-2.6H60l0.5-0.5l0-10.2L60,44.5
		h-2.8v-2.6h12.7c2.7,0,7.6,0.8,7.8,4.2c0,0.7-0.1,1.4-0.6,2.1C76.2,49.5,74.2,50,72.5,50.3z M29.6,42.7c0.9,0.1,0.7-0.3,1.2-0.8
		l0.3-0.3h1.7v7.7H31l-0.2-0.5c-0.6-1.2-1.3-2.4-2.3-3.3c-1.2-1-2.4-1.7-4-1.6c-1.7,0-3.1,0.7-3.9,2.2c-0.7,1.2-0.9,2.8-0.9,4.2
		c0,1.9,0.1,3.6,1.5,5c0.8,0.8,1.9,0.9,2.9,0.9c0.8,0,1.7-0.2,2.4-0.5c0.3-0.1,0.8-0.4,0.9-0.7v-2.7L27,52h-2.9v-2.6h12.3V52h-2.8
		l-0.5,0.5V55c0,0.3,0.1,0.7,0.2,1l0.4,1.2l-1.3,0c-1.6,0-2.9,0.4-4.4,0.8c-1.4,0.4-2.7,0.7-4.1,0.7c-1.2,0-2.4-0.1-3.6-0.4
		c-4.1-1-6.8-3.5-6.8-7.9c0-4.2,3.4-7.5,7.3-8.4c2.2-0.5,4.4-0.5,6.5,0c0.4,0.1,0.9,0.3,1.3,0.4c0.2,0.1,0.5,0.2,0.7,0.3
		C29.4,42.7,29.5,42.7,29.6,42.7z"/>
	<path class="st2" d="M151.7,35.8l0.9,0.9l-0.9,0.9l-0.9-0.9L151.7,35.8z M151.7,34.7l2,2l-2,2l-2-2L151.7,34.7z M151.7,33.6
		l3.1,3.1l-3.1,3.1l-3.1-3.1L151.7,33.6z M10.8,35.8l0.9,0.9l-0.9,0.9l-0.9-0.9L10.8,35.8z M10.8,34.7l2,2l-2,2l-2-2L10.8,34.7z
		 M10.8,33.6l3.1,3.1l-3.1,3.1l-3.1-3.1L10.8,33.6z M126.5,22.4L136,34h1l-9.5-11.6L126.5,22.4L126.5,22.4L126.5,22.4z M120.2,21.7
		h3.8l0.2,0.3v10.3l-2,2.5h-2.1v0.8h8.9v-0.8h-2.1l-2-2.5v-9.4l10.4,12.7h3.3V24l1.9-2.4h2v-0.8h-8.4v0.8h1.9l1.8,2.4v8.5l-9.5-11.7
		h-8.1L120.2,21.7C120.2,21.7,120.2,21.7,120.2,21.7z M125.1,21.7h2.8l9.9,12.2v0.9h-2.1L125.1,21.7z M137,21.7h2.5l-1.2,1.6
		L137,21.7z M124.5,33.1l1.4,1.7h-2.7L124.5,33.1z M89.9,34h0.8V22.4h-0.8V34z M85,21.7h2.3l1.1,1.1l0,10.9l-1,1H85v0.8h10.6v-0.8
		h-2.3l-1-1V22.8l1.1-1.1h2.3v-0.8H85L85,21.7L85,21.7z M88.4,21.7h3.7l-0.7,0.7V34l0.7,0.7h-3.6l0.6-0.7V22.4L88.4,21.7z M27.1,34
		h0.8V22.4h-0.8V34z M22.2,21.7h2.3l1.1,1.1l0,10.9l-1,1h-2.3v0.8h10.6v-0.8h-2.3l-1-1V22.8l1.1-1.1h2.3v-0.8H22.2V21.7z M25.6,21.7
		h3.7l-0.7,0.7V34l0.7,0.7h-3.6l0.6-0.7V22.4L25.6,21.7z M78.2,32.2c1.2-0.9,1.5-2.7,1.5-4.1c0-1-0.2-2.8-1.6-3.9
		c0.1,0.2,0.2,0.8,0.2,1.1c0.9,2.4,0.5,4.2,0,5.8C78.3,31.5,78.3,31.8,78.2,32.2z M66.9,34h0.7V22.4h-0.7V34z M62,21.7h2.3l1,1.1v11
		l-1,1H62v0.8h11.2c3.9,0,8.1-1.8,8.1-7.3c0-5.3-4.3-7.3-8.8-7.3H62C62,20.9,62,21.7,62,21.7z M65.4,21.7h3.8l-0.7,0.8v11.6l0.6,0.6
		h-3.6l0.6-0.6V22.5L65.4,21.7z M76.3,22.3c0.9,0.1,2.5,1.2,3,1.9c0.8,1.1,1.3,2.3,1.3,3.7v0.8c0,3-1.7,4.6-4.1,5.6
		c1.1-1.7,1.2-4,1.2-6C77.7,26.1,77.4,24,76.3,22.3z M73.3,34.7h-3l-1-1V22.8l1-1.1h2.5c3.7,0,4.1,3.5,4.1,6.5
		c0,1.6,0.1,3.2-0.6,4.7C75.7,34.4,74.7,34.7,73.3,34.7z M42.6,22.4L52.1,34h1l-9.5-11.6H42.6z M36.2,21.7H40l0.2,0.3v10.3l-2,2.5
		h-2.1v0.8h8.9v-0.8H43l-2-2.5v-9.4l10.4,12.7h3.3V24l1.9-2.4h2v-0.8h-8.4v0.8H52l1.8,2.4v8.5l-9.5-11.7h-8.1
		C36.2,20.9,36.2,21.7,36.2,21.7z M41.1,21.7H44l9.9,12.2v0.9h-2.1L41.1,21.7z M53.1,21.7h2.5l-1.2,1.6L53.1,21.7z M40.6,33.1
		l1.4,1.7h-2.7L40.6,33.1z M109.2,20.9h-1.7L101.1,32c-0.6,0.9-1.3,2-2.1,2.6c-0.3,0.2-0.7,0.1-1.1,0.1v0.8h6.2l0-0.8h-1.4l-0.9-2.1
		l0.9-1.5h7.3l1.3,3l-0.4,0.7h-2.5v0.8h9.6v-0.8h-1.6l-1.2-0.9L109.2,20.9z M112.8,34.2l0.8,0l-5.4-11.8l-0.5,0.9L112.8,34.2z
		 M108,21.6h0.6l5.8,12.7l0.5,0.4h-3.2l0.4-0.5l-4.8-10.6h-0.4L108,21.6z M106.3,24.4h0.5l2.8,6H103L106.3,24.4z M101.2,33.5
		l0.6,1.2h-1.6L101.2,33.5z M132.2,44.3l9.5,11.6h1l-9.5-11.6H132.2z M125.9,43.6h3.7l0.2,0.2v10.3l-1.9,2.5h-2.1v0.8h8.8v-0.8h-2.1
		l-1.9-2.5v-9.4l10.4,12.7h3.3V45.9l1.9-2.3h2v-0.8h-8.4v0.8h1.9l1.8,2.3v8.5l-9.6-11.6h-8L125.9,43.6
		C125.9,43.6,125.9,43.6,125.9,43.6z M130.9,43.6h2.7l10,12.1v0.9h-2L130.9,43.6z M142.7,43.6h2.5l-1.2,1.5L142.7,43.6z M130.3,54.9
		l1.2,1.7H129L130.3,54.9z M97.6,52.8c0,0.4-0.1,0.8-0.2,1.2c1.1-0.2,1.5-3,1.5-4s-0.5-3.6-1.6-4c0.1,0.2,0.2,1,0.3,1.3
		C97.8,48,98,48.9,98,50C98.1,51.2,97.9,52,97.6,52.8z M86.1,55.8h0.7V44.3h-0.7V55.8z M81.2,43.6h2.2l1.1,1v11l-1,1h-2.3v0.8h11.2
		c3.9,0,8.1-2.2,8.1-7.3s-4.3-7.2-8.8-7.2H81.2L81.2,43.6L81.2,43.6z M84.5,43.6h3.8l-0.7,0.7v11.6l0.6,0.6h-3.6l0.6-0.6V44.3
		L84.5,43.6z M95.5,44.2c2.7,0.7,4.2,3.1,4.2,5.8c0,2.7-1,4.7-4,5.9c1.1-1.7,1.2-3.9,1.2-5.9S96.7,46,95.5,44.2z M92.4,56.6h-3l-1-1
		V44.6l1-1H92c3.7,0,4.2,4.1,4.2,6.4c0,2.3,0,3.2-0.7,4.7C94.9,56.2,93.9,56.6,92.4,56.6z M47,42.8h-1.7l-6.4,11.1
		c-0.6,0.9-1.3,2-2.1,2.6c-0.3,0.2-0.7,0.1-1.1,0.1v0.8h6.2l0-0.8h-1.4l-0.9-2.1l0.9-1.5h7.3l1.3,3l-0.4,0.7h-2.5v0.8h9.6v-0.8h-1.6
		l-1.2-0.9L47,42.8z M50.6,56l0.9,0l-5.3-11.7l-0.5,0.8L50.6,56z M45.8,43.6h0.7l5.8,12.6l0.5,0.4h-3.2l0.4-0.5l-4.8-10.6h-0.4
		L45.8,43.6z M44.1,46.3h0.4l2.8,6h-6.6L44.1,46.3z M39,55.4l0.6,1.2h-1.6L39,55.4z M120.6,53.7v2.9h-2.3L120.6,53.7z M115.9,47.8
		v3.5l-1.5-1.8L115.9,47.8z M118.7,43.6h1.7l0.1,2.6L118.7,43.6z M107.6,43.6h3.5l-0.6,0.7v11.6l0.6,0.7h-3.5l0.6-0.7V44.3
		L107.6,43.6z M104.1,43.6h2.4l1,1v10.9l-0.9,1.1h-2.5v0.8h17.3v-5.4h-0.3l-3.8,4.7h-5.2l-0.7-1V50h2.3l2.6,3.1h0.4v-6.9h-0.4
		l-2.6,3.1h-2.3v-4.5l0.8-1h5.5l3.3,4.7h0.4l-0.2-5.5h-17.1L104.1,43.6L104.1,43.6z M109,55.8h0.8V44.3H109V55.8z M72.3,56.6
		c-0.5-1.7-1-3.9-1.6-5c0.6,0.4,1.6,0.4,2.5,0.4l1.3,4.6C74.5,56.6,72.3,56.6,72.3,56.6z M66.1,43.6h4.1c1.2,0,2.3,1.4,2.3,2.8
		c0,1.9-1.6,2.9-3.4,2.9h-3.9v-4.7L66.1,43.6z M72.4,43.8c1.3,0.1,3.5,0.9,3.6,2.5c0.1,1.7-2.4,2.1-3.3,2.2c0.4-0.7,0.6-1.1,0.6-2.2
		C73.4,45,72.9,44.7,72.4,43.8z M61.5,43.6h3.6l-0.5,0.7v11.5l0.5,0.7h-3.5l0.7-0.7V44.3L61.5,43.6z M58.1,43.6h2.3l1,1l0,10.9l-1,1
		h-2.3v0.8h10.4l0.1-0.8h-2.5l-0.8-0.9v-5.5c2.5,0,3.6-0.4,4.8,2c0.6,1.2,1.2,3.9,1.5,5.3h6v-0.8h-2c-0.8,0-1.6-4.4-1.8-5.3
		c-1.2,0-3,0-3.7-1.1l0.5-0.6c2-0.2,6.3-0.5,6.1-3.4c-0.2-2.6-4.4-3.3-6.9-3.3H58.1V43.6z M28.4,51.1h3.7l-0.7,0.7v3.7L28.7,56
		l0.2-0.5v-3.7L28.4,51.1z M31.1,44.2v1.9l-1.4-1.7C30.2,44.5,30.9,44.4,31.1,44.2z M19.5,56.2c-1.6-0.4-3-1.6-3.8-3.1
		c-0.4-0.9-0.6-1.5-0.6-2.8s0.3-2.7,1.5-4.1c0.7-0.9,1.9-1.7,3.1-2.2c-1.4,1.8-1.9,4.5-1.9,6.3S17.8,54,19.5,56.2z M32.4,56.3
		c-0.1-0.4-0.3-0.9-0.3-1.3v-2.9l1-1h2.3v-0.8H25v0.8h2.4l0.8,1v3.2c-0.4,1-2.2,1.8-4.2,1.9c-1.3,0-2.6-0.2-3.6-1.2
		c-1.4-1.4-1.7-3-1.7-5.6s0.9-7.2,5.7-7.3c1.9,0,3.2,0.7,4.6,1.8c1.1,0.9,1.9,2.3,2.5,3.6H32v-5.9h-0.4c-0.3,0.3-0.5,1.2-2,1.1
		c-0.4,0-2-0.7-2.6-0.8c-2-0.5-4.1-0.5-6.1,0c-3.3,0.8-6.6,3.6-6.6,7.5c0,3.9,2.4,6.1,6.2,7c1.3,0.3,2.4,0.4,3.4,0.4
		C27,57.7,29.1,56.3,32.4,56.3z M63,55.9h0.7l0-11.5H63L63,55.9z M15.9,50.4c0,1.2,0.7,3.3,1.6,3.7c-0.1-0.4-0.2-0.9-0.2-1.3
		c-0.2-0.9-0.6-1.5-0.6-2.4c0-0.9,0.4-1.8,0.7-2.6c0.1-0.6,0.3-1.1,0.4-1.4C16.6,47.3,15.9,49.1,15.9,50.4z M72.7,55.8h0.8l-0.9-3.2
		c-0.3,0-0.5-0.1-0.8-0.1L72.7,55.8z M29.8,54.9l0.7-0.1v-3h-0.7V54.9z M74.1,45.2c0.1,0.3,0.2,0.5,0.2,0.8l0.2,0.3l-0.3,0.2
		c0,0.2,0,0.5,0,0.8c0.4-0.1,1-0.5,1-0.9C75.1,45.7,74.6,45.4,74.1,45.2z"/>
	<path class="st2" d="M53.6,3.7c-0.2,0-0.4,0.1-0.7,0.2c-0.5,0.1-0.9,0.4-1.3,0.7c-0.4,0.3-0.9,0.7-1.2,1.1
		c-0.1,0.1-0.2,0.4-0.2,0.5c0,0.1,0,0.1,0.1,0.1c0.1,0.1,0.3,0.1,0.4,0.1c0.4,0,0.8-0.2,1.2-0.4c0.5-0.4,1-0.9,1.3-1.4
		c0.1-0.2,0.2-0.4,0.3-0.6C53.5,4,53.6,3.8,53.6,3.7 M56.1,4c0.1-0.1,0.1-0.2,0.2-0.2c-0.1,0-0.2,0-0.3,0C56.1,3.8,56.1,3.9,56.1,4z
		 M52.6,8.7c-0.6,0.3-1.3,0.4-2,0.4c-0.9,0-1.7-0.3-2.3-0.9c-0.6-0.6-0.9-1.4-0.9-2.3c0-1.6,0.8-2.8,2.2-3.7C51,1.3,52.8,1,54.5,1
		c1.3,0,2.6,0.2,3.9,0.4l0.1,0c0.3,0,0.5,0.1,0.8,0.1c0.5,0.1,1.1,0.2,1.6,0.2c0.2,0,0.5,0.1,0.8,0.1c0.3,0,0.6-0.1,0.9-0.1
		c0.2,0,0.3-0.1,0.5-0.1c0.3,0,0.6,0.1,0.8,0.3c0.3,0.2,0.5,0.6,0.5,1c0,0.8-0.6,1.3-1.3,1.5c-0.6,0.2-1.1,0.3-1.7,0.3
		c-0.3,0-0.5,0-0.8,0c-0.3,0-0.5-0.1-0.8-0.1c-0.1,0-0.2-0.1-0.3-0.1c-0.2,0.2-0.3,0.4-0.5,0.6c-0.4,0.5-0.8,1.1-1.1,1.6
		c-0.2,0.3-0.3,0.5-0.5,0.8c-1.1,1.9-2.6,4.3-4.3,5.7c-0.7,0.6-1.5,1.2-2.4,1.5c-0.8,0.3-1.7,0.5-2.6,0.5c-0.9,0-1.8-0.2-2.5-0.8
		c-0.7-0.6-1.1-1.4-1.1-2.3c0-0.6,0.2-1.1,0.6-1.6c0.4-0.5,0.9-0.7,1.6-0.7c0.5,0,1,0.2,1.3,0.5c0.4,0.4,0.6,0.8,0.6,1.3
		c0,0.2,0,0.5-0.1,0.7c0.7-0.2,1.4-0.7,1.9-1.1C51,10.7,51.8,9.7,52.6,8.7z M83.3,10.2L83.3,10.2l-0.1,0.1l0,0
		C83.3,10.2,83.3,10.2,83.3,10.2z M88,9.4c0,0.1,0.1,0.1,0.1,0.2c0.1-0.1,0.2-0.1,0.3-0.2C88.2,9.4,88.1,9.4,88,9.4z M86.8,8.1
		l-0.5,0.5c0.3,0,0.5,0,0.8,0.1h0C86.9,8.6,86.8,8.4,86.8,8.1z M86.7,7.6c0-0.4,0.2-0.8,0.5-1.1c0.3-0.3,0.7-0.4,1.2-0.4
		c0.4,0,0.9,0.1,1.2,0.4c0.3,0.3,0.5,0.7,0.5,1.2c0,0.4-0.1,0.8-0.4,1.1c0.3-0.1,0.7-0.2,1-0.2c0.5,0,1,0.2,1.4,0.5
		c0.3,0.2,0.5,0.5,0.6,0.9c0.4-0.3,0.8-0.6,1.2-0.9c0.4-0.3,0.9-0.4,1.4-0.4c0.4,0,0.8,0.2,1.1,0.4c0,0,0.1,0,0.1-0.1
		c0.4-0.2,0.9-0.3,1.3-0.3c0.5,0,0.9,0.2,1.2,0.5c0.2,0.2,0.4,0.5,0.4,0.9c0.1-0.1,0.3-0.2,0.4-0.3c0.4-0.3,0.8-0.6,1.3-0.8
		c0.4-0.2,0.9-0.3,1.4-0.3c0.4,0,0.9,0.1,1.2,0.4c0.3,0.2,0.5,0.5,0.5,0.9c0.4-0.3,0.9-0.6,1.3-1l4.7-5.2c0.2-0.2,0.3-0.3,0.6-0.4
		c0.2-0.1,0.5-0.2,0.7-0.2c0.3,0,0.6,0,0.8,0.2c0.5,0.2,0.8,0.7,0.8,1.2c0,0.2-0.1,0.5-0.2,0.7l0,0l0,0c-0.1,0.1-0.2,0.2-0.3,0.3
		l-4.2,4.9c0.6-0.5,1.2-1,1.9-1.4l4.7-5.2c0.2-0.2,0.3-0.3,0.6-0.4c0.2-0.1,0.5-0.2,0.7-0.2c0.3,0,0.6,0,0.8,0.2
		c0.5,0.2,0.8,0.7,0.8,1.2c0,0.2-0.1,0.5-0.2,0.7l0,0l0,0c-0.1,0.1-0.2,0.2-0.3,0.3l-4.4,5.1c0.2-0.1,0.4-0.2,0.7-0.2
		c0.3,0,0.7,0.1,0.9,0.4l0,0l0,0c0.2,0.2,0.3,0.5,0.3,0.7l0,0.1v0.1c0,0.8-0.8,1.3-1.3,1.8l0,0c-0.6,0.5-1.2,0.9-1.9,1.2
		c-0.6,0.3-1.2,0.5-1.8,0.5c-0.5,0-1-0.2-1.4-0.5c-0.2-0.2-0.4-0.5-0.5-0.7c-0.4,0.3-0.8,0.5-1.2,0.7c-0.6,0.3-1.2,0.5-1.8,0.5
		c-0.5,0-1-0.2-1.4-0.5c-0.2-0.2-0.3-0.4-0.4-0.7c-0.4,0.3-0.8,0.5-1.2,0.7c-0.6,0.3-1.2,0.5-1.9,0.5c-0.7,0-1.3-0.2-1.7-0.7
		c-0.1-0.1-0.2-0.2-0.2-0.3c-0.2,0.2-0.5,0.3-0.7,0.4c-0.5,0.3-1.2,0.5-1.8,0.5c-0.5,0-1-0.2-1.3-0.5c-0.2-0.2-0.3-0.4-0.4-0.6
		c-0.2,0.2-0.4,0.5-0.7,0.7L93.5,15l-0.3,0.1c-0.1,0-0.3,0.1-0.4,0.1c-0.2,0-0.3,0-0.5,0c-0.2,0-0.4,0-0.7-0.1
		c-0.6-0.2-0.9-0.6-0.9-1.2c0-0.1,0-0.2,0-0.3c-0.4,0.3-0.8,0.6-1.2,0.9c-0.6,0.4-1.3,0.7-2,0.7c-0.6,0-1.1-0.2-1.5-0.6
		c0,0-0.1-0.1-0.1-0.1c-0.1,0.1-0.3,0.1-0.4,0.2c-0.5,0.3-1.1,0.5-1.8,0.5c-0.5,0-0.9-0.2-1.3-0.5c-0.1-0.1-0.2-0.2-0.3-0.4
		c-0.2,0.1-0.4,0.2-0.6,0.4c-0.6,0.3-1.2,0.5-1.8,0.5c-0.5,0-1-0.2-1.4-0.5c-0.2-0.2-0.3-0.4-0.4-0.6c-0.3,0.2-0.7,0.5-1.1,0.6
		c-0.5,0.3-1.1,0.5-1.8,0.5c-0.5,0-1-0.2-1.3-0.5c-0.1-0.1-0.2-0.2-0.3-0.4c-0.2,0.1-0.4,0.2-0.6,0.3c-0.6,0.3-1.2,0.5-1.8,0.5
		c-0.4,0-0.8-0.1-1.2-0.3c-0.4,0.2-0.8,0.3-1.2,0.3c-0.6,0-1.1-0.2-1.4-0.7c0,0,0,0,0-0.1c-0.1,0.1-0.3,0.2-0.4,0.2
		c-0.6,0.3-1.2,0.5-1.8,0.5c-0.4,0-0.8-0.1-1.2-0.3c-0.4,0.2-0.8,0.4-1.2,0.4c-0.6,0-1.1-0.2-1.4-0.7c-0.1-0.1-0.2-0.3-0.2-0.4
		c0,0-0.1,0-0.1,0c-0.5,0-1-0.2-1.4-0.5c-0.3,0.4-0.6,0.7-0.9,1.1l-0.3,0.4l-0.5,0.1c-0.2,0-0.3,0-0.5,0.1c-0.1,0-0.3,0-0.4,0
		c-0.2,0-0.4,0-0.6-0.1c-0.5-0.2-0.8-0.6-0.8-1.1c0-0.5,0.3-0.8,0.6-1.2c0,0-0.1-0.1-0.1-0.1l0,0l0,0c-0.2-0.2-0.4-0.6-0.4-0.9
		c0-0.4,0.2-0.7,0.5-1c0.2-0.2,0.4-0.4,0.7-0.6c0.4-0.4,0.9-0.7,1.4-1c0.4-0.2,0.9-0.4,1.4-0.4c0.4,0,0.8,0.1,1.1,0.4
		c0.1,0,0.1,0,0.2-0.1C60.6,9,60.7,9,60.8,9l0.1,0H61c0.3,0,0.5,0,0.7,0.1c0.4,0.1,0.8,0.4,0.9,0.8c0.4-0.3,0.8-0.5,1.2-0.7
		c0.6-0.3,1.2-0.5,1.9-0.5c0.3,0,0.6,0,0.8,0.1l0.1-0.1H67c0,0,0.1,0,0.1,0c0.1,0,0.2,0,0.3,0c0.3,0,0.5,0,0.8,0.1
		C68.5,9,68.8,9.4,69,9.8c0.3-0.2,0.7-0.4,1-0.6c0.6-0.3,1.2-0.5,1.8-0.5c0.2,0,0.4,0,0.6,0.1l4.1-5c0.1-0.2,0.3-0.3,0.5-0.4
		c0.2-0.1,0.5-0.2,0.8-0.2c0.3,0,0.6,0,0.8,0.1c0.5,0.2,0.9,0.6,0.9,1.2c0,0.2,0,0.4-0.1,0.6c-0.1,0.2-0.2,0.3-0.3,0.4l-3.3,3.9
		c0.1-0.1,0.2-0.1,0.3-0.2c0.4-0.3,0.9-0.5,1.4-0.5c0.3,0,0.6,0,0.8,0.1h0c-0.2-0.3-0.3-0.6-0.3-1c0-0.5,0.2-0.9,0.5-1.2
		c0.3-0.3,0.7-0.4,1.2-0.4c0.4,0,0.9,0.1,1.2,0.4c0.3,0.3,0.5,0.7,0.5,1.1l1.1-1.4l0,0c0.2-0.2,0.4-0.3,0.6-0.5
		c0.2-0.1,0.5-0.2,0.7-0.2c0.3,0,0.6,0,0.9,0.2l0,0C85.2,6,85.6,6.4,85.6,7c0,0.2,0,0.3-0.1,0.5c0,0.1,0,0.1-0.1,0.2L86.7,7.6
		L86.7,7.6z"/>
	<path class="st3" d="M110.6,10.7c-0.3,0.3-0.7,0.5-1.1,0.9c-0.4,0.3-0.6,0.5-0.6,0.5c0,0-0.1,0-0.1,0c0,0,0-0.1,0-0.1
		c0-0.1,0.2-0.3,0.6-0.6c0.4-0.3,1.1-0.8,2-1.5l4.8-5.3c0.1-0.1,0.1-0.1,0.2-0.2c0.1,0,0.1,0,0.2,0c0.2,0,0.3,0,0.4,0.1
		s0.1,0.1,0.1,0.2c0,0,0,0.1,0,0.1s-0.1,0.1-0.1,0.1l-5.5,6.4c-0.4,0.5-0.7,0.9-0.9,1.2c-0.2,0.4-0.3,0.7-0.3,0.9
		c0,0.1,0,0.2,0.1,0.3c0,0.1,0.1,0.1,0.2,0.1c0.2,0,0.5-0.1,0.9-0.2c0.3-0.2,0.8-0.4,1.2-0.8c0.3-0.2,0.6-0.5,1-0.7
		c0.3-0.3,0.5-0.4,0.5-0.4s0.1,0,0.1,0c0,0,0,0.1,0,0.1c0,0.1-0.3,0.4-0.9,0.9l0,0c-0.6,0.5-1.1,0.8-1.7,1.1c-0.5,0.3-1,0.4-1.3,0.4
		c-0.2,0-0.4-0.1-0.6-0.2c-0.1-0.1-0.2-0.3-0.2-0.5c0-0.3,0.1-0.7,0.3-1.1C109.9,11.8,110.2,11.3,110.6,10.7 M105.7,10.7
		c-0.3,0.3-0.7,0.5-1.1,0.9c-0.4,0.3-0.6,0.5-0.6,0.5c0,0-0.1,0-0.1,0c0,0,0-0.1,0-0.1c0-0.1,0.2-0.3,0.6-0.6c0.4-0.3,1.1-0.8,2-1.5
		l4.8-5.3c0.1-0.1,0.1-0.1,0.2-0.2c0.1,0,0.1,0,0.2,0c0.2,0,0.3,0,0.4,0.1s0.1,0.1,0.1,0.2c0,0,0,0.1,0,0.1S112,4.7,112,4.7
		l-5.5,6.4c-0.4,0.5-0.7,0.9-0.9,1.2c-0.2,0.4-0.3,0.7-0.3,0.9c0,0.1,0,0.2,0.1,0.3c0,0.1,0.1,0.1,0.2,0.1c0.2,0,0.5-0.1,0.9-0.2
		c0.3-0.2,0.8-0.4,1.2-0.8c0.3-0.2,0.6-0.5,1-0.7c0.3-0.3,0.5-0.4,0.5-0.4c0,0,0.1,0,0.1,0c0,0,0,0.1,0,0.1c0,0.1-0.3,0.4-0.9,0.9
		l0,0c-0.6,0.5-1.1,0.8-1.7,1.1c-0.5,0.3-1,0.4-1.3,0.4c-0.2,0-0.4-0.1-0.6-0.2c-0.1-0.1-0.2-0.3-0.2-0.5c0-0.3,0.1-0.7,0.3-1.1
		C105.1,11.8,105.3,11.3,105.7,10.7z M100.4,12.1c0.7-0.2,1.3-0.4,1.8-0.7c0.5-0.3,0.7-0.6,0.7-0.9c0-0.1,0-0.2-0.1-0.2
		c0,0-0.1-0.1-0.2-0.1c-0.3,0-0.6,0.2-1,0.5C101.4,11,100.9,11.5,100.4,12.1z M100.2,12.6c0,0.1-0.1,0.2-0.1,0.3c0,0.1,0,0.2,0,0.3
		c0,0.2,0.1,0.3,0.2,0.4c0.1,0.1,0.3,0.1,0.5,0.1c0.3,0,0.7-0.1,1.2-0.4c0.5-0.2,1-0.6,1.6-1c0.1-0.1,0.3-0.3,0.5-0.5
		c0.2-0.2,0.3-0.3,0.4-0.3s0.1,0,0.1,0c0,0,0,0.1,0,0.1c0,0.1-0.1,0.2-0.2,0.3c-0.1,0.1-0.4,0.4-0.7,0.7c-0.5,0.5-1.1,0.8-1.6,1.1
		c-0.5,0.3-1,0.4-1.4,0.4c-0.4,0-0.7-0.1-0.9-0.3s-0.3-0.5-0.3-1c0-0.4,0.1-0.7,0.3-1.1s0.6-0.7,1-1c0.4-0.3,0.7-0.5,1.1-0.6
		c0.3-0.1,0.6-0.2,0.9-0.2c0.3,0,0.4,0,0.5,0.1c0.1,0.1,0.2,0.2,0.2,0.4c0,0.4-0.3,0.8-0.9,1.3C101.8,12.1,101.1,12.4,100.2,12.6z
		 M92.8,14c0,0-0.1,0-0.2,0s-0.2,0-0.4,0c-0.2,0-0.3,0-0.4,0c-0.1,0-0.1,0-0.1-0.1c0-0.1,0.2-0.4,0.7-0.8c0.3-0.3,0.6-0.5,0.8-0.7
		l0.2-0.2c1.1-1,1.6-1.6,1.6-1.8c0,0,0-0.1,0-0.1c0,0,0,0-0.1,0c-0.2,0-0.3,0.1-0.6,0.2c-0.2,0.1-0.6,0.4-1,0.8
		c-0.1,0.1-0.2,0.2-0.4,0.3c-0.2,0.2-0.3,0.3-0.4,0.3c0,0-0.1,0-0.1,0c0,0,0-0.1,0-0.1c0-0.1,0.2-0.3,0.6-0.6
		c0.1-0.1,0.1-0.1,0.2-0.2c0.4-0.4,0.8-0.7,1.2-0.9s0.6-0.3,0.8-0.3c0.2,0,0.3,0.1,0.4,0.2c0.1,0.1,0.1,0.3,0.1,0.5c0,0,0,0.1,0,0.1
		c0,0.1,0,0.1,0,0.2c0.5-0.4,0.9-0.6,1.3-0.8c0.3-0.2,0.6-0.2,0.8-0.2c0.2,0,0.3,0.1,0.4,0.2c0.1,0.1,0.1,0.2,0.1,0.4
		c0,0.2-0.1,0.4-0.2,0.6c-0.1,0.2-0.4,0.5-0.8,0.9c-0.1,0.1-0.3,0.3-0.5,0.4c-0.6,0.6-1,1-1,1.1c0,0.1,0,0.1,0.1,0.1
		c0,0,0.1,0.1,0.2,0.1c0.2,0,0.6-0.1,1-0.3c0.4-0.2,0.9-0.5,1.4-0.9c0.2-0.2,0.4-0.3,0.7-0.6c0.2-0.2,0.4-0.3,0.4-0.3
		c0,0,0.1,0,0.1,0c0,0,0,0.1,0,0.1c0,0.1-0.3,0.4-0.9,0.9l0,0c-0.6,0.5-1.1,0.8-1.7,1.1c-0.5,0.3-0.9,0.4-1.2,0.4
		c-0.2,0-0.4-0.1-0.6-0.2c-0.2-0.1-0.2-0.3-0.2-0.5c0-0.3,0.1-0.5,0.3-0.8c0.2-0.3,0.5-0.6,0.8-0.9c0.1-0.1,0.3-0.2,0.5-0.4
		c0.5-0.4,0.7-0.7,0.7-0.7c0,0,0-0.1-0.1-0.1s-0.1,0-0.1,0c-0.3,0-0.9,0.3-1.8,1C94.8,12.1,93.8,12.9,92.8,14z M90.8,12
		c-0.7,0.7-1.3,1.2-1.9,1.5c-0.6,0.4-1,0.5-1.4,0.5c-0.3,0-0.5-0.1-0.7-0.2c-0.2-0.2-0.2-0.4-0.2-0.6c0-0.4,0.2-0.8,0.4-1.2
		c0.3-0.4,0.7-0.8,1.3-1.2c0.4-0.3,0.8-0.5,1.3-0.7c0.4-0.2,0.8-0.3,1.1-0.3c0.3,0,0.5,0.1,0.6,0.2c0.2,0.1,0.2,0.3,0.2,0.6
		c0,0.2,0,0.3-0.1,0.5c-0.1,0.2-0.2,0.4-0.4,0.6c0.1,0.1,0.1,0.2,0.2,0.3c0.1,0.1,0.2,0.1,0.4,0.1c0.2,0,0.4-0.1,0.7-0.3
		c0.3-0.2,0.4-0.3,0.5-0.3c0,0,0.1,0,0.1,0c0,0,0,0.1,0,0.1c0,0.1-0.2,0.3-0.5,0.5s-0.6,0.3-0.8,0.3c-0.2,0-0.3,0-0.5-0.1
		C91.1,12.2,91,12.1,90.8,12z M87.3,13.4c0,0.1,0,0.2,0.1,0.2c0,0,0.1,0.1,0.2,0.1c0.2,0,0.5-0.1,0.9-0.3c0.4-0.2,0.8-0.5,1.3-1
		c0.4-0.4,0.8-0.7,1-1c0.2-0.3,0.4-0.6,0.4-0.8c0-0.1,0-0.2-0.1-0.2c-0.1-0.1-0.1-0.1-0.2-0.1c-0.2,0-0.4,0.1-0.7,0.3
		c-0.3,0.2-0.6,0.4-1,0.7c-0.6,0.5-1,0.9-1.4,1.3C87.5,12.9,87.3,13.2,87.3,13.4z M84.6,11.1c-0.3,0.2-0.6,0.4-0.9,0.6
		c-0.3,0.2-0.5,0.3-0.5,0.3c0,0-0.1,0-0.1,0c0,0,0,0,0-0.1c0-0.1,0.1-0.2,0.3-0.3l0,0l0.5-0.4c0.6-0.5,1.1-0.8,1.5-1
		c0.4-0.2,0.7-0.3,0.8-0.3c0.2,0,0.4,0,0.6,0c0.1,0,0.2,0.1,0.2,0.1c0,0-0.2,0.2-0.6,0.6c-0.4,0.4-0.8,0.7-1.2,1.1
		c-0.5,0.5-0.8,0.8-1.1,1.1c-0.2,0.3-0.4,0.5-0.4,0.6c0,0.1,0,0.1,0.1,0.2c0,0,0.1,0.1,0.2,0.1c0.2,0,0.6-0.1,1-0.3
		c0.4-0.2,0.9-0.5,1.4-0.9c0.2-0.1,0.4-0.3,0.6-0.5c0.2-0.2,0.4-0.3,0.4-0.3c0,0,0.1,0,0.1,0c0,0,0,0.1,0,0.1c0,0.1-0.2,0.4-0.8,0.8
		l-0.2,0.1c-0.5,0.4-1.1,0.8-1.6,1c-0.5,0.3-0.9,0.4-1.2,0.4c-0.2,0-0.4-0.1-0.6-0.2S83,13.6,83,13.4c0-0.3,0.1-0.6,0.4-1
		C83.7,12,84.1,11.6,84.6,11.1z M87.9,7.7c0-0.2,0.1-0.3,0.2-0.4c0.1-0.1,0.2-0.1,0.4-0.1c0.2,0,0.3,0,0.4,0.1
		C88.9,7.5,89,7.6,89,7.7c0,0.2-0.1,0.3-0.2,0.4c-0.1,0.1-0.2,0.1-0.4,0.1c-0.2,0-0.3,0-0.4-0.1C87.9,8,87.9,7.9,87.9,7.7z
		 M80.2,10.8c-0.3,0.2-0.7,0.5-1.1,0.9c-0.4,0.3-0.6,0.5-0.7,0.5c0,0,0,0-0.1,0s0-0.1,0-0.1c0-0.1,0.6-0.7,1.9-1.7L81,9.8L81.7,9
		h-1.4l0.3-0.3h1.4l1.5-1.9c0.1-0.1,0.1-0.1,0.2-0.2c0.1,0,0.1,0,0.2,0c0.2,0,0.3,0,0.4,0.1c0.1,0,0.2,0.1,0.2,0.2c0,0,0,0.1,0,0.1
		c0,0,0,0.1-0.1,0.1L83,8.8h1.6L84.3,9h-1.6l-1.9,2.1c-0.4,0.5-0.8,0.9-1,1.3c-0.2,0.3-0.3,0.6-0.3,0.9c0,0.1,0,0.2,0.1,0.3
		c0,0.1,0.1,0.1,0.2,0.1c0.3,0,0.6-0.1,1.1-0.3c0.4-0.2,0.9-0.5,1.5-0.9c0.2-0.2,0.4-0.3,0.6-0.5c0.2-0.2,0.4-0.3,0.4-0.3
		c0,0,0.1,0,0.1,0c0,0,0,0.1,0,0.1c0,0.1-0.1,0.2-0.2,0.3c-0.1,0.1-0.4,0.3-0.8,0.7c-0.6,0.5-1.1,0.8-1.6,1.1
		c-0.5,0.3-0.9,0.4-1.3,0.4c-0.2,0-0.4-0.1-0.6-0.2c-0.1-0.1-0.2-0.3-0.2-0.5c0-0.3,0.1-0.7,0.3-1.1C79.5,11.8,79.8,11.3,80.2,10.8z
		 M75.9,11.1c-0.3,0.2-0.6,0.4-0.9,0.6c-0.3,0.2-0.5,0.3-0.5,0.3c0,0-0.1,0-0.1,0c0,0,0,0,0-0.1c0-0.1,0.1-0.2,0.3-0.3l0,0l0.5-0.4
		c0.6-0.5,1.1-0.8,1.5-1c0.4-0.2,0.7-0.3,0.8-0.3c0.2,0,0.4,0,0.6,0c0.1,0,0.2,0.1,0.2,0.1c0,0-0.2,0.2-0.6,0.6
		c-0.4,0.4-0.8,0.7-1.2,1.1c-0.5,0.5-0.8,0.8-1.1,1.1c-0.2,0.3-0.4,0.5-0.4,0.6c0,0.1,0,0.1,0.1,0.2c0,0,0.1,0.1,0.2,0.1
		c0.2,0,0.6-0.1,1-0.3c0.4-0.2,0.9-0.5,1.4-0.9c0.2-0.1,0.4-0.3,0.6-0.5c0.2-0.2,0.4-0.3,0.4-0.3c0,0,0.1,0,0.1,0c0,0,0,0.1,0,0.1
		c0,0.1-0.2,0.4-0.8,0.8l-0.2,0.1c-0.5,0.4-1.1,0.8-1.6,1c-0.5,0.3-0.9,0.4-1.2,0.4c-0.2,0-0.4-0.1-0.6-0.2s-0.2-0.3-0.2-0.5
		c0-0.3,0.1-0.6,0.4-1C75,12,75.4,11.6,75.9,11.1z M79.1,7.7c0-0.2,0.1-0.3,0.2-0.4c0.1-0.1,0.2-0.1,0.4-0.1c0.2,0,0.3,0,0.4,0.1
		c0.1,0.1,0.2,0.2,0.2,0.4c0,0.2-0.1,0.3-0.2,0.4c-0.1,0.1-0.2,0.1-0.4,0.1c-0.2,0-0.3,0-0.4-0.1C79.2,8,79.1,7.9,79.1,7.7z
		 M70.2,13.2c-0.3,0.3-0.6,0.5-0.9,0.7c-0.3,0.2-0.5,0.2-0.7,0.2c-0.2,0-0.4-0.1-0.5-0.2s-0.2-0.4-0.2-0.7c0-0.4,0.1-0.7,0.3-1
		c0.2-0.3,0.4-0.6,0.8-0.9c0.5-0.4,1-0.7,1.5-1c0.5-0.2,1-0.4,1.4-0.4c0.2,0,0.4,0,0.5,0.1c0.1,0.1,0.2,0.2,0.2,0.4l4.8-5.9
		c0.1-0.1,0.1-0.1,0.2-0.1c0.1,0,0.1,0,0.2,0c0.2,0,0.3,0,0.4,0.1c0.1,0,0.2,0.1,0.2,0.2c0,0,0,0.1,0,0.1c0,0-0.1,0.1-0.1,0.2
		l-6.7,7.9c-0.2,0.2-0.3,0.3-0.4,0.5c-0.1,0.1-0.1,0.3-0.1,0.3c0,0.1,0,0.1,0,0.1c0,0,0.1,0,0.2,0c0.2,0,0.6-0.1,1-0.3
		s0.9-0.5,1.4-0.9c0.2-0.2,0.4-0.3,0.7-0.6c0.2-0.2,0.4-0.3,0.4-0.3c0,0,0.1,0,0.1,0c0,0,0,0.1,0,0.1c0,0.1-0.3,0.4-0.9,0.9l0,0
		c-0.6,0.5-1.2,0.8-1.7,1.1c-0.5,0.3-1,0.4-1.3,0.4c-0.2,0-0.4-0.1-0.6-0.2c-0.1-0.1-0.2-0.3-0.2-0.6C70.2,13.3,70.2,13.3,70.2,13.2
		C70.2,13.2,70.2,13.2,70.2,13.2z M70.2,12.8l1.3-1.4c0,0,0.1-0.1,0.2-0.2c0.4-0.4,0.5-0.7,0.5-0.8c0-0.1,0-0.1-0.1-0.1
		c0,0-0.1,0-0.2,0c-0.2,0-0.4,0.1-0.7,0.2c-0.3,0.2-0.6,0.4-0.9,0.6c-0.5,0.4-0.9,0.9-1.2,1.3c-0.3,0.5-0.5,0.8-0.5,1
		c0,0.1,0,0.1,0.1,0.2c0,0,0.1,0.1,0.2,0.1c0.1,0,0.3-0.1,0.6-0.2C69.7,13.3,69.9,13.1,70.2,12.8z M64.1,13.2
		c-0.3,0.3-0.6,0.5-0.9,0.7c-0.3,0.2-0.5,0.2-0.7,0.2c-0.2,0-0.4-0.1-0.5-0.2c-0.1-0.2-0.2-0.4-0.2-0.7c0-0.4,0.1-0.7,0.3-1
		c0.2-0.3,0.4-0.6,0.8-0.9c0.5-0.4,0.9-0.7,1.5-1c0.5-0.2,1-0.4,1.4-0.4c0.2,0,0.4,0,0.5,0.1c0.1,0.1,0.2,0.2,0.2,0.4
		c0.1-0.1,0.2-0.2,0.3-0.3c0.1-0.1,0.2-0.2,0.3-0.2c0,0,0.1,0,0.2,0c0.1,0,0.1,0,0.2,0c0.2,0,0.3,0,0.4,0s0.1,0.1,0.1,0.1
		s-0.1,0.2-0.4,0.4c-0.1,0.1-0.2,0.2-0.3,0.3c-0.7,0.7-1.3,1.2-1.7,1.7c-0.4,0.5-0.6,0.8-0.6,1c0,0.1,0,0.1,0,0.1c0,0,0.1,0,0.2,0
		c0.2,0,0.6-0.1,1-0.3c0.5-0.2,0.9-0.5,1.4-0.9c0.2-0.2,0.4-0.3,0.7-0.6c0.2-0.2,0.4-0.3,0.4-0.3c0,0,0.1,0,0.1,0c0,0,0,0.1,0,0.1
		c0,0.1-0.3,0.4-0.9,0.9l0,0c-0.6,0.5-1.1,0.8-1.7,1.1c-0.5,0.3-1,0.4-1.3,0.4c-0.2,0-0.4-0.1-0.6-0.2c-0.1-0.1-0.2-0.3-0.2-0.5
		C64.1,13.3,64.1,13.3,64.1,13.2C64.1,13.2,64.1,13.2,64.1,13.2z M64.1,12.8l1.8-1.9c0.1-0.1,0.1-0.2,0.2-0.2c0-0.1,0.1-0.1,0.1-0.2
		c0-0.1,0-0.1-0.1-0.1c0,0-0.1,0-0.2,0c-0.2,0-0.4,0.1-0.7,0.2c-0.3,0.2-0.6,0.4-0.9,0.6c-0.5,0.4-0.9,0.9-1.2,1.3
		c-0.3,0.5-0.5,0.8-0.5,1c0,0.1,0,0.1,0.1,0.2c0,0,0.1,0.1,0.2,0.1c0.1,0,0.3-0.1,0.6-0.2C63.6,13.3,63.8,13.1,64.1,12.8z
		 M60.8,10.2C60.8,10.2,60.8,10.1,60.8,10.2c0.1-0.1,0.2-0.1,0.2-0.1c0.1,0,0.3,0,0.4,0.1c0.1,0,0.2,0.1,0.2,0.1c0,0,0,0.1-0.1,0.2
		s-0.2,0.2-0.2,0.3c-0.2,0.3-0.3,0.5-0.4,0.7c-0.1,0.2-0.2,0.5-0.2,0.6c0,0.1,0,0.2,0.1,0.3c0.1,0.1,0.2,0.1,0.3,0.1
		c0.1,0,0.3,0,0.4-0.1c0.2-0.1,0.3-0.2,0.6-0.4c0.1-0.1,0.2-0.2,0.4-0.3c0.2-0.2,0.3-0.2,0.3-0.2c0,0,0.1,0,0.1,0c0,0,0,0.1,0,0.1
		c0,0,0,0.1-0.1,0.2c-0.1,0.1-0.2,0.2-0.4,0.3c-0.4,0.3-0.7,0.5-0.9,0.6c-0.2,0.1-0.4,0.2-0.6,0.2c-0.3,0-0.5-0.1-0.6-0.2
		c-0.2-0.2-0.2-0.4-0.2-0.7c0-0.1,0-0.2,0-0.4c0-0.1,0.1-0.3,0.1-0.4c-0.5,0.4-0.9,0.9-1.4,1.4c-0.4,0.5-0.8,0.9-1.2,1.4
		c-0.1,0-0.3,0-0.4,0c-0.1,0-0.2,0-0.3,0c-0.1,0-0.2,0-0.2,0c-0.1,0-0.1,0-0.1-0.1c0-0.1,0.2-0.3,0.5-0.6c0.2-0.2,0.3-0.4,0.5-0.5
		c0.6-0.7,1-1.2,1.2-1.5c0.2-0.3,0.3-0.5,0.3-0.7c0,0,0-0.1,0-0.1c0,0,0,0-0.1,0c-0.1,0-0.3,0.1-0.5,0.2c-0.2,0.1-0.5,0.3-0.9,0.6
		c-0.1,0.1-0.2,0.2-0.4,0.3c-0.2,0.2-0.3,0.3-0.4,0.3c0,0-0.1,0-0.1,0s0-0.1,0-0.1c0-0.1,0.1-0.1,0.2-0.2c0.1-0.1,0.3-0.3,0.6-0.5
		c0.4-0.3,0.8-0.6,1.2-0.8c0.4-0.2,0.7-0.3,0.9-0.3c0.2,0,0.3,0,0.3,0.1c0.1,0.1,0.1,0.2,0.1,0.4c0,0.1,0,0.3-0.1,0.4
		c0,0.2-0.1,0.3-0.2,0.5L60.8,10.2z M55,4.3c0,0.1-0.1,0.4-0.2,0.7c-0.2,0.3-0.3,0.6-0.6,1c-0.5,0.7-1,1.2-1.7,1.6
		C51.9,7.8,51.3,8,50.6,8c-0.6,0-1.1-0.2-1.5-0.6c-0.4-0.4-0.6-0.9-0.6-1.5c0-1.1,0.5-2,1.6-2.8c1.1-0.7,2.5-1.1,4.3-1.1
		c0.8,0,2,0.1,3.7,0.4l0.1,0c0.2,0,0.5,0.1,0.8,0.1C60.5,2.9,61.3,3,61.7,3c0.4,0,0.8-0.1,1.2-0.2c0.1,0,0.1,0,0.2,0
		c0,0,0.1,0,0.1,0c0,0,0.1,0.1,0.1,0.1c0,0.2-0.2,0.3-0.6,0.5c-0.4,0.2-0.8,0.2-1.3,0.2c-0.2,0-0.5,0-0.7,0c-0.2,0-0.5-0.1-0.7-0.1
		c-0.1,0-0.3-0.1-0.5-0.1c-2.1-0.5-3.6-0.8-4.6-0.8c-0.8,0-1.5,0.1-2.1,0.3C52,3,51.5,3.3,51,3.6c-0.6,0.5-1.1,0.9-1.4,1.3
		c-0.3,0.4-0.5,0.8-0.5,1.2c0,0.4,0.2,0.7,0.5,1c0.3,0.3,0.7,0.4,1.2,0.4c0.6,0,1.2-0.2,1.8-0.6s1.1-1,1.6-1.7
		c0.1-0.2,0.3-0.5,0.4-0.7s0.2-0.4,0.3-0.4c0,0,0.1,0,0.1,0C55,4.2,55,4.2,55,4.3z M47.9,13.7c0.9,0,2-0.5,3-1.4
		c1.1-1,2.4-2.6,4-4.8c0.9-1.3,1.7-2.3,2.3-3c0.6-0.7,1-1,1.2-1c0,0,0.1,0,0.1,0c0,0,0,0,0,0.1c0,0-0.2,0.3-0.6,0.8
		s-0.8,1.1-1.2,1.7c-0.1,0.2-0.3,0.4-0.5,0.8c-1.6,2.7-3,4.5-4.1,5.4c-0.7,0.6-1.4,1-2.1,1.3c-0.7,0.3-1.4,0.5-2.1,0.5
		c-0.8,0-1.4-0.2-1.8-0.5c-0.5-0.3-0.7-0.8-0.7-1.4c0-0.3,0.1-0.6,0.3-0.8c0.2-0.2,0.4-0.3,0.7-0.3c0.2,0,0.4,0.1,0.5,0.2
		c0.1,0.1,0.2,0.3,0.2,0.5c0,0.2-0.1,0.3-0.2,0.5c-0.1,0.1-0.3,0.2-0.5,0.2c0,0-0.1,0-0.2,0c-0.1,0-0.1,0-0.2,0c0,0-0.1,0-0.1,0
		c0,0,0,0.1,0,0.1c0,0.3,0.2,0.6,0.5,0.8C46.9,13.6,47.4,13.7,47.9,13.7z"/>
</g>
</svg>
